{
copyright = "Copyright (c) Mark Simonson 2009-2010. All rights reserved.";
customParameters = (
{
name = license;

glyphs = (
{
glyphname = .notdef;
lastChange = "2013-08-07 13:45:35 +0000";
layers = (
{
layerId = "7B42E6E7-B323-448C-AC07-14628C7F1CBB";
name = Bold;
paths = (
{
closed = 1;
nodes = (
"883 0 LINE",
"49 0 LINE",
"49 1305 LINE",
"883 1305 LINE"
);
},
{
closed = 1;
nodes = (
"256 186 LINE",
"676 186 LINE",
"676 1118 LINE",
"256 1118 LINE"
);
}
);
width = 1118;
}
);
},
{
glyphname = exclam;
lastChange = "2013-08-07 13:45:35 +0000";
layers = (
{
layerId = "7B42E6E7-B323-448C-AC07-14628C7F1CBB";
name = Bold;
paths = (
{
closed = 1;
nodes = (
"602 1305 LINE",
"551 373 LINE",
"381 373 LINE",
"330 1305 LINE"
);
},
{
closed = 1;
nodes = (
"592 0 LINE",
"340 0 LINE",
"340 252 LINE",
"592 252 LINE"
);
}
);
width = 1118;
}
);
unicode = 0021;
},
{
glyphname = quotedbl;
lastChange = "2013-08-07 13:45:35 +0000";
layers = (
{
layerId = "7B42E6E7-B323-448C-AC07-14628C7F1CBB";
name = Bold;
paths = (
{
closed = 1;
nodes = (
"776 1305 LINE",
"731 805 LINE",
"573 805 LINE",
"528 1305 LINE"
);
},
{
closed = 1;
nodes = (
"403 1305 LINE",
"358 805 LINE",
"201 805 LINE",
"156 1305 LINE"
);
}
);
width = 1118;
}
);
unicode = 0022;
},
{
glyphname = numbersign;
lastChange = "2013-08-07 13:45:35 +0000";
layers = (
{
layerId = "7B42E6E7-B323-448C-AC07-14628C7F1CBB";
name = Bold;
paths = (
{
closed = 1;
nodes = (
"932 187 LINE",
"745 187 LINE",
"745 1 LINE",
"559 1 LINE",
"559 187 LINE",
"373 187 LINE",
"373 1 LINE",
"186 1 LINE",
"186 187 LINE",
"0 187 LINE",
"0 373 LINE",
"186 373 LINE",
"186 560 LINE",
"0 560 LINE",
"0 746 LINE",
"186 746 LINE",
"186 933 LINE",
"373 933 LINE",
"373 746 LINE",
"559 746 LINE",
"559 933 LINE",
"745 933 LINE",
"745 746 LINE",
"932 746 LINE",
"932 560 LINE",
"745 560 LINE",
"745 373 LINE",
"932 373 LINE"
);
},
{
closed = 1;
nodes = (
"559 373 LINE",
"559 560 LINE",
"373 560 LINE",
"373 373 LINE"
);
}
);
width = 1118;
}
);
unicode = 0023;
},
{
glyphname = dollar;
lastChange = "2013-08-07 13:45:35 +0000";
layers = (
{
layerId = "7B42E6E7-B323-448C-AC07-14628C7F1CBB";
name = Bold;
paths = (
{
closed = 1;
nodes = (
"373 -16 LINE",
"141 13 OFFCURVE",
"1 162 OFFCURVE",
"-20 373 CURVE",
"172 403 LINE",
"197 275 OFFCURVE",
"264 198 OFFCURVE",
"373 172 CURVE",
"373 610 LINE",
"285 646 OFFCURVE",
"196 683 OFFCURVE",
"131 743 CURVE SMOOTH",
"66 803 OFFCURVE",
"23 881 OFFCURVE",
"23 993 CURVE SMOOTH",
"23 1162 OFFCURVE",
"152 1293 OFFCURVE",
"373 1321 CURVE",
"373 1491 LINE",
"559 1491 LINE",
"559 1317 LINE",
"666 1298 OFFCURVE",
"751 1250 OFFCURVE",
"811 1183 CURVE SMOOTH",
"871 1116 OFFCURVE",
"906 1031 OFFCURVE",
"911 940 CURVE",
"717 918 LINE",
"702 1028 OFFCURVE",
"649 1097 OFFCURVE",
"559 1126 CURVE",
"559 752 LINE",
"650 716 OFFCURVE",
"743 675 OFFCURVE",
"812 611 CURVE SMOOTH",
"881 547 OFFCURVE",
"930 463 OFFCURVE",
"930 340 CURVE SMOOTH",
"930 252 OFFCURVE",
"895 172 OFFCURVE",
"832 108 CURVE SMOOTH",
"768 43 OFFCURVE",
"676 0 OFFCURVE",
"559 -16 CURVE",
"559 -186 LINE",
"373 -186 LINE"
);
},
{
closed = 1;
nodes = (
"723 436 OFFCURVE",
"655 488 OFFCURVE",
"559 535 CURVE",
"559 172 LINE",
"660 191 OFFCURVE",
"723 244 OFFCURVE",
"723 340 CURVE SMOOTH"
);
},
{
closed = 1;
nodes = (
"229 916 OFFCURVE",
"288 868 OFFCURVE",
"373 827 CURVE",
"373 1133 LINE",
"282 1116 OFFCURVE",
"229 1072 OFFCURVE",
"229 995 CURVE SMOOTH"
);
}
);
width = 1118;
}
);
unicode = 0024;
},
{
glyphname = percent;
lastChange = "2013-08-07 13:45:35 +0000";
layers = (
{
layerId = "7B42E6E7-B323-448C-AC07-14628C7F1CBB";
name = Bold;
paths = (
{
closed = 1;
nodes = (
"954 1257 LINE",
"119 -41 LINE",
"-18 47 LINE",
"819 1350 LINE"
);
},
{
closed = 1;
nodes = (
"-25 1141 OFFCURVE",
"5 1208 OFFCURVE",
"50 1253 CURVE SMOOTH",
"95 1297 OFFCURVE",
"158 1327 OFFCURVE",
"229 1327 CURVE SMOOTH",
"298 1327 OFFCURVE",
"364 1297 OFFCURVE",
"409 1253 CURVE SMOOTH",
"453 1208 OFFCURVE",
"483 1141 OFFCURVE",
"483 1073 CURVE SMOOTH",
"483 1002 OFFCURVE",
"453 939 OFFCURVE",
"409 894 CURVE SMOOTH",
"364 849 OFFCURVE",
"298 819 OFFCURVE",
"229 819 CURVE SMOOTH",
"158 819 OFFCURVE",
"95 849 OFFCURVE",
"50 894 CURVE SMOOTH",
"5 939 OFFCURVE",
"-25 1002 OFFCURVE",
"-25 1073 CURVE SMOOTH"
);
},
{
closed = 1;
nodes = (
"125 1018 OFFCURVE",
"172 971 OFFCURVE",
"229 971 CURVE SMOOTH",
"286 971 OFFCURVE",
"334 1018 OFFCURVE",
"334 1075 CURVE SMOOTH",
"334 1132 OFFCURVE",
"286 1180 OFFCURVE",
"229 1180 CURVE SMOOTH",
"172 1180 OFFCURVE",
"125 1132 OFFCURVE",
"125 1075 CURVE SMOOTH"
);
},
{
closed = 1;
nodes = (
"453 300 OFFCURVE",
"483 366 OFFCURVE",
"528 411 CURVE SMOOTH",
"572 455 OFFCURVE",
"635 485 OFFCURVE",
"707 485 CURVE SMOOTH",
"775 485 OFFCURVE",
"841 455 OFFCURVE",
"886 411 CURVE SMOOTH",
"931 366 OFFCURVE",
"961 300 OFFCURVE",
"961 231 CURVE SMOOTH",
"961 160 OFFCURVE",
"931 97 OFFCURVE",
"886 52 CURVE SMOOTH",
"841 7 OFFCURVE",
"775 -23 OFFCURVE",
"707 -23 CURVE SMOOTH",
"635 -23 OFFCURVE",
"572 7 OFFCURVE",
"528 52 CURVE SMOOTH",
"483 97 OFFCURVE",
"453 160 OFFCURVE",
"453 231 CURVE SMOOTH"
);
},
{
closed = 1;
nodes = (
"602 176 OFFCURVE",
"650 129 OFFCURVE",
"707 129 CURVE SMOOTH",
"764 129 OFFCURVE",
"811 176 OFFCURVE",
"811 233 CURVE SMOOTH",
"811 290 OFFCURVE",
"764 338 OFFCURVE",
"707 338 CURVE SMOOTH",
"650 338 OFFCURVE",
"602 290 OFFCURVE",
"602 233 CURVE SMOOTH"
);
}
);
width = 1118;
}
);
unicode = 0025;
},
{
glyphname = ampersand;
lastChange = "2013-08-07 13:45:35 +0000";
layers = (
{
layerId = "7B42E6E7-B323-448C-AC07-14628C7F1CBB";
name = Bold;
paths = (
{
closed = 1;
nodes = (
"956 565 LINE",
"935 468 OFFCURVE",
"897 362 OFFCURVE",
"834 266 CURVE",
"991 121 LINE",
"862 -27 LINE",
"713 119 LINE",
"617 31 OFFCURVE",
"504 -23 OFFCURVE",
"365 -23 CURVE SMOOTH",
"256 -23 OFFCURVE",
"156 17 OFFCURVE",
"87 81 CURVE SMOOTH",
"18 145 OFFCURVE",
"-25 233 OFFCURVE",
"-25 334 CURVE SMOOTH",
"-25 509 OFFCURVE",
"50 611 OFFCURVE",
"139 690 CURVE",
"63 786 OFFCURVE",
"20 879 OFFCURVE",
"20 991 CURVE SMOOTH",
"20 1092 OFFCURVE",
"59 1177 OFFCURVE",
"118 1236 CURVE SMOOTH",
"177 1295 OFFCURVE",
"259 1327 OFFCURVE",
"348 1327 CURVE SMOOTH",
"439 1327 OFFCURVE",
"520 1299 OFFCURVE",
"579 1248 CURVE SMOOTH",
"638 1197 OFFCURVE",
"672 1125 OFFCURVE",
"672 1032 CURVE SMOOTH",
"672 943 OFFCURVE",
"638 872 OFFCURVE",
"587 815 CURVE SMOOTH",
"536 758 OFFCURVE",
"471 711 OFFCURVE",
"408 668 CURVE",
"692 399 LINE",
"725 466 OFFCURVE",
"749 539 OFFCURVE",
"768 612 CURVE"
);
},
{
closed = 1;
nodes = (
"458 164 OFFCURVE",
"525 196 OFFCURVE",
"582 248 CURVE",
"268 553 LINE",
"266 553 LINE",
"217 501 OFFCURVE",
"182 438 OFFCURVE",
"182 358 CURVE SMOOTH",
"182 243 OFFCURVE",
"267 164 OFFCURVE",
"379 164 CURVE SMOOTH"
);
},
{
closed = 1;
nodes = (
"227 918 OFFCURVE",
"236 865 OFFCURVE",
"285 797 CURVE",
"334 829 OFFCURVE",
"379 860 OFFCURVE",
"412 899 CURVE SMOOTH",
"444 938 OFFCURVE",
"465 981 OFFCURVE",
"465 1036 CURVE SMOOTH",
"465 1099 OFFCURVE",
"416 1141 OFFCURVE",
"356 1141 CURVE SMOOTH",
"277 1141 OFFCURVE",
"227 1076 OFFCURVE",
"227 991 CURVE SMOOTH"
);
}
);
width = 1118;
}
);
unicode = 0026;
},
{
glyphname = quotesingle;
lastChange = "2013-08-07 13:45:35 +0000";
layers = (
{
layerId = "7B42E6E7-B323-448C-AC07-14628C7F1CBB";
name = Bold;
paths = (
{
closed = 1;
nodes = (
"590 1305 LINE",
"545 805 LINE",
"387 805 LINE",
"342 1305 LINE"
);
}
);
width = 1118;
}
);
unicode = 0027;
},
{
glyphname = parenleft;
lastChange = "2013-08-07 13:45:35 +0000";
layers = (
{
layerId = "7B42E6E7-B323-448C-AC07-14628C7F1CBB";
name = Bold;
paths = (
{
closed = 1;
nodes = (
"375 415 OFFCURVE",
"410 260 OFFCURVE",
"475 121 CURVE SMOOTH",
"540 -19 OFFCURVE",
"637 -146 OFFCURVE",
"760 -242 CURVE",
"633 -369 LINE",
"490 -257 OFFCURVE",
"379 -112 OFFCURVE",
"304 49 CURVE SMOOTH",
"229 210 OFFCURVE",
"188 387 OFFCURVE",
"188 567 CURVE SMOOTH",
"188 747 OFFCURVE",
"229 925 OFFCURVE",
"304 1086 CURVE SMOOTH",
"379 1246 OFFCURVE",
"490 1391 OFFCURVE",
"633 1503 CURVE",
"760 1376 LINE",
"637 1281 OFFCURVE",
"540 1153 OFFCURVE",
"475 1014 CURVE SMOOTH",
"410 874 OFFCURVE",
"375 720 OFFCURVE",
"375 567 CURVE SMOOTH"
);
}
);
width = 1118;
}
);
unicode = 0028;
},
{
glyphname = parenright;
lastChange = "2013-08-07 13:45:35 +0000";
layers = (
{
layerId = "7B42E6E7-B323-448C-AC07-14628C7F1CBB";
name = Bold;
paths = (
{
closed = 1;
nodes = (
"561 718 OFFCURVE",
"526 872 OFFCURVE",
"461 1012 CURVE SMOOTH",
"396 1151 OFFCURVE",
"299 1279 OFFCURVE",
"176 1374 CURVE",
"303 1501 LINE",
"446 1389 OFFCURVE",
"554 1244 OFFCURVE",
"631 1084 CURVE SMOOTH",
"707 923 OFFCURVE",
"748 745 OFFCURVE",
"748 565 CURVE SMOOTH",
"748 385 OFFCURVE",
"707 208 OFFCURVE",
"631 47 CURVE SMOOTH",
"554 -114 OFFCURVE",
"446 -259 OFFCURVE",
"303 -371 CURVE",
"176 -244 LINE",
"299 -148 OFFCURVE",
"396 -21 OFFCURVE",
"461 119 CURVE SMOOTH",
"526 258 OFFCURVE",
"561 413 OFFCURVE",
"561 565 CURVE SMOOTH"
);
}
);
width = 1118;
}
);
unicode = 0029;
},
{
glyphname = asterisk;
lastChange = "2013-08-07 13:45:35 +0000";
layers = (
{
layerId = "7B42E6E7-B323-448C-AC07-14628C7F1CBB";
name = Bold;
paths = (
{
closed = 1;
nodes = (
"537 591 LINE",
"819 787 LINE",
"918 613 LINE",
"608 466 LINE",
"918 320 LINE",
"819 146 LINE",
"537 343 LINE",
"565 1 LINE",
"367 1 LINE",
"395 343 LINE",
"113 146 LINE",
"14 320 LINE",
"324 466 LINE",
"14 613 LINE",
"113 787 LINE",
"395 591 LINE",
"367 933 LINE",
"565 933 LINE"
);
}
);
width = 1118;
}
);
unicode = 002A;
},
{
glyphname = plus;
lastChange = "2013-08-07 13:45:35 +0000";
layers = (
{
layerId = "7B42E6E7-B323-448C-AC07-14628C7F1CBB";
name = Bold;
paths = (
{
closed = 1;
nodes = (
"932 385 LINE",
"559 385 LINE",
"559 13 LINE",
"373 13 LINE",
"373 385 LINE",
"0 385 LINE",
"0 572 LINE",
"373 572 LINE",
"373 944 LINE",
"559 944 LINE",
"559 572 LINE",
"932 572 LINE"
);
}
);
width = 1118;
}
);
unicode = 002B;
},
{
glyphname = comma;
lastChange = "2013-08-07 13:45:35 +0000";
layers = (
{
layerId = "7B42E6E7-B323-448C-AC07-14628C7F1CBB";
name = Bold;
paths = (
{
closed = 1;
nodes = (
"641 187 LINE",
"367 -372 LINE",
"209 -372 LINE",
"395 187 LINE"
);
}
);
width = 1118;
}
);
unicode = 002C;
},
{
glyphname = hyphen;
lastChange = "2013-08-07 13:45:35 +0000";
layers = (
{
layerId = "7B42E6E7-B323-448C-AC07-14628C7F1CBB";
name = Bold;
paths = (
{
closed = 1;
nodes = (
"0 385 LINE",
"0 571 LINE",
"932 571 LINE",
"932 385 LINE"
);
}
);
width = 1118;
}
);
unicode = 002D;
},
{
glyphname = period;
lastChange = "2013-08-07 13:45:35 +0000";
layers = (
{
layerId = "7B42E6E7-B323-448C-AC07-14628C7F1CBB";
name = Bold;
paths = (
{
closed = 1;
nodes = (
"592 0 LINE",
"340 0 LINE",
"340 252 LINE",
"592 252 LINE"
);
}
);
width = 1118;
}
);
unicode = 002E;
},
{
glyphname = slash;
lastChange = "2013-08-07 13:45:35 +0000";
layers = (
{
layerId = "7B42E6E7-B323-448C-AC07-14628C7F1CBB";
name = Bold;
paths = (
{
closed = 1;
nodes = (
"778 1366 LINE",
"932 1290 LINE",
"166 -252 LINE",
"12 -176 LINE"
);
}
);
width = 1118;
}
);
unicode = 002F;
},
{
glyphname = zero;
lastChange = "2013-08-07 13:45:35 +0000";
layers = (
{
layerId = "7B42E6E7-B323-448C-AC07-14628C7F1CBB";
name = Bold;
paths = (
{
closed = 1;
nodes = (
"-33 828 OFFCURVE",
"3 997 OFFCURVE",
"82 1121 CURVE SMOOTH",
"161 1245 OFFCURVE",
"287 1327 OFFCURVE",
"467 1327 CURVE SMOOTH",
"647 1327 OFFCURVE",
"773 1245 OFFCURVE",
"853 1121 CURVE SMOOTH",
"933 997 OFFCURVE",
"967 828 OFFCURVE",
"967 653 CURVE SMOOTH",
"967 478 OFFCURVE",
"933 311 OFFCURVE",
"854 185 CURVE SMOOTH",
"775 59 OFFCURVE",
"650 -23 OFFCURVE",
"467 -23 CURVE SMOOTH",
"284 -23 OFFCURVE",
"159 59 OFFCURVE",
"80 185 CURVE SMOOTH",
"0 311 OFFCURVE",
"-33 478 OFFCURVE",
"-33 653 CURVE SMOOTH"
);
},
{
closed = 1;
nodes = (
"174 592 OFFCURVE",
"178 532 OFFCURVE",
"186 475 CURVE",
"698 989 LINE",
"653 1080 OFFCURVE",
"582 1141 OFFCURVE",
"467 1141 CURVE SMOOTH",
"276 1141 OFFCURVE",
"174 960 OFFCURVE",
"174 653 CURVE SMOOTH"
);
},
{
closed = 1;
nodes = (
"584 164 OFFCURVE",
"657 227 OFFCURVE",
"701 320 CURVE SMOOTH",
"744 412 OFFCURVE",
"760 536 OFFCURVE",
"760 653 CURVE SMOOTH",
"760 709 OFFCURVE",
"756 764 OFFCURVE",
"748 817 CURVE",
"240 307 LINE",
"285 220 OFFCURVE",
"352 164 OFFCURVE",
"467 164 CURVE SMOOTH"
);
}
);
width = 1118;
}
);
unicode = 0030;
},
{
glyphname = one;
lastChange = "2013-08-07 13:45:35 +0000";
layers = (
{
layerId = "7B42E6E7-B323-448C-AC07-14628C7F1CBB";
name = Bold;
paths = (
{
closed = 1;
nodes = (
"778 0 LINE",
"152 0 LINE",
"152 186 LINE",
"362 186 LINE",
"362 928 LINE",
"343 863 OFFCURVE",
"295 812 OFFCURVE",
"231 778 CURVE SMOOTH",
"166 744 OFFCURVE",
"84 725 OFFCURVE",
"0 725 CURVE",
"0 932 LINE",
"91 932 OFFCURVE",
"180 962 OFFCURVE",
"248 1023 CURVE SMOOTH",
"316 1084 OFFCURVE",
"362 1176 OFFCURVE",
"362 1305 CURVE",
"569 1305 LINE",
"569 186 LINE",
"778 186 LINE"
);
}
);
width = 1118;
}
);
unicode = 0031;
},
{
glyphname = two;
lastChange = "2013-08-07 13:45:35 +0000";
layers = (
{
layerId = "7B42E6E7-B323-448C-AC07-14628C7F1CBB";
name = Bold;
paths = (
{
closed = 1;
nodes = (
"905 825 OFFCURVE",
"836 693 OFFCURVE",
"721 578 CURVE SMOOTH",
"313 186 LINE",
"696 186 LINE",
"696 365 LINE",
"883 365 LINE",
"883 0 LINE",
"43 0 LINE",
"43 195 LINE",
"569 698 LINE SMOOTH",
"660 791 OFFCURVE",
"698 872 OFFCURVE",
"698 948 CURVE SMOOTH",
"698 1016 OFFCURVE",
"669 1065 OFFCURVE",
"629 1097 CURVE SMOOTH",
"588 1128 OFFCURVE",
"533 1141 OFFCURVE",
"481 1141 CURVE SMOOTH",
"317 1141 OFFCURVE",
"217 1044 OFFCURVE",
"217 856 CURVE",
"23 856 LINE",
"23 1151 OFFCURVE",
"184 1327 OFFCURVE",
"481 1327 CURVE SMOOTH",
"593 1327 OFFCURVE",
"700 1294 OFFCURVE",
"778 1231 CURVE SMOOTH",
"856 1168 OFFCURVE",
"905 1071 OFFCURVE",
"905 948 CURVE SMOOTH"
);
}
);
width = 1118;
}
);
unicode = 0032;
},
{
glyphname = three;
lastChange = "2013-08-07 13:45:35 +0000";
layers = (
{
layerId = "7B42E6E7-B323-448C-AC07-14628C7F1CBB";
name = Bold;
paths = (
{
closed = 1;
nodes = (
"920 239 OFFCURVE",
"870 145 OFFCURVE",
"792 80 CURVE SMOOTH",
"714 15 OFFCURVE",
"608 -23 OFFCURVE",
"496 -23 CURVE SMOOTH",
"369 -23 OFFCURVE",
"259 12 OFFCURVE",
"176 81 CURVE SMOOTH",
"92 150 OFFCURVE",
"38 259 OFFCURVE",
"27 410 CURVE",
"221 442 LINE",
"234 270 OFFCURVE",
"340 164 OFFCURVE",
"496 164 CURVE SMOOTH",
"627 164 OFFCURVE",
"713 239 OFFCURVE",
"713 354 CURVE SMOOTH",
"713 510 OFFCURVE",
"624 571 OFFCURVE",
"371 571 CURVE",
"371 758 LINE",
"460 758 OFFCURVE",
"539 775 OFFCURVE",
"596 810 CURVE SMOOTH",
"653 845 OFFCURVE",
"688 893 OFFCURVE",
"688 958 CURVE SMOOTH",
"688 1067 OFFCURVE",
"621 1141 OFFCURVE",
"496 1141 CURVE SMOOTH",
"332 1141 OFFCURVE",
"242 1057 OFFCURVE",
"242 862 CURVE",
"45 862 LINE",
"45 1015 OFFCURVE",
"91 1132 OFFCURVE",
"170 1210 CURVE SMOOTH",
"249 1288 OFFCURVE",
"361 1327 OFFCURVE",
"496 1327 CURVE SMOOTH",
"608 1327 OFFCURVE",
"707 1292 OFFCURVE",
"780 1228 CURVE SMOOTH",
"852 1164 OFFCURVE",
"895 1073 OFFCURVE",
"895 958 CURVE SMOOTH",
"895 885 OFFCURVE",
"871 818 OFFCURVE",
"828 767 CURVE SMOOTH",
"784 716 OFFCURVE",
"718 683 OFFCURVE",
"639 678 CURVE",
"730 670 OFFCURVE",
"799 629 OFFCURVE",
"847 570 CURVE SMOOTH",
"895 511 OFFCURVE",
"920 434 OFFCURVE",
"920 354 CURVE SMOOTH"
);
}
);
width = 1118;
}
);
unicode = 0033;
},
{
glyphname = four;
lastChange = "2013-08-07 13:45:35 +0000";
layers = (
{
layerId = "7B42E6E7-B323-448C-AC07-14628C7F1CBB";
name = Bold;
paths = (
{
closed = 1;
nodes = (
"932 0 LINE",
"305 0 LINE",
"305 186 LINE",
"514 186 LINE",
"514 348 LINE",
"0 348 LINE",
"0 535 LINE",
"477 1305 LINE",
"719 1305 LINE",
"719 535 LINE",
"932 535 LINE",
"932 348 LINE",
"719 348 LINE",
"719 186 LINE",
"932 186 LINE"
);
},
{
closed = 1;
nodes = (
"514 535 LINE",
"514 1061 LINE",
"186 535 LINE"
);
}
);
width = 1118;
}
);
unicode = 0034;
},
{
glyphname = five;
lastChange = "2013-08-07 13:45:35 +0000";
layers = (
{
layerId = "7B42E6E7-B323-448C-AC07-14628C7F1CBB";
name = Bold;
paths = (
{
closed = 1;
nodes = (
"942 310 OFFCURVE",
"886 195 OFFCURVE",
"798 112 CURVE SMOOTH",
"709 28 OFFCURVE",
"589 -23 OFFCURVE",
"461 -23 CURVE SMOOTH",
"336 -23 OFFCURVE",
"227 16 OFFCURVE",
"147 85 CURVE SMOOTH",
"66 154 OFFCURVE",
"15 256 OFFCURVE",
"4 387 CURVE",
"201 416 LINE",
"214 265 OFFCURVE",
"297 164 OFFCURVE",
"461 164 CURVE SMOOTH",
"545 164 OFFCURVE",
"612 195 OFFCURVE",
"658 244 CURVE SMOOTH",
"704 293 OFFCURVE",
"729 362 OFFCURVE",
"729 438 CURVE SMOOTH",
"729 613 OFFCURVE",
"631 715 OFFCURVE",
"483 715 CURVE SMOOTH",
"388 715 OFFCURVE",
"303 677 OFFCURVE",
"256 588 CURVE",
"49 588 LINE",
"49 1305 LINE",
"866 1305 LINE",
"866 1118 LINE",
"256 1118 LINE",
"256 780 LINE",
"317 861 OFFCURVE",
"407 901 OFFCURVE",
"524 901 CURVE SMOOTH",
"636 901 OFFCURVE",
"741 856 OFFCURVE",
"817 777 CURVE SMOOTH",
"893 697 OFFCURVE",
"942 581 OFFCURVE",
"942 438 CURVE SMOOTH"
);
}
);
width = 1118;
}
);
unicode = 0035;
},
{
glyphname = six;
lastChange = "2013-08-07 13:45:35 +0000";
layers = (
{
layerId = "7B42E6E7-B323-448C-AC07-14628C7F1CBB";
name = Bold;
paths = (
{
closed = 1;
nodes = (
"948 300 OFFCURVE",
"898 184 OFFCURVE",
"815 104 CURVE SMOOTH",
"731 23 OFFCURVE",
"614 -23 OFFCURVE",
"485 -23 CURVE SMOOTH",
"289 -23 OFFCURVE",
"165 59 OFFCURVE",
"92 183 CURVE SMOOTH",
"19 307 OFFCURVE",
"-8 476 OFFCURVE",
"-8 651 CURVE SMOOTH",
"-8 828 OFFCURVE",
"34 997 OFFCURVE",
"125 1123 CURVE SMOOTH",
"216 1249 OFFCURVE",
"348 1327 OFFCURVE",
"535 1327 CURVE SMOOTH",
"666 1327 OFFCURVE",
"785 1287 OFFCURVE",
"872 1210 CURVE",
"760 1059 LINE",
"692 1119 OFFCURVE",
"622 1141 OFFCURVE",
"535 1141 CURVE SMOOTH",
"423 1141 OFFCURVE",
"334 1094 OFFCURVE",
"275 1012 CURVE SMOOTH",
"216 930 OFFCURVE",
"186 815 OFFCURVE",
"186 682 CURVE",
"227 821 OFFCURVE",
"342 918 OFFCURVE",
"530 918 CURVE SMOOTH",
"642 918 OFFCURVE",
"747 867 OFFCURVE",
"824 784 CURVE SMOOTH",
"900 700 OFFCURVE",
"948 581 OFFCURVE",
"948 444 CURVE SMOOTH"
);
},
{
closed = 1;
nodes = (
"741 608 OFFCURVE",
"648 733 OFFCURVE",
"479 733 CURVE SMOOTH",
"315 733 OFFCURVE",
"209 622 OFFCURVE",
"209 455 CURVE SMOOTH",
"209 372 OFFCURVE",
"231 302 OFFCURVE",
"276 249 CURVE SMOOTH",
"320 196 OFFCURVE",
"390 164 OFFCURVE",
"487 164 CURVE SMOOTH",
"635 164 OFFCURVE",
"741 267 OFFCURVE",
"741 444 CURVE SMOOTH"
);
}
);
width = 1118;
}
);
unicode = 0036;
},
{
glyphname = seven;
lastChange = "2013-08-07 13:45:35 +0000";
layers = (
{
layerId = "7B42E6E7-B323-448C-AC07-14628C7F1CBB";
name = Bold;
paths = (
{
closed = 1;
nodes = (
"932 1118 LINE",
"768 941 OFFCURVE",
"671 791 OFFCURVE",
"615 620 CURVE SMOOTH",
"559 449 OFFCURVE",
"542 257 OFFCURVE",
"539 0 CURVE",
"328 0 LINE",
"331 243 OFFCURVE",
"359 439 OFFCURVE",
"424 617 CURVE SMOOTH",
"489 795 OFFCURVE",
"594 951 OFFCURVE",
"750 1118 CURVE",
"233 1118 LINE",
"233 899 LINE",
"49 899 LINE",
"49 1305 LINE",
"932 1305 LINE"
);
}
);
width = 1118;
}
);
unicode = 0037;
},
{
glyphname = eight;
lastChange = "2013-08-07 13:45:35 +0000";
layers = (
{
layerId = "7B42E6E7-B323-448C-AC07-14628C7F1CBB";
name = Bold;
paths = (
{
closed = 1;
nodes = (
"940 230 OFFCURVE",
"888 135 OFFCURVE",
"802 71 CURVE SMOOTH",
"716 7 OFFCURVE",
"596 -23 OFFCURVE",
"465 -23 CURVE SMOOTH",
"332 -23 OFFCURVE",
"215 7 OFFCURVE",
"128 71 CURVE SMOOTH",
"41 135 OFFCURVE",
"-10 230 OFFCURVE",
"-10 367 CURVE SMOOTH",
"-10 438 OFFCURVE",
"17 513 OFFCURVE",
"66 575 CURVE SMOOTH",
"114 637 OFFCURVE",
"186 679 OFFCURVE",
"270 690 CURVE",
"197 698 OFFCURVE",
"139 741 OFFCURVE",
"100 794 CURVE SMOOTH",
"60 847 OFFCURVE",
"37 912 OFFCURVE",
"37 969 CURVE SMOOTH",
"37 1086 OFFCURVE",
"86 1177 OFFCURVE",
"166 1237 CURVE SMOOTH",
"245 1297 OFFCURVE",
"353 1327 OFFCURVE",
"465 1327 CURVE SMOOTH",
"577 1327 OFFCURVE",
"685 1297 OFFCURVE",
"764 1237 CURVE SMOOTH",
"843 1177 OFFCURVE",
"893 1086 OFFCURVE",
"893 969 CURVE SMOOTH",
"893 912 OFFCURVE",
"870 847 OFFCURVE",
"831 794 CURVE SMOOTH",
"791 741 OFFCURVE",
"732 698 OFFCURVE",
"657 690 CURVE",
"742 679 OFFCURVE",
"813 637 OFFCURVE",
"862 575 CURVE SMOOTH",
"911 513 OFFCURVE",
"940 438 OFFCURVE",
"940 367 CURVE SMOOTH"
);
},
{
closed = 1;
nodes = (
"686 1071 OFFCURVE",
"604 1141 OFFCURVE",
"465 1141 CURVE SMOOTH",
"325 1141 OFFCURVE",
"244 1071 OFFCURVE",
"244 956 CURVE SMOOTH",
"244 847 OFFCURVE",
"314 780 OFFCURVE",
"465 780 CURVE SMOOTH",
"616 780 OFFCURVE",
"686 847 OFFCURVE",
"686 956 CURVE SMOOTH"
);
},
{
closed = 1;
nodes = (
"733 458 OFFCURVE",
"702 512 OFFCURVE",
"653 546 CURVE SMOOTH",
"604 580 OFFCURVE",
"538 594 OFFCURVE",
"465 594 CURVE SMOOTH",
"392 594 OFFCURVE",
"325 580 OFFCURVE",
"277 546 CURVE SMOOTH",
"228 512 OFFCURVE",
"197 458 OFFCURVE",
"197 379 CURVE SMOOTH",
"197 306 OFFCURVE",
"228 251 OFFCURVE",
"277 215 CURVE SMOOTH",
"325 179 OFFCURVE",
"392 164 OFFCURVE",
"465 164 CURVE SMOOTH",
"538 164 OFFCURVE",
"604 179 OFFCURVE",
"653 215 CURVE SMOOTH",
"702 251 OFFCURVE",
"733 306 OFFCURVE",
"733 379 CURVE SMOOTH"
);
}
);
width = 1118;
}
);
unicode = 0038;
},
{
glyphname = nine;
lastChange = "2013-08-07 13:45:35 +0000";
layers = (
{
layerId = "7B42E6E7-B323-448C-AC07-14628C7F1CBB";
name = Bold;
paths = (
{
closed = 1;
nodes = (
"-16 1005 OFFCURVE",
"34 1121 OFFCURVE",
"118 1202 CURVE SMOOTH",
"201 1282 OFFCURVE",
"318 1327 OFFCURVE",
"446 1327 CURVE SMOOTH",
"643 1327 OFFCURVE",
"766 1245 OFFCURVE",
"840 1120 CURVE SMOOTH",
"914 995 OFFCURVE",
"940 828 OFFCURVE",
"940 653 CURVE SMOOTH",
"940 476 OFFCURVE",
"897 307 OFFCURVE",
"807 182 CURVE SMOOTH",
"717 57 OFFCURVE",
"581 -23 OFFCURVE",
"397 -23 CURVE SMOOTH",
"266 -23 OFFCURVE",
"147 18 OFFCURVE",
"59 94 CURVE",
"172 246 LINE",
"240 186 OFFCURVE",
"310 164 OFFCURVE",
"397 164 CURVE SMOOTH",
"509 164 OFFCURVE",
"597 211 OFFCURVE",
"656 293 CURVE SMOOTH",
"715 375 OFFCURVE",
"745 488 OFFCURVE",
"745 623 CURVE",
"705 483 OFFCURVE",
"590 387 OFFCURVE",
"401 387 CURVE SMOOTH",
"289 387 OFFCURVE",
"185 438 OFFCURVE",
"109 522 CURVE SMOOTH",
"32 605 OFFCURVE",
"-16 724 OFFCURVE",
"-16 860 CURVE SMOOTH"
);
},
{
closed = 1;
nodes = (
"190 696 OFFCURVE",
"284 571 OFFCURVE",
"453 571 CURVE SMOOTH",
"616 571 OFFCURVE",
"723 683 OFFCURVE",
"723 850 CURVE SMOOTH",
"723 931 OFFCURVE",
"701 1003 OFFCURVE",
"657 1056 CURVE SMOOTH",
"612 1109 OFFCURVE",
"543 1141 OFFCURVE",
"444 1141 CURVE SMOOTH",
"297 1141 OFFCURVE",
"190 1037 OFFCURVE",
"190 860 CURVE SMOOTH"
);
}
);
width = 1118;
}
);
unicode = 0039;
},
{
glyphname = colon;
lastChange = "2013-08-07 13:45:35 +0000";
layers = (
{
layerId = "7B42E6E7-B323-448C-AC07-14628C7F1CBB";
name = Bold;
paths = (
{
closed = 1;
nodes = (
"592 680 LINE",
"340 680 LINE",
"340 932 LINE",
"592 932 LINE"
);
},
{
closed = 1;
nodes = (
"592 0 LINE",
"340 0 LINE",
"340 252 LINE",
"592 252 LINE"
);
}
);
width = 1118;
}
);
unicode = 003A;
},
{
glyphname = semicolon;
lastChange = "2013-08-07 13:45:35 +0000";
layers = (
{
layerId = "7B42E6E7-B323-448C-AC07-14628C7F1CBB";
name = Bold;
paths = (
{
closed = 1;
nodes = (
"592 680 LINE",
"340 680 LINE",
"340 932 LINE",
"592 932 LINE"
);
},
{
closed = 1;
nodes = (
"641 187 LINE",
"367 -372 LINE",
"209 -372 LINE",
"395 187 LINE"
);
}
);
width = 1118;
}
);
unicode = 003B;
},
{
glyphname = less;
lastChange = "2013-08-07 13:45:35 +0000";
layers = (
{
layerId = "7B42E6E7-B323-448C-AC07-14628C7F1CBB";
name = Bold;
paths = (
{
closed = 1;
nodes = (
"829 88 LINE",
"711 -32 LINE",
"199 480 LINE",
"711 992 LINE",
"829 871 LINE",
"438 480 LINE"
);
}
);
width = 1118;
}
);
unicode = 003C;
},
{
glyphname = equal;
lastChange = "2013-08-07 13:45:35 +0000";
layers = (
{
layerId = "7B42E6E7-B323-448C-AC07-14628C7F1CBB";
name = Bold;
paths = (
{
closed = 1;
nodes = (
"932 572 LINE",
"0 572 LINE",
"0 758 LINE",
"932 758 LINE"
);
},
{
closed = 1;
nodes = (
"932 199 LINE",
"0 199 LINE",
"0 385 LINE",
"932 385 LINE"
);
}
);
width = 1118;
}
);
unicode = 003D;
},
{
glyphname = greater;
lastChange = "2013-08-07 13:45:35 +0000";
layers = (
{
layerId = "7B42E6E7-B323-448C-AC07-14628C7F1CBB";
name = Bold;
paths = (
{
closed = 1;
nodes = (
"494 480 LINE",
"102 871 LINE",
"221 992 LINE",
"733 480 LINE",
"221 -32 LINE",
"102 88 LINE"
);
}
);
width = 1118;
}
);
unicode = 003E;
},
{
glyphname = question;
lastChange = "2013-08-07 13:45:35 +0000";
layers = (
{
layerId = "7B42E6E7-B323-448C-AC07-14628C7F1CBB";
name = Bold;
paths = (
{
closed = 1;
nodes = (
"909 905 OFFCURVE",
"869 835 OFFCURVE",
"817 772 CURVE SMOOTH",
"791 741 OFFCURVE",
"762 711 OFFCURVE",
"731 683 CURVE SMOOTH",
"668 627 OFFCURVE",
"615 569 OFFCURVE",
"580 497 CURVE SMOOTH",
"562 460 OFFCURVE",
"553 419 OFFCURVE",
"553 373 CURVE",
"340 373 LINE",
"340 482 OFFCURVE",
"379 567 OFFCURVE",
"434 636 CURVE SMOOTH",
"461 671 OFFCURVE",
"490 703 OFFCURVE",
"521 732 CURVE SMOOTH",
"582 791 OFFCURVE",
"640 847 OFFCURVE",
"676 907 CURVE SMOOTH",
"693 937 OFFCURVE",
"702 970 OFFCURVE",
"702 1006 CURVE SMOOTH",
"702 1093 OFFCURVE",
"647 1141 OFFCURVE",
"559 1141 CURVE SMOOTH",
"428 1141 OFFCURVE",
"375 1064 OFFCURVE",
"360 936 CURVE",
"168 965 LINE",
"192 1189 OFFCURVE",
"322 1327 OFFCURVE",
"557 1327 CURVE SMOOTH",
"778 1327 OFFCURVE",
"909 1200 OFFCURVE",
"909 1004 CURVE SMOOTH"
);
},
{
closed = 1;
nodes = (
"592 0 LINE",
"340 0 LINE",
"340 252 LINE",
"592 252 LINE"
);
}
);
width = 1118;
}
);
unicode = 003F;
},
{
glyphname = at;
lastChange = "2013-08-07 13:45:35 +0000";
layers = (
{
layerId = "7B42E6E7-B323-448C-AC07-14628C7F1CBB";
name = Bold;
paths = (
{
closed = 1;
nodes = (
"974 593 OFFCURVE",
"961 495 OFFCURVE",
"923 420 CURVE SMOOTH",
"885 344 OFFCURVE",
"823 291 OFFCURVE",
"724 291 CURVE SMOOTH",
"688 291 OFFCURVE",
"651 306 OFFCURVE",
"623 332 CURVE SMOOTH",
"595 358 OFFCURVE",
"576 394 OFFCURVE",
"576 437 CURVE SMOOTH",
"576 447 LINE",
"564 403 OFFCURVE",
"542 364 OFFCURVE",
"511 336 CURVE SMOOTH",
"480 308 OFFCURVE",
"443 291 OFFCURVE",
"400 291 CURVE SMOOTH",
"319 291 OFFCURVE",
"264 333 OFFCURVE",
"231 397 CURVE SMOOTH",
"198 461 OFFCURVE",
"184 546 OFFCURVE",
"184 631 CURVE SMOOTH",
"184 730 OFFCURVE",
"206 823 OFFCURVE",
"250 892 CURVE SMOOTH",
"293 960 OFFCURVE",
"356 1004 OFFCURVE",
"437 1004 CURVE SMOOTH",
"461 1004 OFFCURVE",
"487 996 OFFCURVE",
"510 980 CURVE SMOOTH",
"533 963 OFFCURVE",
"552 937 OFFCURVE",
"561 904 CURVE",
"561 985 LINE",
"722 985 LINE",
"722 490 LINE SMOOTH",
"722 447 OFFCURVE",
"737 430 OFFCURVE",
"760 430 CURVE SMOOTH",
"789 430 OFFCURVE",
"810 459 OFFCURVE",
"823 505 CURVE SMOOTH",
"836 551 OFFCURVE",
"842 615 OFFCURVE",
"842 684 CURVE SMOOTH",
"842 824 OFFCURVE",
"817 955 OFFCURVE",
"759 1051 CURVE SMOOTH",
"701 1147 OFFCURVE",
"607 1208 OFFCURVE",
"474 1208 CURVE SMOOTH",
"339 1208 OFFCURVE",
"247 1146 OFFCURVE",
"189 1046 CURVE SMOOTH",
"131 946 OFFCURVE",
"106 807 OFFCURVE",
"106 651 CURVE SMOOTH",
"106 498 OFFCURVE",
"131 359 OFFCURVE",
"189 259 CURVE SMOOTH",
"247 159 OFFCURVE",
"339 97 OFFCURVE",
"474 97 CURVE SMOOTH",
"583 97 OFFCURVE",
"667 139 OFFCURVE",
"739 204 CURVE",
"798 106 LINE",
"713 20 OFFCURVE",
"605 -23 OFFCURVE",
"474 -23 CURVE SMOOTH",
"351 -23 OFFCURVE",
"256 13 OFFCURVE",
"182 74 CURVE SMOOTH",
"108 135 OFFCURVE",
"55 221 OFFCURVE",
"22 321 CURVE SMOOTH",
"-11 421 OFFCURVE",
"-26 535 OFFCURVE",
"-26 651 CURVE SMOOTH",
"-26 770 OFFCURVE",
"-10 884 OFFCURVE",
"23 984 CURVE SMOOTH",
"56 1084 OFFCURVE",
"108 1170 OFFCURVE",
"183 1231 CURVE SMOOTH",
"258 1291 OFFCURVE",
"353 1327 OFFCURVE",
"474 1327 CURVE SMOOTH",
"594 1327 OFFCURVE",
"691 1291 OFFCURVE",
"765 1231 CURVE SMOOTH",
"839 1171 OFFCURVE",
"891 1088 OFFCURVE",
"925 993 CURVE SMOOTH",
"959 897 OFFCURVE",
"974 791 OFFCURVE",
"974 684 CURVE SMOOTH"
);
},
{
closed = 1;
nodes = (
"561 796 LINE",
"537 847 OFFCURVE",
"500 866 OFFCURVE",
"467 866 CURVE SMOOTH",
"427 866 OFFCURVE",
"398 841 OFFCURVE",
"379 799 CURVE SMOOTH",
"359 757 OFFCURVE",
"351 697 OFFCURVE",
"351 632 CURVE SMOOTH",
"351 560 OFFCURVE",
"360 512 OFFCURVE",
"377 483 CURVE SMOOTH",
"393 454 OFFCURVE",
"417 443 OFFCURVE",
"448 443 CURVE SMOOTH",
"481 443 OFFCURVE",
"510 469 OFFCURVE",
"530 506 CURVE SMOOTH",
"550 543 OFFCURVE",
"561 591 OFFCURVE",
"561 638 CURVE SMOOTH"
);
}
);
width = 1118;
}
);
unicode = 0040;
},
{
glyphname = A;
lastChange = "2013-08-07 13:45:35 +0000";
layers = (
{
anchors = (
{
name = ogonek;
position = "{1006, 10}";
},
{
name = top;
position = "{559, 1305}";
}
);
layerId = "7B42E6E7-B323-448C-AC07-14628C7F1CBB";
name = Bold;
paths = (
{
closed = 1;
nodes = (
"776 0 LINE",
"682 311 LINE",
"250 311 LINE",
"158 0 LINE",
"-59 0 LINE",
"348 1305 LINE",
"586 1305 LINE",
"993 0 LINE"
);
},
{
closed = 1;
nodes = (
"305 494 LINE",
"627 494 LINE",
"467 1032 LINE"
);
}
);
width = 1118;
}
);
unicode = 0041;
},
{
glyphname = B;
lastChange = "2013-08-07 13:45:35 +0000";
layers = (
{
layerId = "7B42E6E7-B323-448C-AC07-14628C7F1CBB";
name = Bold;
paths = (
{
closed = 1;
nodes = (
"930 121 OFFCURVE",
"762 0 OFFCURVE",
"465 0 CURVE SMOOTH",
"49 0 LINE",
"49 1305 LINE",
"442 1305 LINE SMOOTH",
"551 1305 OFFCURVE",
"661 1290 OFFCURVE",
"745 1241 CURVE SMOOTH",
"828 1192 OFFCURVE",
"885 1106 OFFCURVE",
"885 965 CURVE SMOOTH",
"885 833 OFFCURVE",
"818 714 OFFCURVE",
"682 666 CURVE",
"849 614 OFFCURVE",
"930 530 OFFCURVE",
"930 358 CURVE SMOOTH"
);
},
{
closed = 1;
nodes = (
"680 1014 OFFCURVE",
"648 1061 OFFCURVE",
"603 1087 CURVE SMOOTH",
"558 1113 OFFCURVE",
"499 1118 OFFCURVE",
"442 1118 CURVE SMOOTH",
"256 1118 LINE",
"256 758 LINE",
"442 758 LINE SMOOTH",
"499 758 OFFCURVE",
"558 764 OFFCURVE",
"603 790 CURVE SMOOTH",
"648 816 OFFCURVE",
"680 862 OFFCURVE",
"680 938 CURVE SMOOTH"
);
},
{
closed = 1;
nodes = (
"725 510 OFFCURVE",
"629 571 OFFCURVE",
"465 571 CURVE SMOOTH",
"256 571 LINE",
"256 186 LINE",
"465 186 LINE SMOOTH",
"629 186 OFFCURVE",
"725 248 OFFCURVE",
"725 379 CURVE SMOOTH"
);
}
);
width = 1118;
}
);
unicode = 0042;
},
{
glyphname = C;
lastChange = "2013-08-07 13:45:35 +0000";
layers = (
{
anchors = (
{
name = bottom;
position = "{559, 0}";
},
{
name = top;
position = "{559, 1305}";
}
);
layerId = "7B42E6E7-B323-448C-AC07-14628C7F1CBB";
name = Bold;
paths = (
{
closed = 1;
nodes = (
"952 399 LINE",
"920 271 OFFCURVE",
"867 165 OFFCURVE",
"791 92 CURVE SMOOTH",
"714 19 OFFCURVE",
"613 -23 OFFCURVE",
"481 -23 CURVE SMOOTH",
"298 -23 OFFCURVE",
"174 59 OFFCURVE",
"94 185 CURVE SMOOTH",
"13 311 OFFCURVE",
"-20 478 OFFCURVE",
"-20 653 CURVE SMOOTH",
"-20 828 OFFCURVE",
"13 997 OFFCURVE",
"93 1121 CURVE SMOOTH",
"172 1245 OFFCURVE",
"292 1327 OFFCURVE",
"469 1327 CURVE SMOOTH",
"526 1327 OFFCURVE",
"587 1313 OFFCURVE",
"638 1283 CURVE SMOOTH",
"689 1253 OFFCURVE",
"729 1208 OFFCURVE",
"745 1151 CURVE",
"745 1305 LINE",
"932 1305 LINE",
"932 811 LINE",
"745 811 LINE",
"745 892 OFFCURVE",
"726 976 OFFCURVE",
"682 1037 CURVE SMOOTH",
"638 1098 OFFCURVE",
"572 1141 OFFCURVE",
"481 1141 CURVE SMOOTH",
"364 1141 OFFCURVE",
"292 1078 OFFCURVE",
"247 985 CURVE SMOOTH",
"202 892 OFFCURVE",
"186 770 OFFCURVE",
"186 653 CURVE SMOOTH",
"186 536 OFFCURVE",
"202 412 OFFCURVE",
"246 320 CURVE SMOOTH",
"290 227 OFFCURVE",
"364 164 OFFCURVE",
"481 164 CURVE SMOOTH",
"650 164 OFFCURVE",
"731 280 OFFCURVE",
"786 463 CURVE"
);
}
);
width = 1118;
}
);
unicode = 0043;
},
{
glyphname = D;
lastChange = "2013-08-07 13:45:35 +0000";
layers = (
{
anchors = (
{
name = center;
position = "{559, 653}";
},
{
name = top;
position = "{559, 1305}";
}
);
layerId = "7B42E6E7-B323-448C-AC07-14628C7F1CBB";
name = Bold;
paths = (
{
closed = 1;
nodes = (
"975 478 OFFCURVE",
"940 315 OFFCURVE",
"860 196 CURVE SMOOTH",
"779 76 OFFCURVE",
"653 0 OFFCURVE",
"473 0 CURVE SMOOTH",
"49 0 LINE",
"49 1305 LINE",
"473 1305 LINE SMOOTH",
"650 1305 OFFCURVE",
"777 1228 OFFCURVE",
"858 1109 CURVE SMOOTH",
"938 990 OFFCURVE",
"975 828 OFFCURVE",
"975 653 CURVE SMOOTH"
);
},
{
closed = 1;
nodes = (
"768 954 OFFCURVE",
"661 1118 OFFCURVE",
"473 1118 CURVE SMOOTH",
"256 1118 LINE",
"256 186 LINE",
"473 186 LINE SMOOTH",
"661 186 OFFCURVE",
"768 356 OFFCURVE",
"768 653 CURVE SMOOTH"
);
}
);
width = 1118;
}
);
unicode = 0044;
},
{
glyphname = E;
lastChange = "2013-08-07 13:45:35 +0000";
layers = (
{
anchors = (
{
name = bottom;
position = "{559, 0}";
},
{
name = ogonek;
position = "{1006, 10}";
},
{
name = top;
position = "{559, 1305}";
}
);
layerId = "7B42E6E7-B323-448C-AC07-14628C7F1CBB";
name = Bold;
paths = (
{
closed = 1;
nodes = (
"883 0 LINE",
"49 0 LINE",
"49 1305 LINE",
"883 1305 LINE",
"883 1118 LINE",
"256 1118 LINE",
"256 758 LINE",
"745 758 LINE",
"745 571 LINE",
"256 571 LINE",
"256 186 LINE",
"883 186 LINE"
);
}
);
width = 1118;
}
);
unicode = 0045;
},
{
glyphname = F;
lastChange = "2013-08-07 13:45:35 +0000";
layers = (
{
layerId = "7B42E6E7-B323-448C-AC07-14628C7F1CBB";
name = Bold;
paths = (
{
closed = 1;
nodes = (
"883 1118 LINE",
"256 1118 LINE",
"256 758 LINE",
"745 758 LINE",
"745 571 LINE",
"256 571 LINE",
"256 0 LINE",
"49 0 LINE",
"49 1305 LINE",
"883 1305 LINE"
);
}
);
width = 1118;
}
);
unicode = 0046;
},
{
glyphname = G;
lastChange = "2013-08-07 13:45:35 +0000";
layers = (
{
anchors = (
{
name = bottom;
position = "{559, 0}";
},
{
name = top;
position = "{559, 1305}";
}
);
layerId = "7B42E6E7-B323-448C-AC07-14628C7F1CBB";
name = Bold;
paths = (
{
closed = 1;
nodes = (
"983 649 LINE SMOOTH",
"983 472 OFFCURVE",
"950 305 OFFCURVE",
"870 181 CURVE SMOOTH",
"789 57 OFFCURVE",
"664 -23 OFFCURVE",
"481 -23 CURVE SMOOTH",
"298 -23 OFFCURVE",
"174 59 OFFCURVE",
"94 183 CURVE SMOOTH",
"13 307 OFFCURVE",
"-20 476 OFFCURVE",
"-20 651 CURVE SMOOTH",
"-20 826 OFFCURVE",
"13 995 OFFCURVE",
"94 1120 CURVE SMOOTH",
"174 1245 OFFCURVE",
"298 1327 OFFCURVE",
"481 1327 CURVE SMOOTH",
"533 1327 OFFCURVE",
"590 1313 OFFCURVE",
"639 1283 CURVE SMOOTH",
"688 1253 OFFCURVE",
"729 1208 OFFCURVE",
"745 1151 CURVE",
"745 1305 LINE",
"932 1305 LINE",
"932 842 LINE",
"745 842 LINE",
"745 923 OFFCURVE",
"719 998 OFFCURVE",
"672 1053 CURVE SMOOTH",
"625 1108 OFFCURVE",
"558 1141 OFFCURVE",
"481 1141 CURVE SMOOTH",
"364 1141 OFFCURVE",
"292 1076 OFFCURVE",
"247 983 CURVE SMOOTH",
"202 890 OFFCURVE",
"186 768 OFFCURVE",
"186 651 CURVE SMOOTH",
"186 534 OFFCURVE",
"202 412 OFFCURVE",
"246 320 CURVE SMOOTH",
"290 227 OFFCURVE",
"364 164 OFFCURVE",
"481 164 CURVE SMOOTH",
"650 164 OFFCURVE",
"754 269 OFFCURVE",
"793 496 CURVE",
"518 496 LINE",
"518 682 LINE",
"983 682 LINE"
);
}
);
width = 1118;
}
);
unicode = 0047;
},
{
glyphname = H;
lastChange = "2013-08-07 13:45:35 +0000";
layers = (
{
anchors = (
{
name = center;
position = "{559, 653}";
},
{
name = top;
position = "{559, 1305}";
}
);
layerId = "7B42E6E7-B323-448C-AC07-14628C7F1CBB";
name = Bold;
paths = (
{
closed = 1;
nodes = (
"883 0 LINE",
"676 0 LINE",
"676 571 LINE",
"256 571 LINE",
"256 0 LINE",
"49 0 LINE",
"49 1305 LINE",
"256 1305 LINE",
"256 758 LINE",
"676 758 LINE",
"676 1305 LINE",
"883 1305 LINE"
);
}
);
width = 1118;
}
);
unicode = 0048;
},
{
glyphname = I;
lastChange = "2013-08-07 13:45:35 +0000";
layers = (
{
anchors = (
{
name = ogonek;
position = "{1006, 10}";
},
{
name = top;
position = "{559, 1305}";
}
);
layerId = "7B42E6E7-B323-448C-AC07-14628C7F1CBB";
name = Bold;
paths = (
{
closed = 1;
nodes = (
"782 0 LINE",
"156 0 LINE",
"156 186 LINE",
"362 186 LINE",
"362 1118 LINE",
"156 1118 LINE",
"156 1305 LINE",
"782 1305 LINE",
"782 1118 LINE",
"569 1118 LINE",
"569 186 LINE",
"782 186 LINE"
);
}
);
width = 1118;
}
);
unicode = 0049;
},
{
glyphname = J;
lastChange = "2013-08-07 13:45:35 +0000";
layers = (
{
anchors = (
{
name = top;
position = "{559, 1305}";
}
);
layerId = "7B42E6E7-B323-448C-AC07-14628C7F1CBB";
name = Bold;
paths = (
{
closed = 1;
nodes = (
"883 498 LINE SMOOTH",
"883 167 OFFCURVE",
"744 -23 OFFCURVE",
"455 -23 CURVE SMOOTH",
"223 -23 OFFCURVE",
"61 99 OFFCURVE",
"-2 342 CURVE",
"184 412 LINE",
"223 256 OFFCURVE",
"307 164 OFFCURVE",
"455 164 CURVE SMOOTH",
"544 164 OFFCURVE",
"600 204 OFFCURVE",
"633 265 CURVE SMOOTH",
"665 326 OFFCURVE",
"676 410 OFFCURVE",
"676 498 CURVE SMOOTH",
"676 1305 LINE",
"883 1305 LINE"
);
}
);
width = 1118;
}
);
unicode = 004A;
},
{
glyphname = K;
lastChange = "2013-08-07 13:45:35 +0000";
layers = (
{
anchors = (
{
name = bottom;
position = "{559, 0}";
},
{
name = top;
position = "{559, 1305}";
}
);
layerId = "7B42E6E7-B323-448C-AC07-14628C7F1CBB";
name = Bold;
paths = (
{
closed = 1;
nodes = (
"926 0 LINE",
"684 0 LINE",
"342 608 LINE",
"256 506 LINE",
"256 0 LINE",
"49 0 LINE",
"49 1305 LINE",
"256 1305 LINE",
"256 793 LINE",
"662 1305 LINE",
"928 1305 LINE",
"473 764 LINE"
);
}
);
width = 1118;
}
);
unicode = 004B;
},
{
glyphname = L;
lastChange = "2013-08-07 13:45:35 +0000";
layers = (
{
anchors = (
{
name = bottom;
position = "{559, 0}";
},
{
name = top;
position = "{559, 1305}";
}
);
layerId = "7B42E6E7-B323-448C-AC07-14628C7F1CBB";
name = Bold;
paths = (
{
closed = 1;
nodes = (
"883 0 LINE",
"49 0 LINE",
"49 1305 LINE",
"256 1305 LINE",
"256 186 LINE",
"883 186 LINE"
);
}
);
width = 1118;
}
);
unicode = 004C;
},
{
glyphname = M;
lastChange = "2013-08-07 13:45:35 +0000";
layers = (
{
layerId = "7B42E6E7-B323-448C-AC07-14628C7F1CBB";
name = Bold;
paths = (
{
closed = 1;
nodes = (
"883 0 LINE",
"676 0 LINE",
"676 883 LINE",
"545 414 LINE",
"385 414 LINE",
"256 883 LINE",
"256 0 LINE",
"49 0 LINE",
"49 1305 LINE",
"295 1305 LINE",
"465 715 LINE",
"635 1305 LINE",
"883 1305 LINE"
);
}
);
width = 1118;
}
);
unicode = 004D;
},
{
glyphname = N;
lastChange = "2013-08-07 13:45:35 +0000";
layers = (
{
anchors = (
{
name = bottom;
position = "{559, 0}";
},
{
name = top;
position = "{559, 1305}";
}
);
layerId = "7B42E6E7-B323-448C-AC07-14628C7F1CBB";
name = Bold;
paths = (
{
closed = 1;
nodes = (
"883 0 LINE",
"643 0 LINE",
"256 946 LINE",
"256 0 LINE",
"49 0 LINE",
"49 1305 LINE",
"309 1305 LINE",
"676 406 LINE",
"676 1305 LINE",
"883 1305 LINE"
);
}
);
width = 1118;
}
);
unicode = 004E;
},
{
glyphname = O;
lastChange = "2013-08-07 13:45:35 +0000";
layers = (
{
anchors = (
{
name = top;
position = "{559, 1305}";
}
);
layerId = "7B42E6E7-B323-448C-AC07-14628C7F1CBB";
name = Bold;
paths = (
{
closed = 1;
nodes = (
"-33 828 OFFCURVE",
"3 997 OFFCURVE",
"82 1121 CURVE SMOOTH",
"161 1245 OFFCURVE",
"287 1327 OFFCURVE",
"467 1327 CURVE SMOOTH",
"647 1327 OFFCURVE",
"773 1245 OFFCURVE",
"853 1121 CURVE SMOOTH",
"933 997 OFFCURVE",
"967 828 OFFCURVE",
"967 653 CURVE SMOOTH",
"967 478 OFFCURVE",
"933 311 OFFCURVE",
"854 185 CURVE SMOOTH",
"775 59 OFFCURVE",
"650 -23 OFFCURVE",
"467 -23 CURVE SMOOTH",
"284 -23 OFFCURVE",
"159 59 OFFCURVE",
"80 185 CURVE SMOOTH",
"0 311 OFFCURVE",
"-33 478 OFFCURVE",
"-33 653 CURVE SMOOTH"
);
},
{
closed = 1;
nodes = (
"174 536 OFFCURVE",
"190 412 OFFCURVE",
"234 320 CURVE SMOOTH",
"277 227 OFFCURVE",
"350 164 OFFCURVE",
"467 164 CURVE SMOOTH",
"584 164 OFFCURVE",
"657 227 OFFCURVE",
"701 320 CURVE SMOOTH",
"744 412 OFFCURVE",
"760 536 OFFCURVE",
"760 653 CURVE SMOOTH",
"760 770 OFFCURVE",
"744 892 OFFCURVE",
"701 985 CURVE SMOOTH",
"657 1078 OFFCURVE",
"582 1141 OFFCURVE",
"467 1141 CURVE SMOOTH",
"276 1141 OFFCURVE",
"174 960 OFFCURVE",
"174 653 CURVE SMOOTH"
);
}
);
width = 1118;
}
);
unicode = 004F;
},
{
glyphname = P;
lastChange = "2013-08-07 13:45:35 +0000";
layers = (
{
layerId = "7B42E6E7-B323-448C-AC07-14628C7F1CBB";
name = Bold;
paths = (
{
closed = 1;
nodes = (
"932 654 OFFCURVE",
"765 528 OFFCURVE",
"481 528 CURVE SMOOTH",
"256 528 LINE",
"256 0 LINE",
"49 0 LINE",
"49 1305 LINE",
"479 1305 LINE SMOOTH",
"766 1305 OFFCURVE",
"932 1172 OFFCURVE",
"932 915 CURVE SMOOTH"
);
},
{
closed = 1;
nodes = (
"725 1051 OFFCURVE",
"632 1118 OFFCURVE",
"481 1118 CURVE SMOOTH",
"256 1118 LINE",
"256 715 LINE",
"481 715 LINE SMOOTH",
"632 715 OFFCURVE",
"725 781 OFFCURVE",
"725 918 CURVE SMOOTH"
);
}
);
width = 1118;
}
);
unicode = 0050;
},
{
glyphname = Q;
lastChange = "2013-08-07 13:45:35 +0000";
layers = (
{
layerId = "7B42E6E7-B323-448C-AC07-14628C7F1CBB";
name = Bold;
paths = (
{
closed = 1;
nodes = (
"-33 828 OFFCURVE",
"3 997 OFFCURVE",
"82 1121 CURVE SMOOTH",
"161 1245 OFFCURVE",
"287 1327 OFFCURVE",
"467 1327 CURVE SMOOTH",
"647 1327 OFFCURVE",
"773 1245 OFFCURVE",
"853 1121 CURVE SMOOTH",
"933 997 OFFCURVE",
"967 828 OFFCURVE",
"967 653 CURVE SMOOTH",
"967 492 OFFCURVE",
"941 339 OFFCURVE",
"875 219 CURVE SMOOTH",
"809 99 OFFCURVE",
"709 10 OFFCURVE",
"561 -14 CURVE",
"574 -146 OFFCURVE",
"671 -186 OFFCURVE",
"848 -186 CURVE SMOOTH",
"860 -186 OFFCURVE",
"873 -186 OFFCURVE",
"888 -185 CURVE SMOOTH",
"902 -184 OFFCURVE",
"917 -184 OFFCURVE",
"932 -184 CURVE",
"932 -369 LINE",
"893 -372 OFFCURVE",
"858 -373 OFFCURVE",
"825 -373 CURVE SMOOTH",
"556 -373 OFFCURVE",
"379 -248 OFFCURVE",
"346 -8 CURVE",
"210 24 OFFCURVE",
"113 111 OFFCURVE",
"53 230 CURVE SMOOTH",
"-7 349 OFFCURVE",
"-33 498 OFFCURVE",
"-33 653 CURVE SMOOTH"
);
},
{
closed = 1;
nodes = (
"174 536 OFFCURVE",
"190 412 OFFCURVE",
"234 320 CURVE SMOOTH",
"277 227 OFFCURVE",
"350 164 OFFCURVE",
"467 164 CURVE SMOOTH",
"584 164 OFFCURVE",
"657 227 OFFCURVE",
"701 320 CURVE SMOOTH",
"744 412 OFFCURVE",
"760 536 OFFCURVE",
"760 653 CURVE SMOOTH",
"760 770 OFFCURVE",
"744 892 OFFCURVE",
"701 985 CURVE SMOOTH",
"657 1078 OFFCURVE",
"582 1141 OFFCURVE",
"467 1141 CURVE SMOOTH",
"276 1141 OFFCURVE",
"174 960 OFFCURVE",
"174 653 CURVE SMOOTH"
);
}
);
width = 1118;
}
);
unicode = 0051;
},
{
glyphname = R;
lastChange = "2013-08-07 13:45:35 +0000";
layers = (
{
anchors = (
{
name = bottom;
position = "{559, 0}";
},
{
name = top;
position = "{559, 1305}";
}
);
layerId = "7B42E6E7-B323-448C-AC07-14628C7F1CBB";
name = Bold;
paths = (
{
closed = 1;
nodes = (
"950 0 LINE",
"688 0 LINE",
"350 528 LINE",
"256 528 LINE",
"256 0 LINE",
"49 0 LINE",
"49 1305 LINE",
"479 1305 LINE SMOOTH",
"766 1305 OFFCURVE",
"932 1172 OFFCURVE",
"932 915 CURVE SMOOTH",
"932 800 OFFCURVE",
"895 714 OFFCURVE",
"831 651 CURVE SMOOTH",
"766 588 OFFCURVE",
"678 552 OFFCURVE",
"578 539 CURVE"
);
},
{
closed = 1;
nodes = (
"725 1051 OFFCURVE",
"632 1118 OFFCURVE",
"479 1118 CURVE SMOOTH",
"256 1118 LINE",
"256 715 LINE",
"479 715 LINE SMOOTH",
"632 715 OFFCURVE",
"725 781 OFFCURVE",
"725 918 CURVE SMOOTH"
);
}
);
width = 1118;
}
);
unicode = 0052;
},
{
glyphname = S;
lastChange = "2013-08-07 13:45:35 +0000";
layers = (
{
anchors = (
{
name = bottom;
position = "{559, 0}";
},
{
name = top;
position = "{559, 1305}";
}
);
layerId = "7B42E6E7-B323-448C-AC07-14628C7F1CBB";
name = Bold;
paths = (
{
closed = 1;
nodes = (
"899 238 OFFCURVE",
"856 143 OFFCURVE",
"786 78 CURVE SMOOTH",
"716 13 OFFCURVE",
"615 -23 OFFCURVE",
"506 -23 CURVE SMOOTH",
"383 -23 OFFCURVE",
"284 18 OFFCURVE",
"213 119 CURVE",
"213 0 LINE",
"27 0 LINE",
"27 426 LINE",
"213 426 LINE",
"213 341 OFFCURVE",
"246 275 OFFCURVE",
"295 231 CURVE SMOOTH",
"344 186 OFFCURVE",
"412 162 OFFCURVE",
"485 162 CURVE SMOOTH",
"609 162 OFFCURVE",
"692 217 OFFCURVE",
"692 342 CURVE SMOOTH",
"692 407 OFFCURVE",
"668 452 OFFCURVE",
"625 489 CURVE SMOOTH",
"581 525 OFFCURVE",
"518 549 OFFCURVE",
"438 580 CURVE",
"343 612 OFFCURVE",
"244 649 OFFCURVE",
"169 708 CURVE SMOOTH",
"94 767 OFFCURVE",
"43 848 OFFCURVE",
"43 979 CURVE SMOOTH",
"43 1094 OFFCURVE",
"89 1179 OFFCURVE",
"159 1238 CURVE SMOOTH",
"229 1297 OFFCURVE",
"324 1327 OFFCURVE",
"428 1327 CURVE SMOOTH",
"548 1327 OFFCURVE",
"635 1272 OFFCURVE",
"682 1188 CURVE",
"682 1305 LINE",
"868 1305 LINE",
"868 899 LINE",
"682 899 LINE",
"682 1052 OFFCURVE",
"595 1143 OFFCURVE",
"459 1143 CURVE SMOOTH",
"339 1143 OFFCURVE",
"250 1084 OFFCURVE",
"250 983 CURVE SMOOTH",
"250 931 OFFCURVE",
"271 897 OFFCURVE",
"311 867 CURVE SMOOTH",
"350 837 OFFCURVE",
"410 813 OFFCURVE",
"489 782 CURVE SMOOTH",
"588 747 OFFCURVE",
"690 706 OFFCURVE",
"767 642 CURVE SMOOTH",
"844 578 OFFCURVE",
"899 490 OFFCURVE",
"899 358 CURVE SMOOTH"
);
}
);
width = 1118;
}
);
unicode = 0053;
},
{
glyphname = T;
lastChange = "2013-08-07 13:45:35 +0000";
layers = (
{
anchors = (
{
name = bottom;
position = "{559, 0}";
},
{
name = center;
position = "{559, 653}";
},
{
name = top;
position = "{559, 1305}";
}
);
layerId = "7B42E6E7-B323-448C-AC07-14628C7F1CBB";
name = Bold;
paths = (
{
closed = 1;
nodes = (
"930 829 LINE",
"745 829 LINE",
"745 1118 LINE",
"569 1118 LINE",
"569 186 LINE",
"776 186 LINE",
"776 0 LINE",
"156 0 LINE",
"156 186 LINE",
"362 186 LINE",
"362 1118 LINE",
"184 1118 LINE",
"184 829 LINE",
"0 829 LINE",
"0 1305 LINE",
"930 1305 LINE"
);
}
);
width = 1118;
}
);
unicode = 0054;
},
{
glyphname = U;
lastChange = "2013-08-07 13:45:35 +0000";
layers = (
{
anchors = (
{
name = ogonek;
position = "{1006, 10}";
},
{
name = top;
position = "{559, 1305}";
}
);
layerId = "7B42E6E7-B323-448C-AC07-14628C7F1CBB";
name = Bold;
paths = (
{
closed = 1;
nodes = (
"883 465 LINE SMOOTH",
"883 317 OFFCURVE",
"851 195 OFFCURVE",
"783 111 CURVE SMOOTH",
"714 26 OFFCURVE",
"609 -23 OFFCURVE",
"465 -23 CURVE SMOOTH",
"320 -23 OFFCURVE",
"218 26 OFFCURVE",
"150 111 CURVE SMOOTH",
"81 195 OFFCURVE",
"49 319 OFFCURVE",
"49 467 CURVE SMOOTH",
"49 1305 LINE",
"256 1305 LINE",
"256 465 LINE SMOOTH",
"256 400 OFFCURVE",
"263 326 OFFCURVE",
"292 266 CURVE SMOOTH",
"320 206 OFFCURVE",
"374 164 OFFCURVE",
"465 164 CURVE SMOOTH",
"554 164 OFFCURVE",
"608 206 OFFCURVE",
"639 265 CURVE SMOOTH",
"670 324 OFFCURVE",
"676 400 OFFCURVE",
"676 465 CURVE SMOOTH",
"676 1305 LINE",
"883 1305 LINE"
);
}
);
width = 1118;
}
);
unicode = 0055;
},
{
glyphname = V;
lastChange = "2013-08-07 13:45:35 +0000";
layers = (
{
layerId = "7B42E6E7-B323-448C-AC07-14628C7F1CBB";
name = Bold;
paths = (
{
closed = 1;
nodes = (
"991 1305 LINE",
"584 0 LINE",
"348 0 LINE",
"-59 1305 LINE",
"158 1305 LINE",
"467 272 LINE",
"774 1305 LINE"
);
}
);
width = 1118;
}
);
unicode = 0056;
},
{
glyphname = W;
lastChange = "2013-08-07 13:45:35 +0000";
layers = (
{
anchors = (
{
name = top;
position = "{559, 1305}";
}
);
layerId = "7B42E6E7-B323-448C-AC07-14628C7F1CBB";
name = Bold;
paths = (
{
closed = 1;
nodes = (
"995 1305 LINE",
"793 0 LINE",
"580 0 LINE",
"465 563 LINE",
"352 0 LINE",
"139 0 LINE",
"-63 1305 LINE",
"152 1305 LINE",
"272 426 LINE",
"367 932 LINE",
"565 932 LINE",
"657 426 LINE",
"780 1305 LINE"
);
}
);
width = 1118;
}
);
unicode = 0057;
},
{
glyphname = X;
lastChange = "2013-08-07 13:45:35 +0000";
layers = (
{
layerId = "7B42E6E7-B323-448C-AC07-14628C7F1CBB";
name = Bold;
paths = (
{
closed = 1;
nodes = (
"952 0 LINE",
"526 0 LINE",
"526 186 LINE",
"600 186 LINE",
"463 481 LINE",
"326 186 LINE",
"399 186 LINE",
"399 0 LINE",
"-23 0 LINE",
"-23 186 LINE",
"90 186 LINE",
"344 659 LINE",
"94 1118 LINE",
"0 1118 LINE",
"0 1305 LINE",
"414 1305 LINE",
"414 1118 LINE",
"330 1118 LINE",
"463 829 LINE",
"598 1118 LINE",
"516 1118 LINE",
"516 1305 LINE",
"932 1305 LINE",
"932 1118 LINE",
"831 1118 LINE",
"582 659 LINE",
"836 186 LINE",
"952 186 LINE"
);
}
);
width = 1118;
}
);
unicode = 0058;
},
{
glyphname = Y;
lastChange = "2013-08-07 13:45:35 +0000";
layers = (
{
anchors = (
{
name = top;
position = "{559, 1305}";
}
);
layerId = "7B42E6E7-B323-448C-AC07-14628C7F1CBB";
name = Bold;
paths = (
{
closed = 1;
nodes = (
"952 1118 LINE",
"858 1118 LINE",
"569 532 LINE",
"569 186 LINE",
"778 186 LINE",
"778 0 LINE",
"154 0 LINE",
"154 186 LINE",
"362 186 LINE",
"362 532 LINE",
"74 1118 LINE",
"-20 1118 LINE",
"-20 1305 LINE",
"391 1305 LINE",
"391 1118 LINE",
"301 1118 LINE",
"467 735 LINE",
"631 1118 LINE",
"541 1118 LINE",
"541 1305 LINE",
"952 1305 LINE"
);
}
);
width = 1118;
}
);
unicode = 0059;
},
{
glyphname = Z;
lastChange = "2013-08-07 13:45:35 +0000";
layers = (
{
anchors = (
{
name = top;
position = "{559, 1305}";
}
);
layerId = "7B42E6E7-B323-448C-AC07-14628C7F1CBB";
name = Bold;
paths = (
{
closed = 1;
nodes = (
"883 0 LINE",
"49 0 LINE",
"49 184 LINE",
"633 1118 LINE",
"236 1118 LINE",
"236 834 LINE",
"49 834 LINE",
"49 1305 LINE",
"866 1305 LINE",
"866 1118 LINE",
"299 186 LINE",
"700 186 LINE",
"700 473 LINE",
"883 473 LINE"
);
}
);
width = 1118;
}
);
unicode = 005A;
},
{
glyphname = bracketleft;
lastChange = "2013-08-07 13:45:35 +0000";
layers = (
{
layerId = "7B42E6E7-B323-448C-AC07-14628C7F1CBB";
name = Bold;
paths = (
{
closed = 1;
nodes = (
"807 -373 LINE",
"373 -373 LINE",
"373 1491 LINE",
"807 1491 LINE",
"807 1305 LINE",
"559 1305 LINE",
"559 -186 LINE",
"807 -186 LINE"
);
}
);
width = 1118;
}
);
unicode = 005B;
},
{
glyphname = backslash;
lastChange = "2013-08-07 13:45:35 +0000";
layers = (
{
layerId = "7B42E6E7-B323-448C-AC07-14628C7F1CBB";
name = Bold;
paths = (
{
closed = 1;
nodes = (
"932 -176 LINE",
"778 -252 LINE",
"12 1290 LINE",
"166 1366 LINE"
);
}
);
width = 1118;
}
);
unicode = 005C;
},
{
glyphname = bracketright;
lastChange = "2013-08-07 13:45:35 +0000";
layers = (
{
layerId = "7B42E6E7-B323-448C-AC07-14628C7F1CBB";
name = Bold;
paths = (
{
closed = 1;
nodes = (
"559 -373 LINE",
"125 -373 LINE",
"125 -186 LINE",
"373 -186 LINE",
"373 1305 LINE",
"125 1305 LINE",
"125 1491 LINE",
"559 1491 LINE"
);
}
);
width = 1118;
}
);
unicode = 005D;
},
{
glyphname = asciicircum;
lastChange = "2013-08-07 13:45:35 +0000";
layers = (
{
layerId = "7B42E6E7-B323-448C-AC07-14628C7F1CBB";
name = Bold;
paths = (
{
closed = 1;
nodes = (
"995 559 LINE",
"767 559 LINE",
"467 1121 LINE",
"169 559 LINE",
"-59 559 LINE",
"343 1305 LINE",
"591 1305 LINE"
);
}
);
width = 1118;
}
);
unicode = 005E;
},
{
glyphname = underscore;
lastChange = "2013-08-07 13:45:35 +0000";
layers = (
{
layerId = "7B42E6E7-B323-448C-AC07-14628C7F1CBB";
name = Bold;
paths = (
{
closed = 1;
nodes = (
"0 -186 LINE",
"0 0 LINE",
"932 0 LINE",
"932 -186 LINE"
);
}
);
width = 1118;
}
);
unicode = 005F;
},
{
glyphname = grave;
lastChange = "2013-08-07 13:45:35 +0000";
layers = (
{
anchors = (
{
name = _top;
position = "{487.5, 932}";
}
);
layerId = "7B42E6E7-B323-448C-AC07-14628C7F1CBB";
name = Bold;
paths = (
{
closed = 1;
nodes = (
"344 1405 LINE",
"748 1118 LINE",
"659 981 LINE",
"227 1225 LINE"
);
}
);
width = 1118;
}
);
unicode = 0060;
},
{
glyphname = a;
lastChange = "2013-08-07 13:45:35 +0000";
layers = (
{
anchors = (
{
name = ogonek;
position = "{1006, 10}";
},
{
name = top;
position = "{559, 932}";
}
);
layerId = "7B42E6E7-B323-448C-AC07-14628C7F1CBB";
name = Bold;
paths = (
{
closed = 1;
nodes = (
"-4 377 OFFCURVE",
"60 459 OFFCURVE",
"156 514 CURVE SMOOTH",
"251 569 OFFCURVE",
"380 596 OFFCURVE",
"508 596 CURVE SMOOTH",
"579 596 OFFCURVE",
"624 593 OFFCURVE",
"676 588 CURVE",
"676 625 LINE SMOOTH",
"676 722 OFFCURVE",
"594 770 OFFCURVE",
"471 770 CURVE SMOOTH",
"359 770 OFFCURVE",
"239 738 OFFCURVE",
"135 678 CURVE",
"51 840 LINE",
"174 911 OFFCURVE",
"315 954 OFFCURVE",
"471 954 CURVE SMOOTH",
"572 954 OFFCURVE",
"675 933 OFFCURVE",
"753 881 CURVE SMOOTH",
"831 829 OFFCURVE",
"881 748 OFFCURVE",
"881 625 CURVE SMOOTH",
"881 0 LINE",
"676 0 LINE",
"676 137 LINE",
"611 36 OFFCURVE",
"473 -23 OFFCURVE",
"326 -23 CURVE SMOOTH",
"235 -23 OFFCURVE",
"152 2 OFFCURVE",
"93 51 CURVE SMOOTH",
"34 100 OFFCURVE",
"-4 173 OFFCURVE",
"-4 268 CURVE SMOOTH"
);
},
{
closed = 1;
nodes = (
"460 162 OFFCURVE",
"533 184 OFFCURVE",
"588 221 CURVE SMOOTH",
"643 257 OFFCURVE",
"676 310 OFFCURVE",
"676 373 CURVE SMOOTH",
"676 408 LINE",
"611 419 OFFCURVE",
"552 418 OFFCURVE",
"508 418 CURVE SMOOTH",
"407 418 OFFCURVE",
"330 405 OFFCURVE",
"279 378 CURVE SMOOTH",
"227 351 OFFCURVE",
"201 318 OFFCURVE",
"201 279 CURVE SMOOTH",
"201 201 OFFCURVE",
"260 162 OFFCURVE",
"379 162 CURVE SMOOTH"
);
}
);
width = 1118;
}
);
unicode = 0061;
},
{
glyphname = b;
lastChange = "2013-08-07 13:45:35 +0000";
layers = (
{
layerId = "7B42E6E7-B323-448C-AC07-14628C7F1CBB";
name = Bold;
paths = (
{
closed = 1;
nodes = (
"49 1305 LINE",
"256 1305 LINE",
"256 848 LINE",
"335 919 OFFCURVE",
"410 954 OFFCURVE",
"514 954 CURVE SMOOTH",
"634 954 OFFCURVE",
"740 903 OFFCURVE",
"813 817 CURVE SMOOTH",
"886 731 OFFCURVE",
"932 606 OFFCURVE",
"932 465 CURVE SMOOTH",
"932 322 OFFCURVE",
"886 200 OFFCURVE",
"813 114 CURVE SMOOTH",
"740 28 OFFCURVE",
"634 -23 OFFCURVE",
"514 -23 CURVE SMOOTH",
"410 -23 OFFCURVE",
"335 15 OFFCURVE",
"256 86 CURVE",
"256 0 LINE",
"49 0 LINE"
);
},
{
closed = 1;
nodes = (
"256 248 LINE",
"305 193 OFFCURVE",
"390 164 OFFCURVE",
"461 164 CURVE SMOOTH",
"617 164 OFFCURVE",
"725 285 OFFCURVE",
"725 465 CURVE SMOOTH",
"725 645 OFFCURVE",
"617 768 OFFCURVE",
"461 768 CURVE SMOOTH",
"390 768 OFFCURVE",
"305 739 OFFCURVE",
"256 684 CURVE"
);
}
);
width = 1118;
}
);
unicode = 0062;
},
{
glyphname = c;
lastChange = "2013-08-07 13:45:35 +0000";
layers = (
{
anchors = (
{
name = bottom;
position = "{559, 0}";
},
{
name = top;
position = "{559, 932}";
}
);
layerId = "7B42E6E7-B323-448C-AC07-14628C7F1CBB";
name = Bold;
paths = (
{
closed = 1;
nodes = (
"897 133 LINE",
"777 13 OFFCURVE",
"647 -23 OFFCURVE",
"492 -23 CURVE SMOOTH",
"336 -23 OFFCURVE",
"206 26 OFFCURVE",
"118 111 CURVE SMOOTH",
"29 195 OFFCURVE",
"-20 317 OFFCURVE",
"-20 465 CURVE SMOOTH",
"-20 606 OFFCURVE",
"31 731 OFFCURVE",
"112 817 CURVE SMOOTH",
"192 903 OFFCURVE",
"305 954 OFFCURVE",
"428 954 CURVE SMOOTH",
"556 954 OFFCURVE",
"655 900 OFFCURVE",
"698 797 CURVE",
"698 932 LINE",
"883 932 LINE",
"883 498 LINE",
"698 498 LINE",
"698 662 OFFCURVE",
"599 768 OFFCURVE",
"455 768 CURVE SMOOTH",
"398 768 OFFCURVE",
"330 745 OFFCURVE",
"278 696 CURVE SMOOTH",
"225 647 OFFCURVE",
"186 572 OFFCURVE",
"186 465 CURVE SMOOTH",
"186 361 OFFCURVE",
"223 286 OFFCURVE",
"277 238 CURVE SMOOTH",
"331 189 OFFCURVE",
"408 164 OFFCURVE",
"487 164 CURVE SMOOTH",
"622 164 OFFCURVE",
"719 210 OFFCURVE",
"791 279 CURVE"
);
}
);
width = 1118;
}
);
unicode = 0063;
},
{
glyphname = d;
lastChange = "2013-08-07 13:45:35 +0000";
layers = (
{
anchors = (
{
name = center;
position = "{559, 466}";
}
);
layerId = "7B42E6E7-B323-448C-AC07-14628C7F1CBB";
name = Bold;
paths = (
{
closed = 1;
nodes = (
"883 0 LINE",
"676 0 LINE",
"676 86 LINE",
"596 15 OFFCURVE",
"520 -23 OFFCURVE",
"416 -23 CURVE SMOOTH",
"296 -23 OFFCURVE",
"191 28 OFFCURVE",
"117 114 CURVE SMOOTH",
"43 200 OFFCURVE",
"-2 322 OFFCURVE",
"-2 465 CURVE SMOOTH",
"-2 606 OFFCURVE",
"43 731 OFFCURVE",
"117 817 CURVE SMOOTH",
"191 903 OFFCURVE",
"296 954 OFFCURVE",
"416 954 CURVE SMOOTH",
"520 954 OFFCURVE",
"596 919 OFFCURVE",
"676 848 CURVE",
"676 1118 LINE",
"496 1118 LINE",
"496 1305 LINE",
"883 1305 LINE"
);
},
{
closed = 1;
nodes = (
"676 684 LINE",
"627 739 OFFCURVE",
"540 768 OFFCURVE",
"469 768 CURVE SMOOTH",
"313 768 OFFCURVE",
"205 645 OFFCURVE",
"205 465 CURVE SMOOTH",
"205 285 OFFCURVE",
"313 164 OFFCURVE",
"469 164 CURVE SMOOTH",
"540 164 OFFCURVE",
"627 193 OFFCURVE",
"676 248 CURVE"
);
}
);
width = 1118;
}
);
unicode = 0064;
},
{
glyphname = e;
lastChange = "2013-08-07 13:45:35 +0000";
layers = (
{
anchors = (
{
name = bottom;
position = "{559, 0}";
},
{
name = ogonek;
position = "{1006, 10}";
},
{
name = top;
position = "{559, 932}";
}
);
layerId = "7B42E6E7-B323-448C-AC07-14628C7F1CBB";
name = Bold;
paths = (
{
closed = 1;
nodes = (
"190 387 LINE",
"210 259 OFFCURVE",
"315 164 OFFCURVE",
"487 164 CURVE SMOOTH",
"622 164 OFFCURVE",
"719 210 OFFCURVE",
"791 279 CURVE",
"897 133 LINE",
"777 13 OFFCURVE",
"646 -23 OFFCURVE",
"487 -23 CURVE SMOOTH",
"343 -23 OFFCURVE",
"216 28 OFFCURVE",
"125 114 CURVE SMOOTH",
"34 200 OFFCURVE",
"-20 320 OFFCURVE",
"-20 465 CURVE SMOOTH",
"-20 606 OFFCURVE",
"30 728 OFFCURVE",
"116 816 CURVE SMOOTH",
"202 903 OFFCURVE",
"324 954 OFFCURVE",
"469 954 CURVE SMOOTH",
"620 954 OFFCURVE",
"744 901 OFFCURVE",
"832 804 CURVE SMOOTH",
"919 707 OFFCURVE",
"971 564 OFFCURVE",
"971 387 CURVE"
);
},
{
closed = 1;
nodes = (
"737 569 LINE",
"716 689 OFFCURVE",
"600 768 OFFCURVE",
"469 768 CURVE SMOOTH",
"338 768 OFFCURVE",
"220 689 OFFCURVE",
"199 569 CURVE"
);
}
);
width = 1118;
}
);
unicode = 0065;
},
{
glyphname = f;
lastChange = "2013-08-07 13:45:35 +0000";
layers = (
{
layerId = "7B42E6E7-B323-448C-AC07-14628C7F1CBB";
name = Bold;
paths = (
{
closed = 1;
nodes = (
"932 745 LINE",
"569 745 LINE",
"569 186 LINE",
"782 186 LINE",
"782 0 LINE",
"156 0 LINE",
"156 186 LINE",
"362 186 LINE",
"362 745 LINE",
"156 745 LINE",
"156 932 LINE",
"362 932 LINE",
"362 1188 OFFCURVE",
"531 1327 OFFCURVE",
"799 1327 CURVE SMOOTH",
"839 1327 OFFCURVE",
"885 1322 OFFCURVE",
"932 1317 CURVE",
"932 1135 LINE",
"892 1139 OFFCURVE",
"856 1141 OFFCURVE",
"823 1141 CURVE SMOOTH",
"716 1141 OFFCURVE",
"654 1127 OFFCURVE",
"618 1093 CURVE SMOOTH",
"581 1059 OFFCURVE",
"569 1005 OFFCURVE",
"569 932 CURVE",
"932 932 LINE"
);
}
);
width = 1118;
}
);
unicode = 0066;
},
{
glyphname = g;
lastChange = "2013-08-07 13:45:35 +0000";
layers = (
{
anchors = (
{
name = top;
position = "{559, 932}";
}
);
layerId = "7B42E6E7-B323-448C-AC07-14628C7F1CBB";
name = Bold;
paths = (
{
closed = 1;
nodes = (
"883 10 LINE SMOOTH",
"883 -118 OFFCURVE",
"837 -219 OFFCURVE",
"758 -288 CURVE SMOOTH",
"678 -357 OFFCURVE",
"570 -395 OFFCURVE",
"438 -395 CURVE SMOOTH",
"276 -395 OFFCURVE",
"138 -346 OFFCURVE",
"23 -248 CURVE",
"121 -88 LINE",
"216 -170 OFFCURVE",
"322 -211 OFFCURVE",
"438 -211 CURVE SMOOTH",
"581 -211 OFFCURVE",
"676 -143 OFFCURVE",
"676 6 CURVE SMOOTH",
"676 106 LINE",
"591 33 OFFCURVE",
"520 -2 OFFCURVE",
"416 -2 CURVE SMOOTH",
"296 -2 OFFCURVE",
"191 52 OFFCURVE",
"117 140 CURVE SMOOTH",
"43 227 OFFCURVE",
"-2 346 OFFCURVE",
"-2 477 CURVE SMOOTH",
"-2 608 OFFCURVE",
"43 729 OFFCURVE",
"117 815 CURVE SMOOTH",
"191 901 OFFCURVE",
"296 954 OFFCURVE",
"416 954 CURVE SMOOTH",
"520 954 OFFCURVE",
"596 919 OFFCURVE",
"676 848 CURVE",
"676 932 LINE",
"883 932 LINE"
);
},
{
closed = 1;
nodes = (
"676 684 LINE",
"627 739 OFFCURVE",
"540 768 OFFCURVE",
"467 768 CURVE SMOOTH",
"311 768 OFFCURVE",
"205 646 OFFCURVE",
"205 477 CURVE SMOOTH",
"205 393 OFFCURVE",
"233 320 OFFCURVE",
"279 268 CURVE SMOOTH",
"325 216 OFFCURVE",
"391 184 OFFCURVE",
"467 184 CURVE SMOOTH",
"540 184 OFFCURVE",
"627 215 OFFCURVE",
"676 270 CURVE"
);
}
);
width = 1118;
}
);
unicode = 0067;
},
{
glyphname = h;
lastChange = "2013-08-07 13:45:35 +0000";
layers = (
{
anchors = (
{
name = center;
position = "{559, 466}";
},
{
name = top;
position = "{559, 932}";
}
);
layerId = "7B42E6E7-B323-448C-AC07-14628C7F1CBB";
name = Bold;
paths = (
{
closed = 1;
nodes = (
"883 0 LINE",
"676 0 LINE",
"676 575 LINE SMOOTH",
"676 720 OFFCURVE",
"620 768 OFFCURVE",
"516 768 CURVE SMOOTH",
"363 768 OFFCURVE",
"256 637 OFFCURVE",
"256 418 CURVE SMOOTH",
"256 0 LINE",
"49 0 LINE",
"49 1305 LINE",
"256 1305 LINE",
"256 698 LINE",
"297 859 OFFCURVE",
"414 954 OFFCURVE",
"578 954 CURVE SMOOTH",
"769 954 OFFCURVE",
"883 832 OFFCURVE",
"883 575 CURVE SMOOTH"
);
}
);
width = 1118;
}
);
unicode = 0068;
},
{
glyphname = i;
lastChange = "2013-08-07 13:45:35 +0000";
layers = (
{
layerId = "7B42E6E7-B323-448C-AC07-14628C7F1CBB";
name = Bold;
paths = (
{
closed = 1;
nodes = (
"592 1053 LINE",
"340 1053 LINE",
"340 1305 LINE",
"592 1305 LINE"
);
},
{
closed = 1;
nodes = (
"782 0 LINE",
"156 0 LINE",
"156 186 LINE",
"362 186 LINE",
"362 745 LINE",
"156 745 LINE",
"156 932 LINE",
"569 932 LINE",
"569 186 LINE",
"782 186 LINE"
);
}
);
width = 1118;
}
);
unicode = 0069;
},
{
glyphname = j;
lastChange = "2013-08-07 13:45:35 +0000";
layers = (
{
layerId = "7B42E6E7-B323-448C-AC07-14628C7F1CBB";
name = Bold;
paths = (
{
closed = 1;
nodes = (
"202 -395 OFFCURVE",
"87 -342 OFFCURVE",
"0 -236 CURVE",
"123 -98 LINE",
"186 -173 OFFCURVE",
"253 -209 OFFCURVE",
"344 -209 CURVE SMOOTH",
"484 -209 OFFCURVE",
"549 -125 OFFCURVE",
"549 0 CURVE SMOOTH",
"549 745 LINE",
"338 745 LINE",
"338 932 LINE",
"756 932 LINE",
"756 0 LINE SMOOTH",
"756 -120 OFFCURVE",
"714 -219 OFFCURVE",
"642 -288 CURVE SMOOTH",
"570 -357 OFFCURVE",
"467 -395 OFFCURVE",
"344 -395 CURVE SMOOTH"
);
},
{
closed = 1;
nodes = (
"778 1053 LINE",
"526 1053 LINE",
"526 1305 LINE",
"778 1305 LINE"
);
}
);
width = 1118;
}
);
unicode = 006A;
},
{
glyphname = k;
lastChange = "2013-08-07 13:45:35 +0000";
layers = (
{
anchors = (
{
name = bottom;
position = "{559, 0}";
}
);
layerId = "7B42E6E7-B323-448C-AC07-14628C7F1CBB";
name = Bold;
paths = (
{
closed = 1;
nodes = (
"930 0 LINE",
"662 0 LINE",
"350 377 LINE",
"256 281 LINE",
"256 0 LINE",
"49 0 LINE",
"49 1305 LINE",
"256 1305 LINE",
"256 537 LINE",
"629 932 LINE",
"913 932 LINE",
"483 504 LINE"
);
}
);
width = 1118;
}
);
unicode = 006B;
},
{
glyphname = l;
lastChange = "2013-08-07 13:45:35 +0000";
layers = (
{
anchors = (
{
name = bottom;
position = "{559, 0}";
},
{
name = top;
position = "{559, 932}";
},
{
name = topright;
position = "{1098, 932}";
}
);
layerId = "7B42E6E7-B323-448C-AC07-14628C7F1CBB";
name = Bold;
paths = (
{
closed = 1;
nodes = (
"784 0 LINE",
"158 0 LINE",
"158 186 LINE",
"362 186 LINE",
"362 1118 LINE",
"158 1118 LINE",
"158 1305 LINE",
"569 1305 LINE",
"569 186 LINE",
"784 186 LINE"
);
}
);
width = 1118;
}
);
unicode = 006C;
},
{
glyphname = m;
lastChange = "2013-08-07 13:45:35 +0000";
layers = (
{
layerId = "7B42E6E7-B323-448C-AC07-14628C7F1CBB";
name = Bold;
paths = (
{
closed = 1;
nodes = (
"932 0 LINE",
"725 0 LINE",
"725 639 LINE SMOOTH",
"725 727 OFFCURVE",
"709 768 OFFCURVE",
"664 768 CURVE SMOOTH",
"623 768 OFFCURVE",
"597 745 OFFCURVE",
"586 699 CURVE SMOOTH",
"575 652 OFFCURVE",
"569 585 OFFCURVE",
"569 496 CURVE SMOOTH",
"569 0 LINE",
"362 0 LINE",
"362 639 LINE SMOOTH",
"362 727 OFFCURVE",
"346 768 OFFCURVE",
"299 768 CURVE SMOOTH",
"258 768 OFFCURVE",
"233 745 OFFCURVE",
"223 699 CURVE SMOOTH",
"212 652 OFFCURVE",
"207 585 OFFCURVE",
"207 496 CURVE SMOOTH",
"207 0 LINE",
"0 0 LINE",
"0 932 LINE",
"209 932 LINE",
"209 797 LINE",
"238 900 OFFCURVE",
"293 954 OFFCURVE",
"389 954 CURVE SMOOTH",
"469 954 OFFCURVE",
"525 902 OFFCURVE",
"545 817 CURVE",
"592 910 OFFCURVE",
"629 954 OFFCURVE",
"733 954 CURVE SMOOTH",
"861 954 OFFCURVE",
"932 861 OFFCURVE",
"932 670 CURVE SMOOTH"
);
}
);
width = 1118;
}
);
unicode = 006D;
},
{
glyphname = n;
lastChange = "2013-08-07 13:45:35 +0000";
layers = (
{
anchors = (
{
name = bottom;
position = "{559, 0}";
},
{
name = top;
position = "{559, 932}";
}
);
layerId = "7B42E6E7-B323-448C-AC07-14628C7F1CBB";
name = Bold;
paths = (
{
closed = 1;
nodes = (
"883 0 LINE",
"676 0 LINE",
"676 575 LINE SMOOTH",
"676 720 OFFCURVE",
"620 768 OFFCURVE",
"516 768 CURVE SMOOTH",
"363 768 OFFCURVE",
"256 637 OFFCURVE",
"256 418 CURVE SMOOTH",
"256 0 LINE",
"49 0 LINE",
"49 932 LINE",
"256 932 LINE",
"256 698 LINE",
"297 859 OFFCURVE",
"414 954 OFFCURVE",
"578 954 CURVE SMOOTH",
"769 954 OFFCURVE",
"883 832 OFFCURVE",
"883 575 CURVE SMOOTH"
);
}
);
width = 1118;
}
);
unicode = 006E;
},
{
glyphname = o;
lastChange = "2013-08-07 13:45:35 +0000";
layers = (
{
anchors = (
{
name = top;
position = "{559, 932}";
}
);
layerId = "7B42E6E7-B323-448C-AC07-14628C7F1CBB";
name = Bold;
paths = (
{
closed = 1;
nodes = (
"956 320 OFFCURVE",
"909 200 OFFCURVE",
"823 114 CURVE SMOOTH",
"737 28 OFFCURVE",
"615 -23 OFFCURVE",
"467 -23 CURVE SMOOTH",
"322 -23 OFFCURVE",
"200 28 OFFCURVE",
"114 114 CURVE SMOOTH",
"28 200 OFFCURVE",
"-20 320 OFFCURVE",
"-20 465 CURVE SMOOTH",
"-20 606 OFFCURVE",
"28 730 OFFCURVE",
"114 818 CURVE SMOOTH",
"200 905 OFFCURVE",
"322 954 OFFCURVE",
"467 954 CURVE SMOOTH",
"615 954 OFFCURVE",
"737 905 OFFCURVE",
"823 818 CURVE SMOOTH",
"909 730 OFFCURVE",
"956 606 OFFCURVE",
"956 465 CURVE SMOOTH"
);
},
{
closed = 1;
nodes = (
"750 549 OFFCURVE",
"723 628 OFFCURVE",
"674 681 CURVE SMOOTH",
"625 734 OFFCURVE",
"554 768 OFFCURVE",
"467 768 CURVE SMOOTH",
"379 768 OFFCURVE",
"309 734 OFFCURVE",
"261 681 CURVE SMOOTH",
"213 628 OFFCURVE",
"186 549 OFFCURVE",
"186 465 CURVE SMOOTH",
"186 377 OFFCURVE",
"213 305 OFFCURVE",
"261 250 CURVE SMOOTH",
"309 195 OFFCURVE",
"379 164 OFFCURVE",
"467 164 CURVE SMOOTH",
"554 164 OFFCURVE",
"625 195 OFFCURVE",
"674 250 CURVE SMOOTH",
"723 305 OFFCURVE",
"750 377 OFFCURVE",
"750 465 CURVE SMOOTH"
);
}
);
width = 1118;
}
);
unicode = 006F;
},
{
glyphname = p;
lastChange = "2013-08-07 13:45:35 +0000";
layers = (
{
layerId = "7B42E6E7-B323-448C-AC07-14628C7F1CBB";
name = Bold;
paths = (
{
closed = 1;
nodes = (
"49 932 LINE",
"256 932 LINE",
"256 848 LINE",
"335 919 OFFCURVE",
"410 954 OFFCURVE",
"514 954 CURVE SMOOTH",
"634 954 OFFCURVE",
"740 903 OFFCURVE",
"813 817 CURVE SMOOTH",
"886 731 OFFCURVE",
"932 606 OFFCURVE",
"932 465 CURVE SMOOTH",
"932 322 OFFCURVE",
"886 200 OFFCURVE",
"813 114 CURVE SMOOTH",
"740 28 OFFCURVE",
"634 -23 OFFCURVE",
"514 -23 CURVE SMOOTH",
"410 -23 OFFCURVE",
"335 15 OFFCURVE",
"256 86 CURVE",
"256 -373 LINE",
"49 -373 LINE"
);
},
{
closed = 1;
nodes = (
"256 250 LINE",
"305 195 OFFCURVE",
"390 164 OFFCURVE",
"461 164 CURVE SMOOTH",
"617 164 OFFCURVE",
"725 285 OFFCURVE",
"725 465 CURVE SMOOTH",
"725 645 OFFCURVE",
"617 768 OFFCURVE",
"461 768 CURVE SMOOTH",
"390 768 OFFCURVE",
"305 739 OFFCURVE",
"256 684 CURVE"
);
}
);
width = 1118;
}
);
unicode = 0070;
},
{
glyphname = q;
lastChange = "2013-08-07 13:45:35 +0000";
layers = (
{
layerId = "7B42E6E7-B323-448C-AC07-14628C7F1CBB";
name = Bold;
paths = (
{
closed = 1;
nodes = (
"883 -373 LINE",
"676 -373 LINE",
"676 86 LINE",
"596 15 OFFCURVE",
"520 -23 OFFCURVE",
"416 -23 CURVE SMOOTH",
"296 -23 OFFCURVE",
"191 28 OFFCURVE",
"117 114 CURVE SMOOTH",
"43 200 OFFCURVE",
"-2 322 OFFCURVE",
"-2 465 CURVE SMOOTH",
"-2 606 OFFCURVE",
"43 731 OFFCURVE",
"117 817 CURVE SMOOTH",
"191 903 OFFCURVE",
"296 954 OFFCURVE",
"416 954 CURVE SMOOTH",
"520 954 OFFCURVE",
"596 919 OFFCURVE",
"676 848 CURVE",
"676 932 LINE",
"883 932 LINE"
);
},
{
closed = 1;
nodes = (
"676 684 LINE",
"627 739 OFFCURVE",
"540 768 OFFCURVE",
"469 768 CURVE SMOOTH",
"313 768 OFFCURVE",
"205 645 OFFCURVE",
"205 465 CURVE SMOOTH",
"205 285 OFFCURVE",
"313 164 OFFCURVE",
"469 164 CURVE SMOOTH",
"540 164 OFFCURVE",
"627 193 OFFCURVE",
"676 248 CURVE"
);
}
);
width = 1118;
}
);
unicode = 0071;
},
{
glyphname = r;
lastChange = "2013-08-07 13:45:35 +0000";
layers = (
{
anchors = (
{
name = bottom;
position = "{559, 0}";
},
{
name = top;
position = "{559, 932}";
}
);
layerId = "7B42E6E7-B323-448C-AC07-14628C7F1CBB";
name = Bold;
paths = (
{
closed = 1;
nodes = (
"909 711 LINE",
"860 735 OFFCURVE",
"812 748 OFFCURVE",
"745 748 CURVE SMOOTH",
"653 748 OFFCURVE",
"570 721 OFFCURVE",
"511 666 CURVE SMOOTH",
"452 611 OFFCURVE",
"418 530 OFFCURVE",
"418 418 CURVE SMOOTH",
"418 186 LINE",
"627 186 LINE",
"627 0 LINE",
"0 0 LINE",
"0 186 LINE",
"211 186 LINE",
"211 745 LINE",
"0 745 LINE",
"0 932 LINE",
"418 932 LINE",
"418 698 LINE",
"486 885 OFFCURVE",
"622 954 OFFCURVE",
"805 954 CURVE SMOOTH",
"862 954 OFFCURVE",
"927 944 OFFCURVE",
"987 913 CURVE"
);
}
);
width = 1118;
}
);
unicode = 0072;
},
{
glyphname = s;
lastChange = "2013-08-07 13:45:35 +0000";
layers = (
{
anchors = (
{
name = bottom;
position = "{559, 0}";
},
{
name = top;
position = "{559, 932}";
}
);
layerId = "7B42E6E7-B323-448C-AC07-14628C7F1CBB";
name = Bold;
paths = (
{
closed = 1;
nodes = (
"907 158 OFFCURVE",
"847 86 OFFCURVE",
"761 39 CURVE SMOOTH",
"675 -8 OFFCURVE",
"562 -23 OFFCURVE",
"461 -23 CURVE SMOOTH",
"292 -23 OFFCURVE",
"113 31 OFFCURVE",
"-10 111 CURVE",
"76 281 LINE",
"223 196 OFFCURVE",
"338 164 OFFCURVE",
"461 164 CURVE SMOOTH",
"544 164 OFFCURVE",
"605 173 OFFCURVE",
"643 191 CURVE SMOOTH",
"681 208 OFFCURVE",
"700 233 OFFCURVE",
"700 264 CURVE SMOOTH",
"700 295 OFFCURVE",
"680 313 OFFCURVE",
"631 330 CURVE SMOOTH",
"582 346 OFFCURVE",
"503 362 OFFCURVE",
"383 381 CURVE SMOOTH",
"287 397 OFFCURVE",
"198 417 OFFCURVE",
"133 460 CURVE SMOOTH",
"68 503 OFFCURVE",
"25 565 OFFCURVE",
"25 664 CURVE SMOOTH",
"25 764 OFFCURVE",
"81 838 OFFCURVE",
"165 886 CURVE SMOOTH",
"248 934 OFFCURVE",
"357 954 OFFCURVE",
"461 954 CURVE SMOOTH",
"608 954 OFFCURVE",
"752 915 OFFCURVE",
"856 844 CURVE",
"774 684 LINE",
"670 749 OFFCURVE",
"578 768 OFFCURVE",
"461 768 CURVE SMOOTH",
"412 768 OFFCURVE",
"355 764 OFFCURVE",
"310 749 CURVE SMOOTH",
"265 733 OFFCURVE",
"231 707 OFFCURVE",
"231 670 CURVE SMOOTH",
"231 645 OFFCURVE",
"253 625 OFFCURVE",
"297 610 CURVE SMOOTH",
"340 594 OFFCURVE",
"415 578 OFFCURVE",
"520 563 CURVE SMOOTH",
"635 547 OFFCURVE",
"731 525 OFFCURVE",
"799 483 CURVE SMOOTH",
"867 441 OFFCURVE",
"907 376 OFFCURVE",
"907 279 CURVE SMOOTH"
);
}
);
width = 1118;
}
);
unicode = 0073;
},
{
glyphname = t;
lastChange = "2013-08-07 13:45:35 +0000";
layers = (
{
anchors = (
{
name = bottom;
position = "{559, 0}";
},
{
name = center;
position = "{559, 466}";
}
);
layerId = "7B42E6E7-B323-448C-AC07-14628C7F1CBB";
name = Bold;
paths = (
{
closed = 1;
nodes = (
"942 297 LINE",
"921 101 OFFCURVE",
"777 -23 OFFCURVE",
"578 -23 CURVE SMOOTH",
"469 -23 OFFCURVE",
"376 15 OFFCURVE",
"312 79 CURVE SMOOTH",
"248 143 OFFCURVE",
"211 235 OFFCURVE",
"211 342 CURVE SMOOTH",
"211 745 LINE",
"0 745 LINE",
"0 932 LINE",
"211 932 LINE",
"211 1305 LINE",
"418 1305 LINE",
"418 932 LINE",
"809 932 LINE",
"809 745 LINE",
"418 745 LINE",
"418 342 LINE SMOOTH",
"418 222 OFFCURVE",
"482 164 OFFCURVE",
"578 164 CURVE SMOOTH",
"695 164 OFFCURVE",
"749 242 OFFCURVE",
"760 338 CURVE"
);
}
);
width = 1118;
}
);
unicode = 0074;
},
{
glyphname = u;
lastChange = "2013-08-07 13:45:35 +0000";
layers = (
{
anchors = (
{
name = ogonek;
position = "{1006, 10}";
},
{
name = top;
position = "{559, 932}";
}
);
layerId = "7B42E6E7-B323-448C-AC07-14628C7F1CBB";
name = Bold;
paths = (
{
closed = 1;
nodes = (
"49 932 LINE",
"256 932 LINE",
"256 356 LINE SMOOTH",
"256 212 OFFCURVE",
"312 164 OFFCURVE",
"416 164 CURVE SMOOTH",
"568 164 OFFCURVE",
"676 295 OFFCURVE",
"676 514 CURVE SMOOTH",
"676 932 LINE",
"883 932 LINE",
"883 0 LINE",
"676 0 LINE",
"676 233 LINE",
"635 73 OFFCURVE",
"518 -23 OFFCURVE",
"354 -23 CURVE SMOOTH",
"163 -23 OFFCURVE",
"49 100 OFFCURVE",
"49 356 CURVE SMOOTH"
);
}
);
width = 1118;
}
);
unicode = 0075;
},
{
glyphname = v;
lastChange = "2013-08-07 13:45:35 +0000";
layers = (
{
layerId = "7B42E6E7-B323-448C-AC07-14628C7F1CBB";
name = Bold;
paths = (
{
closed = 1;
nodes = (
"932 932 LINE",
"588 0 LINE",
"344 0 LINE",
"0 932 LINE",
"221 932 LINE",
"467 227 LINE",
"711 932 LINE"
);
}
);
width = 1118;
}
);
unicode = 0076;
},
{
glyphname = w;
lastChange = "2013-08-07 13:45:35 +0000";
layers = (
{
anchors = (
{
name = top;
position = "{559, 932}";
}
);
layerId = "7B42E6E7-B323-448C-AC07-14628C7F1CBB";
name = Bold;
paths = (
{
closed = 1;
nodes = (
"961 932 LINE",
"821 0 LINE",
"565 0 LINE",
"467 561 LINE",
"367 0 LINE",
"111 0 LINE",
"-29 932 LINE",
"174 932 LINE",
"256 309 LINE",
"356 932 LINE",
"575 932 LINE",
"676 309 LINE",
"758 932 LINE"
);
}
);
width = 1118;
}
);
unicode = 0077;
},
{
glyphname = x;
lastChange = "2013-08-07 13:45:35 +0000";
layers = (
{
layerId = "7B42E6E7-B323-448C-AC07-14628C7F1CBB";
name = Bold;
paths = (
{
closed = 1;
nodes = (
"954 0 LINE",
"512 0 LINE",
"512 186 LINE",
"594 186 LINE",
"467 381 LINE",
"342 186 LINE",
"418 186 LINE",
"418 0 LINE",
"-20 0 LINE",
"-20 186 LINE",
"115 186 LINE",
"324 473 LINE",
"125 745 LINE",
"0 745 LINE",
"0 932 LINE",
"420 932 LINE",
"420 745 LINE",
"354 745 LINE",
"467 565 LINE",
"582 745 LINE",
"508 745 LINE",
"508 932 LINE",
"932 932 LINE",
"932 745 LINE",
"811 745 LINE",
"612 473 LINE",
"821 186 LINE",
"954 186 LINE"
);
}
);
width = 1118;
}
);
unicode = 0078;
},
{
glyphname = y;
lastChange = "2013-08-07 13:45:35 +0000";
layers = (
{
anchors = (
{
name = top;
position = "{559, 932}";
}
);
layerId = "7B42E6E7-B323-448C-AC07-14628C7F1CBB";
name = Bold;
paths = (
{
closed = 1;
nodes = (
"924 932 LINE",
"522 -182 LINE SMOOTH",
"462 -343 OFFCURVE",
"345 -393 OFFCURVE",
"186 -393 CURVE SMOOTH",
"131 -393 OFFCURVE",
"68 -383 OFFCURVE",
"0 -358 CURVE",
"43 -168 LINE",
"100 -189 OFFCURVE",
"149 -197 OFFCURVE",
"186 -197 CURVE SMOOTH",
"248 -197 OFFCURVE",
"290 -170 OFFCURVE",
"313 -115 CURVE SMOOTH",
"350 -25 LINE",
"-6 932 LINE",
"209 932 LINE",
"465 227 LINE",
"702 932 LINE"
);
}
);
width = 1118;
}
);
unicode = 0079;
},
{
glyphname = z;
lastChange = "2013-08-07 13:45:35 +0000";
layers = (
{
anchors = (
{
name = top;
position = "{559, 932}";
}
);
layerId = "7B42E6E7-B323-448C-AC07-14628C7F1CBB";
name = Bold;
paths = (
{
closed = 1;
nodes = (
"883 0 LINE",
"49 0 LINE",
"49 184 LINE",
"580 745 LINE",
"231 745 LINE",
"231 557 LINE",
"49 557 LINE",
"49 932 LINE",
"864 932 LINE",
"864 745 LINE",
"332 186 LINE",
"700 186 LINE",
"700 371 LINE",
"883 371 LINE"
);
}
);
width = 1118;
}
);
unicode = 007A;
},
{
glyphname = braceleft;
lastChange = "2013-08-07 13:45:35 +0000";
layers = (
{
layerId = "7B42E6E7-B323-448C-AC07-14628C7F1CBB";
name = Bold;
paths = (
{
closed = 1;
nodes = (
"805 -373 LINE",
"651 -373 LINE SMOOTH",
"570 -373 OFFCURVE",
"499 -345 OFFCURVE",
"451 -294 CURVE SMOOTH",
"402 -243 OFFCURVE",
"373 -175 OFFCURVE",
"373 -92 CURVE SMOOTH",
"373 334 LINE SMOOTH",
"373 443 OFFCURVE",
"310 465 OFFCURVE",
"186 465 CURVE",
"186 651 LINE",
"310 651 OFFCURVE",
"373 670 OFFCURVE",
"373 782 CURVE SMOOTH",
"373 1208 LINE SMOOTH",
"373 1291 OFFCURVE",
"402 1359 OFFCURVE",
"451 1410 CURVE SMOOTH",
"499 1461 OFFCURVE",
"570 1491 OFFCURVE",
"651 1491 CURVE SMOOTH",
"805 1491 LINE",
"805 1305 LINE",
"651 1305 LINE SMOOTH",
"580 1305 OFFCURVE",
"559 1280 OFFCURVE",
"559 1208 CURVE SMOOTH",
"559 782 LINE SMOOTH",
"559 657 OFFCURVE",
"468 576 OFFCURVE",
"371 557 CURVE",
"420 549 OFFCURVE",
"467 526 OFFCURVE",
"501 487 CURVE SMOOTH",
"535 447 OFFCURVE",
"559 394 OFFCURVE",
"559 334 CURVE SMOOTH",
"559 -92 LINE SMOOTH",
"559 -163 OFFCURVE",
"580 -188 OFFCURVE",
"651 -188 CURVE SMOOTH",
"805 -188 LINE"
);
}
);
width = 1118;
}
);
unicode = 007B;
},
{
glyphname = bar;
lastChange = "2013-08-07 13:45:35 +0000";
layers = (
{
layerId = "7B42E6E7-B323-448C-AC07-14628C7F1CBB";
name = Bold;
paths = (
{
closed = 1;
nodes = (
"559 -186 LINE",
"373 -186 LINE",
"373 1491 LINE",
"559 1491 LINE"
);
}
);
width = 1118;
}
);
unicode = 007C;
},
{
glyphname = braceright;
lastChange = "2013-08-07 13:45:35 +0000";
layers = (
{
layerId = "7B42E6E7-B323-448C-AC07-14628C7F1CBB";
name = Bold;
paths = (
{
closed = 1;
nodes = (
"127 -188 LINE",
"281 -188 LINE SMOOTH",
"352 -188 OFFCURVE",
"373 -163 OFFCURVE",
"373 -92 CURVE SMOOTH",
"373 338 LINE SMOOTH",
"373 398 OFFCURVE",
"398 451 OFFCURVE",
"432 491 CURVE SMOOTH",
"466 530 OFFCURVE",
"512 553 OFFCURVE",
"561 561 CURVE",
"462 580 OFFCURVE",
"373 661 OFFCURVE",
"373 786 CURVE SMOOTH",
"373 1212 LINE SMOOTH",
"373 1284 OFFCURVE",
"352 1305 OFFCURVE",
"281 1305 CURVE SMOOTH",
"127 1305 LINE",
"127 1491 LINE",
"281 1491 LINE SMOOTH",
"362 1491 OFFCURVE",
"432 1462 OFFCURVE",
"481 1413 CURVE SMOOTH",
"530 1364 OFFCURVE",
"559 1295 OFFCURVE",
"559 1212 CURVE SMOOTH",
"559 786 LINE SMOOTH",
"559 674 OFFCURVE",
"622 655 OFFCURVE",
"745 655 CURVE",
"745 469 LINE",
"622 469 OFFCURVE",
"559 447 OFFCURVE",
"559 338 CURVE SMOOTH",
"559 -92 LINE SMOOTH",
"559 -175 OFFCURVE",
"530 -243 OFFCURVE",
"481 -294 CURVE SMOOTH",
"432 -345 OFFCURVE",
"362 -373 OFFCURVE",
"281 -373 CURVE SMOOTH",
"127 -373 LINE"
);
}
);
width = 1118;
}
);
unicode = 007D;
},
{
glyphname = asciitilde;
lastChange = "2013-08-07 13:45:35 +0000";
layers = (
{
layerId = "7B42E6E7-B323-448C-AC07-14628C7F1CBB";
name = Bold;
paths = (
{
closed = 1;
nodes = (
"656 435 OFFCURVE",
"682 454 OFFCURVE",
"699 492 CURVE SMOOTH",
"715 530 OFFCURVE",
"728 593 OFFCURVE",
"739 682 CURVE",
"936 668 LINE",
"928 548 OFFCURVE",
"900 443 OFFCURVE",
"848 368 CURVE SMOOTH",
"796 293 OFFCURVE",
"721 246 OFFCURVE",
"621 246 CURVE SMOOTH",
"512 246 OFFCURVE",
"459 308 OFFCURVE",
"419 372 CURVE SMOOTH",
"399 404 OFFCURVE",
"382 433 OFFCURVE",
"368 459 CURVE SMOOTH",
"353 485 OFFCURVE",
"334 498 OFFCURVE",
"311 498 CURVE SMOOTH",
"276 498 OFFCURVE",
"250 479 OFFCURVE",
"234 442 CURVE SMOOTH",
"217 404 OFFCURVE",
"204 341 OFFCURVE",
"193 252 CURVE",
"-4 267 LINE",
"4 384 OFFCURVE",
"32 491 OFFCURVE",
"84 567 CURVE SMOOTH",
"136 642 OFFCURVE",
"211 688 OFFCURVE",
"311 688 CURVE SMOOTH",
"420 688 OFFCURVE",
"475 625 OFFCURVE",
"514 562 CURVE SMOOTH",
"533 530 OFFCURVE",
"551 501 OFFCURVE",
"566 475 CURVE SMOOTH",
"581 448 OFFCURVE",
"599 435 OFFCURVE",
"621 435 CURVE SMOOTH"
);
}
);
width = 1118;
}
);
unicode = 007E;
},
{
glyphname = exclamdown;
lastChange = "2013-08-07 13:45:35 +0000";
layers = (
{
layerId = "7B42E6E7-B323-448C-AC07-14628C7F1CBB";
name = Bold;
paths = (
{
closed = 1;
nodes = (
"516 0 LINE",
"567 932 LINE",
"737 932 LINE",
"788 0 LINE"
);
},
{
closed = 1;
nodes = (
"778 1053 LINE",
"526 1053 LINE",
"526 1305 LINE",
"778 1305 LINE"
);
}
);
width = 1118;
}
);
unicode = 00A1;
},
{
glyphname = cent;
lastChange = "2013-08-07 13:45:35 +0000";
layers = (
{
layerId = "7B42E6E7-B323-448C-AC07-14628C7F1CBB";
name = Bold;
paths = (
{
closed = 1;
nodes = (
"-20 910 OFFCURVE",
"126 1087 OFFCURVE",
"373 1130 CURVE",
"373 1305 LINE",
"559 1305 LINE",
"559 1137 LINE",
"684 1125 OFFCURVE",
"793 1086 OFFCURVE",
"897 985 CURVE",
"791 840 LINE",
"734 895 OFFCURVE",
"658 935 OFFCURVE",
"559 948 CURVE",
"559 356 LINE",
"658 371 OFFCURVE",
"734 412 OFFCURVE",
"791 467 CURVE",
"897 322 LINE",
"793 218 OFFCURVE",
"684 179 OFFCURVE",
"559 168 CURVE",
"559 0 LINE",
"373 0 LINE",
"373 176 LINE",
"126 220 OFFCURVE",
"-20 397 OFFCURVE",
"-20 653 CURVE SMOOTH"
);
},
{
closed = 1;
nodes = (
"186 498 OFFCURVE",
"264 408 OFFCURVE",
"373 371 CURVE",
"373 936 LINE",
"264 897 OFFCURVE",
"186 809 OFFCURVE",
"186 653 CURVE SMOOTH"
);
}
);
width = 1118;
}
);
unicode = 00A2;
},
{
glyphname = sterling;
lastChange = "2013-08-07 13:45:35 +0000";
layers = (
{
layerId = "7B42E6E7-B323-448C-AC07-14628C7F1CBB";
name = Bold;
paths = (
{
closed = 1;
nodes = (
"0 745 LINE",
"186 745 LINE",
"186 975 LINE SMOOTH",
"186 1076 OFFCURVE",
"225 1167 OFFCURVE",
"286 1228 CURVE SMOOTH",
"347 1289 OFFCURVE",
"433 1327 OFFCURVE",
"522 1327 CURVE SMOOTH",
"686 1327 OFFCURVE",
"807 1236 OFFCURVE",
"838 1075 CURVE",
"651 1030 LINE",
"631 1104 OFFCURVE",
"588 1141 OFFCURVE",
"522 1141 CURVE SMOOTH",
"446 1141 OFFCURVE",
"393 1095 OFFCURVE",
"393 975 CURVE SMOOTH",
"393 745 LINE",
"580 745 LINE",
"580 559 LINE",
"393 559 LINE",
"393 373 LINE SMOOTH",
"393 285 OFFCURVE",
"356 217 OFFCURVE",
"301 186 CURVE",
"473 186 LINE SMOOTH",
"564 186 OFFCURVE",
"625 196 OFFCURVE",
"674 224 CURVE SMOOTH",
"723 251 OFFCURVE",
"756 296 OFFCURVE",
"795 371 CURVE",
"965 281 LINE",
"877 92 OFFCURVE",
"694 0 OFFCURVE",
"473 0 CURVE SMOOTH",
"0 0 LINE",
"0 186 LINE",
"61 186 LINE SMOOTH",
"108 186 OFFCURVE",
"138 205 OFFCURVE",
"159 231 CURVE SMOOTH",
"179 257 OFFCURVE",
"186 291 OFFCURVE",
"186 322 CURVE SMOOTH",
"186 559 LINE",
"0 559 LINE"
);
}
);
width = 1118;
}
);
unicode = 00A3;
},
{
glyphname = currency;
lastChange = "2013-08-07 13:45:35 +0000";
layers = (
{
layerId = "7B42E6E7-B323-448C-AC07-14628C7F1CBB";
name = Bold;
paths = (
{
closed = 1;
nodes = (
"872 938 LINE",
"924 859 OFFCURVE",
"954 763 OFFCURVE",
"954 651 CURVE SMOOTH",
"954 539 OFFCURVE",
"924 444 OFFCURVE",
"872 365 CURVE",
"991 246 LINE",
"870 125 LINE",
"752 244 LINE",
"674 191 OFFCURVE",
"578 164 OFFCURVE",
"465 164 CURVE SMOOTH",
"352 164 OFFCURVE",
"256 191 OFFCURVE",
"178 244 CURVE",
"59 125 LINE",
"-61 246 LINE",
"57 365 LINE",
"5 444 OFFCURVE",
"-23 539 OFFCURVE",
"-23 651 CURVE SMOOTH",
"-23 760 OFFCURVE",
"4 855 OFFCURVE",
"57 936 CURVE",
"-61 1057 LINE",
"59 1178 LINE",
"178 1059 LINE",
"257 1114 OFFCURVE",
"353 1141 OFFCURVE",
"465 1141 CURVE SMOOTH",
"577 1141 OFFCURVE",
"672 1111 OFFCURVE",
"752 1059 CURVE",
"870 1178 LINE",
"991 1057 LINE"
);
},
{
closed = 1;
nodes = (
"748 736 OFFCURVE",
"721 814 OFFCURVE",
"672 867 CURVE SMOOTH",
"623 920 OFFCURVE",
"552 954 OFFCURVE",
"465 954 CURVE SMOOTH",
"377 954 OFFCURVE",
"307 920 OFFCURVE",
"259 867 CURVE SMOOTH",
"211 814 OFFCURVE",
"184 736 OFFCURVE",
"184 651 CURVE SMOOTH",
"184 564 OFFCURVE",
"211 491 OFFCURVE",
"259 436 CURVE SMOOTH",
"307 381 OFFCURVE",
"377 350 OFFCURVE",
"465 350 CURVE SMOOTH",
"552 350 OFFCURVE",
"623 381 OFFCURVE",
"672 436 CURVE SMOOTH",
"721 491 OFFCURVE",
"748 564 OFFCURVE",
"748 651 CURVE SMOOTH"
);
}
);
width = 1118;
}
);
unicode = 00A4;
},
{
glyphname = yen;
lastChange = "2013-08-07 13:45:35 +0000";
layers = (
{
layerId = "7B42E6E7-B323-448C-AC07-14628C7F1CBB";
name = Bold;
paths = (
{
closed = 1;
nodes = (
"365 559 LINE",
"365 563 LINE",
"281 745 LINE",
"0 745 LINE",
"0 932 LINE",
"197 932 LINE",
"29 1305 LINE",
"244 1305 LINE",
"469 750 LINE",
"692 1305 LINE",
"907 1305 LINE",
"737 932 LINE",
"932 932 LINE",
"932 745 LINE",
"653 745 LINE",
"571 563 LINE",
"571 559 LINE",
"932 559 LINE",
"932 373 LINE",
"571 373 LINE",
"571 0 LINE",
"365 0 LINE",
"365 373 LINE",
"0 373 LINE",
"0 559 LINE"
);
}
);
width = 1118;
}
);
unicode = 00A5;
},
{
glyphname = brokenbar;
lastChange = "2013-08-07 13:45:35 +0000";
layers = (
{
layerId = "7B42E6E7-B323-448C-AC07-14628C7F1CBB";
name = Bold;
paths = (
{
closed = 1;
nodes = (
"569 -186 LINE",
"362 -186 LINE",
"362 578 LINE",
"569 578 LINE"
);
},
{
closed = 1;
nodes = (
"569 727 LINE",
"362 727 LINE",
"362 1491 LINE",
"569 1491 LINE"
);
}
);
width = 1118;
}
);
unicode = 00A6;
},
{
glyphname = section;
lastChange = "2013-08-07 13:45:35 +0000";
layers = (
{
layerId = "7B42E6E7-B323-448C-AC07-14628C7F1CBB";
name = Bold;
paths = (
{
closed = 1;
nodes = (
"68 912 OFFCURVE",
"110 1008 OFFCURVE",
"170 1065 CURVE",
"107 1120 OFFCURVE",
"68 1190 OFFCURVE",
"68 1305 CURVE SMOOTH",
"68 1430 OFFCURVE",
"113 1523 OFFCURVE",
"186 1584 CURVE SMOOTH",
"258 1645 OFFCURVE",
"358 1675 OFFCURVE",
"467 1675 CURVE SMOOTH",
"574 1675 OFFCURVE",
"676 1647 OFFCURVE",
"758 1588 CURVE SMOOTH",
"840 1529 OFFCURVE",
"897 1442 OFFCURVE",
"913 1319 CURVE",
"721 1286 LINE",
"700 1439 OFFCURVE",
"615 1489 OFFCURVE",
"467 1489 CURVE SMOOTH",
"368 1489 OFFCURVE",
"274 1435 OFFCURVE",
"274 1331 CURVE SMOOTH",
"274 1242 OFFCURVE",
"347 1191 OFFCURVE",
"443 1148 CURVE SMOOTH",
"490 1127 OFFCURVE",
"542 1106 OFFCURVE",
"598 1086 CURVE SMOOTH",
"710 1045 OFFCURVE",
"809 989 OFFCURVE",
"874 901 CURVE SMOOTH",
"906 856 OFFCURVE",
"922 799 OFFCURVE",
"922 729 CURVE SMOOTH",
"922 601 OFFCURVE",
"880 523 OFFCURVE",
"817 446 CURVE",
"880 393 OFFCURVE",
"922 317 OFFCURVE",
"922 205 CURVE SMOOTH",
"922 82 OFFCURVE",
"875 -14 OFFCURVE",
"800 -82 CURVE SMOOTH",
"724 -150 OFFCURVE",
"621 -186 OFFCURVE",
"512 -186 CURVE SMOOTH",
"397 -186 OFFCURVE",
"290 -158 OFFCURVE",
"203 -99 CURVE SMOOTH",
"115 -40 OFFCURVE",
"48 50 OFFCURVE",
"20 178 CURVE",
"207 225 LINE",
"246 86 OFFCURVE",
"335 0 OFFCURVE",
"512 0 CURVE SMOOTH",
"621 0 OFFCURVE",
"715 67 OFFCURVE",
"715 184 CURVE SMOOTH",
"715 288 OFFCURVE",
"642 342 OFFCURVE",
"547 383 CURVE SMOOTH",
"499 404 OFFCURVE",
"447 423 OFFCURVE",
"391 442 CURVE SMOOTH",
"279 478 OFFCURVE",
"180 534 OFFCURVE",
"116 627 CURVE SMOOTH",
"84 673 OFFCURVE",
"68 735 OFFCURVE",
"68 813 CURVE SMOOTH"
);
},
{
closed = 1;
nodes = (
"274 750 OFFCURVE",
"326 698 OFFCURVE",
"399 659 CURVE SMOOTH",
"435 639 OFFCURVE",
"476 621 OFFCURVE",
"521 605 CURVE SMOOTH",
"566 588 OFFCURVE",
"610 570 OFFCURVE",
"655 549 CURVE",
"694 584 OFFCURVE",
"715 623 OFFCURVE",
"715 694 CURVE SMOOTH",
"715 785 OFFCURVE",
"665 837 OFFCURVE",
"593 875 CURVE SMOOTH",
"557 894 OFFCURVE",
"517 910 OFFCURVE",
"473 925 CURVE SMOOTH",
"428 939 OFFCURVE",
"383 954 OFFCURVE",
"338 971 CURVE",
"295 932 OFFCURVE",
"274 886 OFFCURVE",
"274 831 CURVE SMOOTH"
);
}
);
width = 1118;
}
);
unicode = 00A7;
},
{
glyphname = dieresis;
lastChange = "2013-08-07 13:45:35 +0000";
layers = (
{
anchors = (
{
name = _top;
position = "{466, 932}";
}
);
layerId = "7B42E6E7-B323-448C-AC07-14628C7F1CBB";
name = Bold;
paths = (
{
closed = 1;
nodes = (
"778 1053 LINE",
"526 1053 LINE",
"526 1305 LINE",
"778 1305 LINE"
);
},
{
closed = 1;
nodes = (
"406 1053 LINE",
"154 1053 LINE",
"154 1305 LINE",
"406 1305 LINE"
);
}
);
width = 1118;
}
);
unicode = 00A8;
},
{
glyphname = copyright;
lastChange = "2013-08-07 13:45:35 +0000";
layers = (
{
layerId = "7B42E6E7-B323-448C-AC07-14628C7F1CBB";
name = Bold;
paths = (
{
closed = 1;
nodes = (
"864 532 LINE",
"800 434 OFFCURVE",
"700 385 OFFCURVE",
"563 385 CURVE SMOOTH",
"456 385 OFFCURVE",
"364 422 OFFCURVE",
"301 487 CURVE SMOOTH",
"238 551 OFFCURVE",
"201 641 OFFCURVE",
"201 748 CURVE SMOOTH",
"201 848 OFFCURVE",
"234 938 OFFCURVE",
"297 1004 CURVE SMOOTH",
"360 1070 OFFCURVE",
"448 1110 OFFCURVE",
"563 1110 CURVE SMOOTH",
"700 1110 OFFCURVE",
"800 1061 OFFCURVE",
"864 963 CURVE",
"723 864 LINE",
"693 919 OFFCURVE",
"640 946 OFFCURVE",
"563 946 CURVE SMOOTH",
"451 946 OFFCURVE",
"385 863 OFFCURVE",
"385 748 CURVE SMOOTH",
"385 633 OFFCURVE",
"448 549 OFFCURVE",
"563 549 CURVE SMOOTH",
"640 549 OFFCURVE",
"693 576 OFFCURVE",
"723 631 CURVE"
);
},
{
closed = 1;
nodes = (
"1118 598 OFFCURVE",
"1059 458 OFFCURVE",
"961 356 CURVE SMOOTH",
"863 254 OFFCURVE",
"722 186 OFFCURVE",
"561 186 CURVE SMOOTH",
"417 186 OFFCURVE",
"276 241 OFFCURVE",
"172 340 CURVE SMOOTH",
"68 439 OFFCURVE",
"0 576 OFFCURVE",
"0 745 CURVE SMOOTH",
"0 898 OFFCURVE",
"63 1040 OFFCURVE",
"164 1141 CURVE SMOOTH",
"265 1242 OFFCURVE",
"405 1305 OFFCURVE",
"561 1305 CURVE SMOOTH",
"712 1305 OFFCURVE",
"848 1246 OFFCURVE",
"951 1145 CURVE SMOOTH",
"1054 1044 OFFCURVE",
"1118 904 OFFCURVE",
"1118 745 CURVE SMOOTH"
);
},
{
closed = 1;
nodes = (
"1053 880 OFFCURVE",
"999 1002 OFFCURVE",
"911 1092 CURVE SMOOTH",
"822 1182 OFFCURVE",
"698 1239 OFFCURVE",
"561 1239 CURVE SMOOTH",
"425 1239 OFFCURVE",
"302 1185 OFFCURVE",
"211 1097 CURVE SMOOTH",
"120 1008 OFFCURVE",
"66 885 OFFCURVE",
"66 745 CURVE SMOOTH",
"66 606 OFFCURVE",
"121 483 OFFCURVE",
"210 395 CURVE SMOOTH",
"298 306 OFFCURVE",
"422 252 OFFCURVE",
"561 252 CURVE SMOOTH",
"696 252 OFFCURVE",
"820 306 OFFCURVE",
"909 395 CURVE SMOOTH",
"997 483 OFFCURVE",
"1053 606 OFFCURVE",
"1053 745 CURVE SMOOTH"
);
}
);
width = 1118;
}
);
unicode = 00A9;
},
{
glyphname = ordfeminine;
lastChange = "2013-08-07 13:45:35 +0000";
layers = (
{
layerId = "7B42E6E7-B323-448C-AC07-14628C7F1CBB";
name = Bold;
paths = (
{
closed = 1;
nodes = (
"-8 873 OFFCURVE",
"42 938 OFFCURVE",
"120 977 CURVE SMOOTH",
"198 1016 OFFCURVE",
"298 1032 OFFCURVE",
"401 1032 CURVE SMOOTH",
"422 1032 OFFCURVE",
"438 1032 OFFCURVE",
"451 1032 CURVE SMOOTH",
"463 1032 OFFCURVE",
"474 1031 OFFCURVE",
"485 1030 CURVE SMOOTH",
"495 1029 OFFCURVE",
"505 1027 OFFCURVE",
"516 1026 CURVE SMOOTH",
"527 1025 OFFCURVE",
"541 1023 OFFCURVE",
"559 1020 CURVE",
"559 1079 LINE SMOOTH",
"559 1144 OFFCURVE",
"490 1176 OFFCURVE",
"389 1176 CURVE SMOOTH",
"293 1176 OFFCURVE",
"186 1155 OFFCURVE",
"98 1106 CURVE",
"35 1235 LINE",
"116 1290 OFFCURVE",
"236 1323 OFFCURVE",
"389 1323 CURVE SMOOTH",
"485 1323 OFFCURVE",
"574 1306 OFFCURVE",
"639 1267 CURVE SMOOTH",
"704 1227 OFFCURVE",
"745 1167 OFFCURVE",
"745 1079 CURVE SMOOTH",
"745 559 LINE",
"559 559 LINE",
"559 668 LINE",
"496 599 OFFCURVE",
"408 541 OFFCURVE",
"268 541 CURVE SMOOTH",
"88 541 OFFCURVE",
"-8 641 OFFCURVE",
"-8 780 CURVE SMOOTH"
);
},
{
closed = 1;
nodes = (
"368 688 OFFCURVE",
"430 705 OFFCURVE",
"478 728 CURVE SMOOTH",
"526 751 OFFCURVE",
"559 784 OFFCURVE",
"559 813 CURVE SMOOTH",
"559 879 LINE",
"488 890 OFFCURVE",
"450 889 OFFCURVE",
"401 889 CURVE SMOOTH",
"247 889 OFFCURVE",
"170 853 OFFCURVE",
"170 780 CURVE SMOOTH",
"170 733 OFFCURVE",
"198 688 OFFCURVE",
"313 688 CURVE SMOOTH"
);
},
{
closed = 1;
nodes = (
"745 199 LINE",
"0 199 LINE",
"0 385 LINE",
"745 385 LINE"
);
}
);
width = 1118;
}
);
unicode = 00AA;
},
{
glyphname = guillemotleft;
lastChange = "2013-08-07 13:45:35 +0000";
layers = (
{
layerId = "7B42E6E7-B323-448C-AC07-14628C7F1CBB";
name = Bold;
paths = (
{
closed = 1;
nodes = (
"457 444 LINE",
"338 324 LINE",
"14 651 LINE",
"338 981 LINE",
"457 860 LINE",
"254 651 LINE"
);
},
{
closed = 1;
nodes = (
"827 444 LINE",
"709 324 LINE",
"385 651 LINE",
"709 981 LINE",
"827 860 LINE",
"625 651 LINE"
);
}
);
width = 1118;
}
);
unicode = 00AB;
},
{
glyphname = logicalnot;
lastChange = "2013-08-07 13:45:35 +0000";
layers = (
{
layerId = "7B42E6E7-B323-448C-AC07-14628C7F1CBB";
name = Bold;
paths = (
{
closed = 1;
nodes = (
"932 13 LINE",
"745 13 LINE",
"745 385 LINE",
"0 385 LINE",
"0 572 LINE",
"932 572 LINE"
);
}
);
width = 1118;
}
);
unicode = 00AC;
},
{
glyphname = uni00AD;
lastChange = "2013-08-07 13:45:35 +0000";
layers = (
{
layerId = "7B42E6E7-B323-448C-AC07-14628C7F1CBB";
name = Bold;
paths = (
{
closed = 1;
nodes = (
"932 385 LINE",
"0 385 LINE",
"0 572 LINE",
"932 572 LINE"
);
}
);
width = 1118;
}
);
},
{
glyphname = registered;
lastChange = "2013-08-07 13:45:35 +0000";
layers = (
{
layerId = "7B42E6E7-B323-448C-AC07-14628C7F1CBB";
name = Bold;
paths = (
{
closed = 1;
nodes = (
"1118 784 OFFCURVE",
"1059 644 OFFCURVE",
"961 542 CURVE SMOOTH",
"863 440 OFFCURVE",
"722 373 OFFCURVE",
"561 373 CURVE SMOOTH",
"417 373 OFFCURVE",
"276 429 OFFCURVE",
"172 527 CURVE SMOOTH",
"68 625 OFFCURVE",
"0 763 OFFCURVE",
"0 932 CURVE SMOOTH",
"0 1085 OFFCURVE",
"63 1226 OFFCURVE",
"164 1327 CURVE SMOOTH",
"265 1428 OFFCURVE",
"405 1491 OFFCURVE",
"561 1491 CURVE SMOOTH",
"712 1491 OFFCURVE",
"848 1432 OFFCURVE",
"951 1331 CURVE SMOOTH",
"1054 1230 OFFCURVE",
"1118 1091 OFFCURVE",
"1118 932 CURVE SMOOTH"
);
},
{
closed = 1;
nodes = (
"1053 1065 OFFCURVE",
"999 1187 OFFCURVE",
"911 1278 CURVE SMOOTH",
"822 1369 OFFCURVE",
"698 1425 OFFCURVE",
"561 1425 CURVE SMOOTH",
"425 1425 OFFCURVE",
"302 1372 OFFCURVE",
"211 1284 CURVE SMOOTH",
"120 1195 OFFCURVE",
"66 1071 OFFCURVE",
"66 932 CURVE SMOOTH",
"66 792 OFFCURVE",
"121 669 OFFCURVE",
"210 581 CURVE SMOOTH",
"298 492 OFFCURVE",
"422 438 OFFCURVE",
"561 438 CURVE SMOOTH",
"696 438 OFFCURVE",
"820 492 OFFCURVE",
"909 581 CURVE SMOOTH",
"997 669 OFFCURVE",
"1053 792 OFFCURVE",
"1053 932 CURVE SMOOTH"
);
},
{
closed = 1;
nodes = (
"866 596 LINE",
"659 596 LINE",
"537 823 LINE",
"502 823 LINE",
"502 596 LINE",
"328 596 LINE",
"328 1272 LINE",
"596 1272 LINE SMOOTH",
"664 1272 OFFCURVE",
"729 1254 OFFCURVE",
"777 1218 CURVE SMOOTH",
"825 1181 OFFCURVE",
"854 1123 OFFCURVE",
"854 1047 CURVE SMOOTH",
"854 940 OFFCURVE",
"822 878 OFFCURVE",
"713 829 CURVE"
);
},
{
closed = 1;
nodes = (
"682 1107 OFFCURVE",
"651 1133 OFFCURVE",
"596 1133 CURVE SMOOTH",
"502 1133 LINE",
"502 965 LINE",
"596 965 LINE SMOOTH",
"651 965 OFFCURVE",
"682 1003 OFFCURVE",
"682 1047 CURVE SMOOTH"
);
}
);
width = 1118;
}
);
unicode = 00AE;
},
{
glyphname = macron;
lastChange = "2013-08-07 13:45:35 +0000";
layers = (
{
anchors = (
{
name = _top;
position = "{465.5, 932}";
}
);
layerId = "7B42E6E7-B323-448C-AC07-14628C7F1CBB";
name = Bold;
paths = (
{
closed = 1;
nodes = (
"745 1044 LINE",
"186 1044 LINE",
"186 1219 LINE",
"745 1219 LINE"
);
}
);
width = 1118;
}
);
unicode = 00AF;
},
{
glyphname = degree;
lastChange = "2013-08-07 13:45:35 +0000";
layers = (
{
layerId = "7B42E6E7-B323-448C-AC07-14628C7F1CBB";
name = Bold;
paths = (
{
closed = 1;
nodes = (
"0 1219 OFFCURVE",
"42 1314 OFFCURVE",
"110 1382 CURVE SMOOTH",
"177 1449 OFFCURVE",
"269 1491 OFFCURVE",
"373 1491 CURVE SMOOTH",
"474 1491 OFFCURVE",
"569 1449 OFFCURVE",
"636 1382 CURVE SMOOTH",
"703 1314 OFFCURVE",
"745 1219 OFFCURVE",
"745 1118 CURVE SMOOTH",
"745 1014 OFFCURVE",
"703 922 OFFCURVE",
"636 855 CURVE SMOOTH",
"569 788 OFFCURVE",
"474 745 OFFCURVE",
"373 745 CURVE SMOOTH",
"269 745 OFFCURVE",
"177 788 OFFCURVE",
"110 855 CURVE SMOOTH",
"42 922 OFFCURVE",
"0 1014 OFFCURVE",
"0 1118 CURVE SMOOTH"
);
},
{
closed = 1;
nodes = (
"141 1053 OFFCURVE",
"168 995 OFFCURVE",
"209 955 CURVE SMOOTH",
"250 914 OFFCURVE",
"308 887 OFFCURVE",
"371 887 CURVE SMOOTH",
"434 887 OFFCURVE",
"492 914 OFFCURVE",
"533 955 CURVE SMOOTH",
"573 995 OFFCURVE",
"600 1053 OFFCURVE",
"600 1116 CURVE SMOOTH",
"600 1179 OFFCURVE",
"573 1237 OFFCURVE",
"533 1278 CURVE SMOOTH",
"492 1319 OFFCURVE",
"434 1346 OFFCURVE",
"371 1346 CURVE SMOOTH",
"308 1346 OFFCURVE",
"250 1319 OFFCURVE",
"209 1278 CURVE SMOOTH",
"168 1237 OFFCURVE",
"141 1179 OFFCURVE",
"141 1116 CURVE SMOOTH"
);
}
);
width = 1118;
}
);
unicode = 00B0;
},
{
glyphname = plusminus;
lastChange = "2013-08-07 13:45:35 +0000";
layers = (
{
layerId = "7B42E6E7-B323-448C-AC07-14628C7F1CBB";
name = Bold;
paths = (
{
closed = 1;
nodes = (
"932 385 LINE",
"559 385 LINE",
"559 62 LINE",
"373 62 LINE",
"373 385 LINE",
"0 385 LINE",
"0 572 LINE",
"373 572 LINE",
"373 944 LINE",
"559 944 LINE",
"559 572 LINE",
"932 572 LINE"
);
},
{
closed = 1;
nodes = (
"932 -186 LINE",
"0 -186 LINE",
"0 0 LINE",
"932 0 LINE"
);
}
);
width = 1118;
}
);
unicode = 00B1;
},
{
glyphname = twosuperior;
lastChange = "2013-08-07 13:45:35 +0000";
layers = (
{
layerId = "7B42E6E7-B323-448C-AC07-14628C7F1CBB";
name = Bold;
paths = (
{
closed = 1;
nodes = (
"449 1092 OFFCURVE",
"422 1043 OFFCURVE",
"381 1006 CURVE SMOOTH",
"242 872 LINE",
"446 872 LINE",
"446 745 LINE",
"43 745 LINE",
"43 872 LINE",
"258 1081 LINE SMOOTH",
"282 1104 OFFCURVE",
"291 1117 OFFCURVE",
"291 1145 CURVE SMOOTH",
"291 1169 OFFCURVE",
"268 1184 OFFCURVE",
"244 1184 CURVE SMOOTH",
"200 1184 OFFCURVE",
"180 1160 OFFCURVE",
"180 1083 CURVE",
"27 1083 LINE",
"27 1238 OFFCURVE",
"99 1315 OFFCURVE",
"244 1315 CURVE SMOOTH",
"293 1315 OFFCURVE",
"344 1301 OFFCURVE",
"384 1274 CURVE SMOOTH",
"424 1246 OFFCURVE",
"449 1206 OFFCURVE",
"449 1149 CURVE SMOOTH"
);
}
);
width = 1118;
}
);
unicode = 00B2;
},
{
glyphname = threesuperior;
lastChange = "2013-08-07 13:45:35 +0000";
layers = (
{
layerId = "7B42E6E7-B323-448C-AC07-14628C7F1CBB";
name = Bold;
paths = (
{
closed = 1;
nodes = (
"449 826 OFFCURVE",
"365 743 OFFCURVE",
"248 743 CURVE SMOOTH",
"113 743 OFFCURVE",
"38 809 OFFCURVE",
"25 940 CURVE",
"176 954 LINE",
"181 898 OFFCURVE",
"205 870 OFFCURVE",
"246 870 CURVE SMOOTH",
"273 870 OFFCURVE",
"295 889 OFFCURVE",
"295 920 CURVE SMOOTH",
"295 971 OFFCURVE",
"268 989 OFFCURVE",
"205 989 CURVE",
"205 1087 LINE",
"258 1087 OFFCURVE",
"285 1106 OFFCURVE",
"285 1143 CURVE SMOOTH",
"285 1170 OFFCURVE",
"270 1184 OFFCURVE",
"240 1184 CURVE SMOOTH",
"209 1184 OFFCURVE",
"186 1157 OFFCURVE",
"186 1102 CURVE",
"37 1102 LINE",
"37 1241 OFFCURVE",
"125 1309 OFFCURVE",
"248 1309 CURVE SMOOTH",
"365 1309 OFFCURVE",
"438 1244 OFFCURVE",
"438 1151 CURVE SMOOTH",
"438 1102 OFFCURVE",
"417 1065 OFFCURVE",
"375 1042 CURVE",
"424 1007 OFFCURVE",
"449 964 OFFCURVE",
"449 915 CURVE SMOOTH"
);
}
);
width = 1118;
}
);
unicode = 00B3;
},
{
glyphname = acute;
lastChange = "2013-08-07 13:45:35 +0000";
layers = (
{
anchors = (
{
name = _top;
position = "{450.5, 932}";
}
);
layerId = "7B42E6E7-B323-448C-AC07-14628C7F1CBB";
name = Bold;
paths = (
{
closed = 1;
nodes = (
"711 1225 LINE",
"279 981 LINE",
"190 1118 LINE",
"594 1405 LINE"
);
}
);
width = 1118;
}
);
unicode = 00B4;
},
{
glyphname = mu;
lastChange = "2013-08-07 13:45:35 +0000";
layers = (
{
layerId = "7B42E6E7-B323-448C-AC07-14628C7F1CBB";
name = Bold;
paths = (
{
closed = 1;
nodes = (
"340 -23 OFFCURVE",
"291 -5 OFFCURVE",
"258 31 CURVE",
"258 -373 LINE",
"49 -373 LINE",
"49 932 LINE",
"258 932 LINE",
"258 354 LINE SMOOTH",
"258 210 OFFCURVE",
"314 164 OFFCURVE",
"418 164 CURVE SMOOTH",
"570 164 OFFCURVE",
"676 293 OFFCURVE",
"676 512 CURVE SMOOTH",
"676 932 LINE",
"883 932 LINE",
"883 0 LINE",
"676 0 LINE",
"676 231 LINE",
"635 71 OFFCURVE",
"521 -23 OFFCURVE",
"406 -23 CURVE SMOOTH"
);
}
);
width = 1118;
}
);
unicode = 03BC;
},
{
glyphname = paragraph;
lastChange = "2013-08-07 13:45:35 +0000";
layers = (
{
layerId = "7B42E6E7-B323-448C-AC07-14628C7F1CBB";
name = Bold;
paths = (
{
closed = 1;
nodes = (
"0 1172 OFFCURVE",
"166 1305 OFFCURVE",
"453 1305 CURVE SMOOTH",
"932 1305 LINE",
"932 0 LINE",
"725 0 LINE",
"725 526 LINE",
"569 526 LINE",
"569 0 LINE",
"362 0 LINE",
"362 532 LINE",
"145 563 OFFCURVE",
"0 688 OFFCURVE",
"0 915 CURVE SMOOTH"
);
},
{
closed = 1;
nodes = (
"569 1118 LINE",
"569 713 LINE",
"725 713 LINE",
"725 1118 LINE"
);
},
{
closed = 1;
nodes = (
"207 818 OFFCURVE",
"265 728 OFFCURVE",
"362 717 CURVE",
"362 1114 LINE",
"314 1109 OFFCURVE",
"275 1084 OFFCURVE",
"248 1048 CURVE SMOOTH",
"220 1011 OFFCURVE",
"207 964 OFFCURVE",
"207 915 CURVE SMOOTH"
);
}
);
width = 1118;
}
);
unicode = 00B6;
},
{
glyphname = periodcentered;
lastChange = "2013-08-07 13:45:35 +0000";
layers = (
{
layerId = "7B42E6E7-B323-448C-AC07-14628C7F1CBB";
name = Bold;
paths = (
{
closed = 1;
nodes = (
"592 352 LINE",
"340 352 LINE",
"340 604 LINE",
"592 604 LINE"
);
}
);
width = 1118;
}
);
unicode = 00B7;
},
{
glyphname = cedilla;
lastChange = "2013-08-07 13:45:35 +0000";
layers = (
{
anchors = (
{
name = _bottom;
position = "{416, 0}";
}
);
layerId = "7B42E6E7-B323-448C-AC07-14628C7F1CBB";
name = Bold;
paths = (
{
closed = 1;
nodes = (
"590 -41 LINE SMOOTH",
"590 -134 OFFCURVE",
"558 -216 OFFCURVE",
"498 -275 CURVE SMOOTH",
"438 -334 OFFCURVE",
"351 -371 OFFCURVE",
"242 -371 CURVE",
"242 -193 LINE",
"359 -193 OFFCURVE",
"414 -137 OFFCURVE",
"414 -41 CURVE SMOOTH",
"414 0 LINE",
"590 0 LINE"
);
}
);
width = 1118;
}
);
unicode = 00B8;
},
{
glyphname = onesuperior;
lastChange = "2013-08-07 13:45:35 +0000";
layers = (
{
layerId = "7B42E6E7-B323-448C-AC07-14628C7F1CBB";
name = Bold;
paths = (
{
closed = 1;
nodes = (
"414 745 LINE",
"76 745 LINE",
"76 872 LINE",
"166 872 LINE",
"166 1106 LINE",
"145 1081 OFFCURVE",
"93 1047 OFFCURVE",
"0 1047 CURVE",
"0 1182 LINE",
"36 1182 OFFCURVE",
"76 1195 OFFCURVE",
"109 1217 CURVE SMOOTH",
"141 1239 OFFCURVE",
"166 1269 OFFCURVE",
"166 1305 CURVE",
"324 1305 LINE",
"324 872 LINE",
"414 872 LINE"
);
}
);
width = 1118;
}
);
unicode = 00B9;
},
{
glyphname = ordmasculine;
lastChange = "2013-08-07 13:45:35 +0000";
layers = (
{
layerId = "7B42E6E7-B323-448C-AC07-14628C7F1CBB";
name = Bold;
paths = (
{
closed = 1;
nodes = (
"764 815 OFFCURVE",
"724 715 OFFCURVE",
"656 647 CURVE SMOOTH",
"587 579 OFFCURVE",
"488 539 OFFCURVE",
"373 539 CURVE SMOOTH",
"258 539 OFFCURVE",
"158 577 OFFCURVE",
"89 645 CURVE SMOOTH",
"20 713 OFFCURVE",
"-20 810 OFFCURVE",
"-20 930 CURVE SMOOTH",
"-20 1047 OFFCURVE",
"20 1148 OFFCURVE",
"89 1217 CURVE SMOOTH",
"158 1285 OFFCURVE",
"258 1325 OFFCURVE",
"373 1325 CURVE SMOOTH",
"488 1325 OFFCURVE",
"587 1285 OFFCURVE",
"656 1217 CURVE SMOOTH",
"724 1148 OFFCURVE",
"764 1047 OFFCURVE",
"764 930 CURVE SMOOTH"
);
},
{
closed = 1;
nodes = (
"588 1082 OFFCURVE",
"501 1174 OFFCURVE",
"373 1174 CURVE SMOOTH",
"244 1174 OFFCURVE",
"156 1082 OFFCURVE",
"156 930 CURVE SMOOTH",
"156 777 OFFCURVE",
"241 690 OFFCURVE",
"373 690 CURVE SMOOTH",
"504 690 OFFCURVE",
"588 777 OFFCURVE",
"588 930 CURVE SMOOTH"
);
},
{
closed = 1;
nodes = (
"745 199 LINE",
"0 199 LINE",
"0 385 LINE",
"745 385 LINE"
);
}
);
width = 1118;
}
);
unicode = 00BA;
},
{
glyphname = guillemotright;
lastChange = "2013-08-07 13:45:35 +0000";
layers = (
{
layerId = "7B42E6E7-B323-448C-AC07-14628C7F1CBB";
name = Bold;
paths = (
{
closed = 1;
nodes = (
"680 651 LINE",
"477 860 LINE",
"596 981 LINE",
"920 651 LINE",
"596 324 LINE",
"477 444 LINE"
);
},
{
closed = 1;
nodes = (
"309 651 LINE",
"106 860 LINE",
"225 981 LINE",
"549 651 LINE",
"225 324 LINE",
"106 444 LINE"
);
}
);
width = 1118;
}
);
unicode = 00BB;
},
{
glyphname = onequarter;
lastChange = "2013-08-07 13:45:35 +0000";
layers = (
{
layerId = "7B42E6E7-B323-448C-AC07-14628C7F1CBB";
name = Bold;
paths = (
{
closed = 1;
nodes = (
"954 1257 LINE",
"119 -41 LINE",
"-18 47 LINE",
"819 1350 LINE"
);
},
{
closed = 1;
nodes = (
"414 745 LINE",
"76 745 LINE",
"76 872 LINE",
"166 872 LINE",
"166 1106 LINE",
"145 1081 OFFCURVE",
"93 1047 OFFCURVE",
"0 1047 CURVE",
"0 1182 LINE",
"36 1182 OFFCURVE",
"76 1195 OFFCURVE",
"109 1217 CURVE SMOOTH",
"141 1239 OFFCURVE",
"166 1269 OFFCURVE",
"166 1305 CURVE",
"324 1305 LINE",
"324 872 LINE",
"414 872 LINE"
);
},
{
closed = 1;
nodes = (
"852 0 LINE",
"696 0 LINE",
"696 113 LINE",
"498 113 LINE",
"498 264 LINE",
"711 559 LINE",
"852 559 LINE",
"852 242 LINE",
"942 242 LINE",
"942 113 LINE",
"852 113 LINE"
);
},
{
closed = 1;
nodes = (
"696 242 LINE",
"696 346 LINE",
"616 242 LINE"
);
}
);
width = 1118;
}
);
unicode = 00BC;
},
{
glyphname = onehalf;
lastChange = "2013-08-07 13:45:35 +0000";
layers = (
{
layerId = "7B42E6E7-B323-448C-AC07-14628C7F1CBB";
name = Bold;
paths = (
{
closed = 1;
nodes = (
"944 346 OFFCURVE",
"917 299 OFFCURVE",
"877 260 CURVE SMOOTH",
"737 127 LINE",
"942 127 LINE",
"942 0 LINE",
"539 0 LINE",
"539 127 LINE",
"754 336 LINE",
"778 357 OFFCURVE",
"786 372 OFFCURVE",
"786 399 CURVE SMOOTH",
"786 424 OFFCURVE",
"764 438 OFFCURVE",
"739 438 CURVE SMOOTH",
"696 438 OFFCURVE",
"676 414 OFFCURVE",
"676 338 CURVE",
"522 338 LINE",
"522 492 OFFCURVE",
"594 569 OFFCURVE",
"739 569 CURVE SMOOTH",
"788 569 OFFCURVE",
"840 556 OFFCURVE",
"880 529 CURVE SMOOTH",
"919 501 OFFCURVE",
"944 460 OFFCURVE",
"944 403 CURVE SMOOTH"
);
},
{
closed = 1;
nodes = (
"954 1257 LINE",
"119 -41 LINE",
"-18 47 LINE",
"819 1350 LINE"
);
},
{
closed = 1;
nodes = (
"414 745 LINE",
"76 745 LINE",
"76 872 LINE",
"166 872 LINE",
"166 1106 LINE",
"145 1081 OFFCURVE",
"93 1047 OFFCURVE",
"0 1047 CURVE",
"0 1182 LINE",
"36 1182 OFFCURVE",
"76 1195 OFFCURVE",
"109 1217 CURVE SMOOTH",
"141 1239 OFFCURVE",
"166 1269 OFFCURVE",
"166 1305 CURVE",
"324 1305 LINE",
"324 872 LINE",
"414 872 LINE"
);
}
);
width = 1118;
}
);
unicode = 00BD;
},
{
glyphname = threequarters;
lastChange = "2013-08-07 13:45:35 +0000";
layers = (
{
layerId = "7B42E6E7-B323-448C-AC07-14628C7F1CBB";
name = Bold;
paths = (
{
closed = 1;
nodes = (
"449 826 OFFCURVE",
"365 743 OFFCURVE",
"248 743 CURVE SMOOTH",
"113 743 OFFCURVE",
"38 809 OFFCURVE",
"25 940 CURVE",
"176 954 LINE",
"181 898 OFFCURVE",
"205 870 OFFCURVE",
"246 870 CURVE SMOOTH",
"273 870 OFFCURVE",
"295 889 OFFCURVE",
"295 920 CURVE SMOOTH",
"295 971 OFFCURVE",
"268 989 OFFCURVE",
"205 989 CURVE",
"205 1087 LINE",
"258 1087 OFFCURVE",
"285 1106 OFFCURVE",
"285 1143 CURVE SMOOTH",
"285 1170 OFFCURVE",
"270 1184 OFFCURVE",
"240 1184 CURVE SMOOTH",
"209 1184 OFFCURVE",
"186 1157 OFFCURVE",
"186 1102 CURVE",
"37 1102 LINE",
"37 1241 OFFCURVE",
"125 1309 OFFCURVE",
"248 1309 CURVE SMOOTH",
"365 1309 OFFCURVE",
"438 1244 OFFCURVE",
"438 1151 CURVE SMOOTH",
"438 1102 OFFCURVE",
"417 1065 OFFCURVE",
"375 1042 CURVE",
"424 1007 OFFCURVE",
"449 964 OFFCURVE",
"449 915 CURVE SMOOTH"
);
},
{
closed = 1;
nodes = (
"852 0 LINE",
"696 0 LINE",
"696 113 LINE",
"498 113 LINE",
"498 264 LINE",
"711 559 LINE",
"852 559 LINE",
"852 242 LINE",
"942 242 LINE",
"942 113 LINE",
"852 113 LINE"
);
},
{
closed = 1;
nodes = (
"696 242 LINE",
"696 346 LINE",
"616 242 LINE"
);
},
{
closed = 1;
nodes = (
"954 1257 LINE",
"119 -41 LINE",
"-18 47 LINE",
"819 1350 LINE"
);
}
);
width = 1118;
}
);
unicode = 00BE;
},
{
glyphname = questiondown;
lastChange = "2013-08-07 13:45:35 +0000";
layers = (
{
layerId = "7B42E6E7-B323-448C-AC07-14628C7F1CBB";
name = Bold;
paths = (
{
closed = 1;
nodes = (
"209 400 OFFCURVE",
"249 469 OFFCURVE",
"301 533 CURVE SMOOTH",
"327 564 OFFCURVE",
"356 594 OFFCURVE",
"387 622 CURVE SMOOTH",
"450 678 OFFCURVE",
"503 736 OFFCURVE",
"539 808 CURVE SMOOTH",
"556 844 OFFCURVE",
"565 885 OFFCURVE",
"565 932 CURVE",
"778 932 LINE",
"778 820 OFFCURVE",
"739 739 OFFCURVE",
"684 669 CURVE SMOOTH",
"657 634 OFFCURVE",
"628 601 OFFCURVE",
"597 572 CURVE SMOOTH",
"536 513 OFFCURVE",
"478 457 OFFCURVE",
"443 397 CURVE SMOOTH",
"425 367 OFFCURVE",
"416 334 OFFCURVE",
"416 299 CURVE SMOOTH",
"416 211 OFFCURVE",
"472 164 OFFCURVE",
"559 164 CURVE SMOOTH",
"690 164 OFFCURVE",
"745 240 OFFCURVE",
"758 369 CURVE",
"950 340 LINE",
"926 116 OFFCURVE",
"796 -23 OFFCURVE",
"561 -23 CURVE SMOOTH",
"340 -23 OFFCURVE",
"209 105 OFFCURVE",
"209 301 CURVE SMOOTH"
);
},
{
closed = 1;
nodes = (
"526 1305 LINE",
"778 1305 LINE",
"778 1053 LINE",
"526 1053 LINE"
);
}
);
width = 1118;
}
);
unicode = 00BF;
},
{
glyphname = Agrave;
lastChange = "2013-08-07 13:45:35 +0000";
layers = (
{
layerId = "7B42E6E7-B323-448C-AC07-14628C7F1CBB";
name = Bold;
paths = (
{
closed = 1;
nodes = (
"776 0 LINE",
"682 311 LINE",
"250 311 LINE",
"158 0 LINE",
"-59 0 LINE",
"348 1305 LINE",
"586 1305 LINE",
"993 0 LINE"
);
},
{
closed = 1;
nodes = (
"305 494 LINE",
"627 494 LINE",
"467 1032 LINE"
);
},
{
closed = 1;
nodes = (
"344 1776 LINE",
"748 1489 LINE",
"659 1352 LINE",
"227 1596 LINE"
);
}
);
width = 1118;
}
);
unicode = 00C0;
},
{
glyphname = Aacute;
lastChange = "2013-08-07 13:45:35 +0000";
layers = (
{
layerId = "7B42E6E7-B323-448C-AC07-14628C7F1CBB";
name = Bold;
paths = (
{
closed = 1;
nodes = (
"776 0 LINE",
"682 311 LINE",
"250 311 LINE",
"158 0 LINE",
"-59 0 LINE",
"348 1305 LINE",
"586 1305 LINE",
"993 0 LINE"
);
},
{
closed = 1;
nodes = (
"305 494 LINE",
"627 494 LINE",
"467 1032 LINE"
);
},
{
closed = 1;
nodes = (
"711 1596 LINE",
"279 1352 LINE",
"190 1489 LINE",
"594 1776 LINE"
);
}
);
width = 1118;
}
);
unicode = 00C1;
},
{
glyphname = Acircumflex;
lastChange = "2013-08-07 13:45:35 +0000";
layers = (
{
layerId = "7B42E6E7-B323-448C-AC07-14628C7F1CBB";
name = Bold;
paths = (
{
closed = 1;
nodes = (
"776 0 LINE",
"682 311 LINE",
"250 311 LINE",
"158 0 LINE",
"-59 0 LINE",
"348 1305 LINE",
"586 1305 LINE",
"993 0 LINE"
);
},
{
closed = 1;
nodes = (
"305 494 LINE",
"627 494 LINE",
"467 1032 LINE"
);
},
{
closed = 1;
nodes = (
"791 1456 LINE",
"711 1354 LINE",
"469 1559 LINE",
"223 1352 LINE",
"143 1452 LINE",
"467 1770 LINE"
);
}
);
width = 1118;
}
);
unicode = 00C2;
},
{
glyphname = Atilde;
lastChange = "2013-08-07 13:45:35 +0000";
layers = (
{
layerId = "7B42E6E7-B323-448C-AC07-14628C7F1CBB";
name = Bold;
paths = (
{
closed = 1;
nodes = (
"776 0 LINE",
"682 311 LINE",
"250 311 LINE",
"158 0 LINE",
"-59 0 LINE",
"348 1305 LINE",
"586 1305 LINE",
"993 0 LINE"
);
},
{
closed = 1;
nodes = (
"305 494 LINE",
"627 494 LINE",
"467 1032 LINE"
);
},
{
closed = 1;
nodes = (
"874 1616 LINE",
"811 1488 OFFCURVE",
"723 1411 OFFCURVE",
"600 1411 CURVE SMOOTH",
"535 1411 OFFCURVE",
"491 1441 OFFCURVE",
"451 1470 CURVE SMOOTH",
"410 1498 OFFCURVE",
"372 1528 OFFCURVE",
"324 1528 CURVE SMOOTH",
"255 1528 OFFCURVE",
"214 1484 OFFCURVE",
"170 1409 CURVE",
"49 1479 LINE",
"112 1604 OFFCURVE",
"200 1682 OFFCURVE",
"324 1682 CURVE SMOOTH",
"389 1682 OFFCURVE",
"432 1652 OFFCURVE",
"473 1624 CURVE SMOOTH",
"514 1595 OFFCURVE",
"551 1565 OFFCURVE",
"600 1565 CURVE SMOOTH",
"668 1565 OFFCURVE",
"710 1609 OFFCURVE",
"754 1686 CURVE"
);
}
);
width = 1118;
}
);
unicode = 00C3;
},
{
glyphname = Adieresis;
lastChange = "2013-08-07 13:45:35 +0000";
layers = (
{
layerId = "7B42E6E7-B323-448C-AC07-14628C7F1CBB";
name = Bold;
paths = (
{
closed = 1;
nodes = (
"776 0 LINE",
"682 311 LINE",
"250 311 LINE",
"158 0 LINE",
"-59 0 LINE",
"348 1305 LINE",
"586 1305 LINE",
"993 0 LINE"
);
},
{
closed = 1;
nodes = (
"305 494 LINE",
"627 494 LINE",
"467 1032 LINE"
);
},
{
closed = 1;
nodes = (
"778 1424 LINE",
"526 1424 LINE",
"526 1676 LINE",
"778 1676 LINE"
);
},
{
closed = 1;
nodes = (
"406 1424 LINE",
"154 1424 LINE",
"154 1676 LINE",
"406 1676 LINE"
);
}
);
width = 1118;
}
);
unicode = 00C4;
},
{
glyphname = Aring;
lastChange = "2013-08-07 13:45:35 +0000";
layers = (
{
layerId = "7B42E6E7-B323-448C-AC07-14628C7F1CBB";
name = Bold;
paths = (
{
closed = 1;
nodes = (
"242 1513 OFFCURVE",
"266 1569 OFFCURVE",
"307 1610 CURVE SMOOTH",
"348 1650 OFFCURVE",
"404 1675 OFFCURVE",
"467 1675 CURVE SMOOTH",
"530 1675 OFFCURVE",
"586 1650 OFFCURVE",
"627 1610 CURVE SMOOTH",
"667 1569 OFFCURVE",
"692 1513 OFFCURVE",
"692 1450 CURVE SMOOTH",
"692 1374 OFFCURVE",
"655 1306 OFFCURVE",
"598 1266 CURVE",
"993 0 LINE",
"776 0 LINE",
"682 311 LINE",
"250 311 LINE",
"158 0 LINE",
"-59 0 LINE",
"336 1266 LINE",
"279 1306 OFFCURVE",
"242 1374 OFFCURVE",
"242 1450 CURVE SMOOTH"
);
},
{
closed = 1;
nodes = (
"305 494 LINE",
"627 494 LINE",
"467 1032 LINE"
);
},
{
closed = 1;
nodes = (
"375 1398 OFFCURVE",
"415 1358 OFFCURVE",
"467 1358 CURVE SMOOTH",
"519 1358 OFFCURVE",
"559 1398 OFFCURVE",
"559 1450 CURVE SMOOTH",
"559 1502 OFFCURVE",
"519 1542 OFFCURVE",
"467 1542 CURVE SMOOTH",
"415 1542 OFFCURVE",
"375 1502 OFFCURVE",
"375 1450 CURVE SMOOTH"
);
}
);
width = 1118;
}
);
unicode = 00C5;
},
{
glyphname = AE;
lastChange = "2013-08-07 13:45:35 +0000";
layers = (
{
anchors = (
{
name = top;
position = "{559, 1305}";
}
);
layerId = "7B42E6E7-B323-448C-AC07-14628C7F1CBB";
name = Bold;
paths = (
{
closed = 1;
nodes = (
"395 0 LINE",
"395 311 LINE",
"225 311 LINE",
"150 0 LINE",
"-63 0 LINE",
"301 1305 LINE",
"932 1305 LINE",
"932 1118 LINE",
"602 1118 LINE",
"602 758 LINE",
"883 758 LINE",
"883 571 LINE",
"602 571 LINE",
"602 186 LINE",
"932 186 LINE",
"932 0 LINE"
);
},
{
closed = 1;
nodes = (
"268 494 LINE",
"395 494 LINE",
"395 1010 LINE"
);
}
);
width = 1118;
}
);
unicode = 00C6;
},
{
glyphname = Ccedilla;
lastChange = "2013-08-07 13:45:35 +0000";
layers = (
{
layerId = "7B42E6E7-B323-448C-AC07-14628C7F1CBB";
name = Bold;
paths = (
{
closed = 1;
nodes = (
"952 399 LINE",
"895 182 OFFCURVE",
"783 25 OFFCURVE",
"590 -12 CURVE",
"590 -41 LINE SMOOTH",
"590 -134 OFFCURVE",
"558 -216 OFFCURVE",
"498 -275 CURVE SMOOTH",
"438 -334 OFFCURVE",
"351 -371 OFFCURVE",
"242 -371 CURVE",
"242 -193 LINE",
"359 -193 OFFCURVE",
"414 -137 OFFCURVE",
"414 -41 CURVE SMOOTH",
"414 -18 LINE",
"255 1 OFFCURVE",
"148 86 OFFCURVE",
"79 209 CURVE SMOOTH",
"10 332 OFFCURVE",
"-20 489 OFFCURVE",
"-20 653 CURVE SMOOTH",
"-20 828 OFFCURVE",
"13 997 OFFCURVE",
"93 1121 CURVE SMOOTH",
"172 1245 OFFCURVE",
"292 1327 OFFCURVE",
"469 1327 CURVE SMOOTH",
"526 1327 OFFCURVE",
"587 1313 OFFCURVE",
"638 1283 CURVE SMOOTH",
"689 1253 OFFCURVE",
"729 1208 OFFCURVE",
"745 1151 CURVE",
"745 1305 LINE",
"932 1305 LINE",
"932 811 LINE",
"745 811 LINE",
"745 892 OFFCURVE",
"726 976 OFFCURVE",
"682 1037 CURVE SMOOTH",
"638 1098 OFFCURVE",
"572 1141 OFFCURVE",
"481 1141 CURVE SMOOTH",
"364 1141 OFFCURVE",
"292 1078 OFFCURVE",
"247 985 CURVE SMOOTH",
"202 892 OFFCURVE",
"186 770 OFFCURVE",
"186 653 CURVE SMOOTH",
"186 536 OFFCURVE",
"202 412 OFFCURVE",
"246 320 CURVE SMOOTH",
"290 227 OFFCURVE",
"364 164 OFFCURVE",
"481 164 CURVE SMOOTH",
"650 164 OFFCURVE",
"731 280 OFFCURVE",
"786 463 CURVE"
);
}
);
width = 1118;
}
);
unicode = 00C7;
},
{
glyphname = Egrave;
lastChange = "2013-08-07 13:45:35 +0000";
layers = (
{
layerId = "7B42E6E7-B323-448C-AC07-14628C7F1CBB";
name = Bold;
paths = (
{
closed = 1;
nodes = (
"883 0 LINE",
"49 0 LINE",
"49 1305 LINE",
"883 1305 LINE",
"883 1118 LINE",
"256 1118 LINE",
"256 758 LINE",
"745 758 LINE",
"745 571 LINE",
"256 571 LINE",
"256 186 LINE",
"883 186 LINE"
);
},
{
closed = 1;
nodes = (
"344 1776 LINE",
"748 1489 LINE",
"659 1352 LINE",
"227 1596 LINE"
);
}
);
width = 1118;
}
);
unicode = 00C8;
},
{
glyphname = Eacute;
lastChange = "2013-08-07 13:45:35 +0000";
layers = (
{
layerId = "7B42E6E7-B323-448C-AC07-14628C7F1CBB";
name = Bold;
paths = (
{
closed = 1;
nodes = (
"883 0 LINE",
"49 0 LINE",
"49 1305 LINE",
"883 1305 LINE",
"883 1118 LINE",
"256 1118 LINE",
"256 758 LINE",
"745 758 LINE",
"745 571 LINE",
"256 571 LINE",
"256 186 LINE",
"883 186 LINE"
);
},
{
closed = 1;
nodes = (
"711 1596 LINE",
"279 1352 LINE",
"190 1489 LINE",
"594 1776 LINE"
);
}
);
width = 1118;
}
);
unicode = 00C9;
},
{
glyphname = Ecircumflex;
lastChange = "2013-08-07 13:45:35 +0000";
layers = (
{
layerId = "7B42E6E7-B323-448C-AC07-14628C7F1CBB";
name = Bold;
paths = (
{
closed = 1;
nodes = (
"883 0 LINE",
"49 0 LINE",
"49 1305 LINE",
"883 1305 LINE",
"883 1118 LINE",
"256 1118 LINE",
"256 758 LINE",
"745 758 LINE",
"745 571 LINE",
"256 571 LINE",
"256 186 LINE",
"883 186 LINE"
);
},
{
closed = 1;
nodes = (
"791 1456 LINE",
"711 1354 LINE",
"469 1559 LINE",
"223 1352 LINE",
"143 1452 LINE",
"467 1770 LINE"
);
}
);
width = 1118;
}
);
unicode = 00CA;
},
{
glyphname = Edieresis;
lastChange = "2013-08-07 13:45:35 +0000";
layers = (
{
layerId = "7B42E6E7-B323-448C-AC07-14628C7F1CBB";
name = Bold;
paths = (
{
closed = 1;
nodes = (
"883 0 LINE",
"49 0 LINE",
"49 1305 LINE",
"883 1305 LINE",
"883 1118 LINE",
"256 1118 LINE",
"256 758 LINE",
"745 758 LINE",
"745 571 LINE",
"256 571 LINE",
"256 186 LINE",
"883 186 LINE"
);
},
{
closed = 1;
nodes = (
"778 1424 LINE",
"526 1424 LINE",
"526 1676 LINE",
"778 1676 LINE"
);
},
{
closed = 1;
nodes = (
"406 1424 LINE",
"154 1424 LINE",
"154 1676 LINE",
"406 1676 LINE"
);
}
);
width = 1118;
}
);
unicode = 00CB;
},
{
glyphname = Igrave;
lastChange = "2013-08-07 13:45:35 +0000";
layers = (
{
layerId = "7B42E6E7-B323-448C-AC07-14628C7F1CBB";
name = Bold;
paths = (
{
closed = 1;
nodes = (
"782 0 LINE",
"156 0 LINE",
"156 186 LINE",
"362 186 LINE",
"362 1118 LINE",
"156 1118 LINE",
"156 1305 LINE",
"782 1305 LINE",
"782 1118 LINE",
"569 1118 LINE",
"569 186 LINE",
"782 186 LINE"
);
},
{
closed = 1;
nodes = (
"344 1776 LINE",
"748 1489 LINE",
"659 1352 LINE",
"227 1596 LINE"
);
}
);
width = 1118;
}
);
unicode = 00CC;
},
{
glyphname = Iacute;
lastChange = "2013-08-07 13:45:35 +0000";
layers = (
{
layerId = "7B42E6E7-B323-448C-AC07-14628C7F1CBB";
name = Bold;
paths = (
{
closed = 1;
nodes = (
"782 0 LINE",
"156 0 LINE",
"156 186 LINE",
"362 186 LINE",
"362 1118 LINE",
"156 1118 LINE",
"156 1305 LINE",
"782 1305 LINE",
"782 1118 LINE",
"569 1118 LINE",
"569 186 LINE",
"782 186 LINE"
);
},
{
closed = 1;
nodes = (
"711 1596 LINE",
"279 1352 LINE",
"190 1489 LINE",
"594 1776 LINE"
);
}
);
width = 1118;
}
);
unicode = 00CD;
},
{
glyphname = Icircumflex;
lastChange = "2013-08-07 13:45:35 +0000";
layers = (
{
layerId = "7B42E6E7-B323-448C-AC07-14628C7F1CBB";
name = Bold;
paths = (
{
closed = 1;
nodes = (
"782 0 LINE",
"156 0 LINE",
"156 186 LINE",
"362 186 LINE",
"362 1118 LINE",
"156 1118 LINE",
"156 1305 LINE",
"782 1305 LINE",
"782 1118 LINE",
"569 1118 LINE",
"569 186 LINE",
"782 186 LINE"
);
},
{
closed = 1;
nodes = (
"791 1456 LINE",
"711 1354 LINE",
"469 1559 LINE",
"223 1352 LINE",
"143 1452 LINE",
"467 1770 LINE"
);
}
);
width = 1118;
}
);
unicode = 00CE;
},
{
glyphname = Idieresis;
lastChange = "2013-08-07 13:45:35 +0000";
layers = (
{
layerId = "7B42E6E7-B323-448C-AC07-14628C7F1CBB";
name = Bold;
paths = (
{
closed = 1;
nodes = (
"782 0 LINE",
"156 0 LINE",
"156 186 LINE",
"362 186 LINE",
"362 1118 LINE",
"156 1118 LINE",
"156 1305 LINE",
"782 1305 LINE",
"782 1118 LINE",
"569 1118 LINE",
"569 186 LINE",
"782 186 LINE"
);
},
{
closed = 1;
nodes = (
"778 1424 LINE",
"526 1424 LINE",
"526 1676 LINE",
"778 1676 LINE"
);
},
{
closed = 1;
nodes = (
"406 1424 LINE",
"154 1424 LINE",
"154 1676 LINE",
"406 1676 LINE"
);
}
);
width = 1118;
}
);
unicode = 00CF;
},
{
glyphname = Eth;
lastChange = "2013-08-07 13:45:35 +0000";
layers = (
{
layerId = "7B42E6E7-B323-448C-AC07-14628C7F1CBB";
name = Bold;
paths = (
{
closed = 1;
nodes = (
"-117 758 LINE",
"49 758 LINE",
"49 1305 LINE",
"473 1305 LINE SMOOTH",
"650 1305 OFFCURVE",
"777 1228 OFFCURVE",
"858 1109 CURVE SMOOTH",
"938 990 OFFCURVE",
"975 828 OFFCURVE",
"975 653 CURVE SMOOTH",
"975 478 OFFCURVE",
"940 315 OFFCURVE",
"860 196 CURVE SMOOTH",
"779 76 OFFCURVE",
"653 0 OFFCURVE",
"473 0 CURVE SMOOTH",
"49 0 LINE",
"49 571 LINE",
"-117 571 LINE"
);
},
{
closed = 1;
nodes = (
"768 954 OFFCURVE",
"661 1118 OFFCURVE",
"473 1118 CURVE SMOOTH",
"256 1118 LINE",
"256 758 LINE",
"440 758 LINE",
"440 571 LINE",
"256 571 LINE",
"256 186 LINE",
"473 186 LINE SMOOTH",
"661 186 OFFCURVE",
"768 356 OFFCURVE",
"768 653 CURVE SMOOTH"
);
}
);
width = 1118;
}
);
unicode = 00D0;
},
{
glyphname = Ntilde;
lastChange = "2013-08-07 13:45:35 +0000";
layers = (
{
layerId = "7B42E6E7-B323-448C-AC07-14628C7F1CBB";
name = Bold;
paths = (
{
closed = 1;
nodes = (
"883 0 LINE",
"643 0 LINE",
"256 946 LINE",
"256 0 LINE",
"49 0 LINE",
"49 1305 LINE",
"309 1305 LINE",
"676 406 LINE",
"676 1305 LINE",
"883 1305 LINE"
);
},
{
closed = 1;
nodes = (
"874 1616 LINE",
"811 1488 OFFCURVE",
"723 1411 OFFCURVE",
"600 1411 CURVE SMOOTH",
"535 1411 OFFCURVE",
"491 1441 OFFCURVE",
"451 1470 CURVE SMOOTH",
"410 1498 OFFCURVE",
"372 1528 OFFCURVE",
"324 1528 CURVE SMOOTH",
"255 1528 OFFCURVE",
"214 1484 OFFCURVE",
"170 1409 CURVE",
"49 1479 LINE",
"112 1604 OFFCURVE",
"200 1682 OFFCURVE",
"324 1682 CURVE SMOOTH",
"389 1682 OFFCURVE",
"432 1652 OFFCURVE",
"473 1624 CURVE SMOOTH",
"514 1595 OFFCURVE",
"551 1565 OFFCURVE",
"600 1565 CURVE SMOOTH",
"668 1565 OFFCURVE",
"710 1609 OFFCURVE",
"754 1686 CURVE"
);
}
);
width = 1118;
}
);
unicode = 00D1;
},
{
glyphname = Ograve;
lastChange = "2013-08-07 13:45:35 +0000";
layers = (
{
layerId = "7B42E6E7-B323-448C-AC07-14628C7F1CBB";
name = Bold;
paths = (
{
closed = 1;
nodes = (
"-33 828 OFFCURVE",
"3 997 OFFCURVE",
"82 1121 CURVE SMOOTH",
"161 1245 OFFCURVE",
"287 1327 OFFCURVE",
"467 1327 CURVE SMOOTH",
"647 1327 OFFCURVE",
"773 1245 OFFCURVE",
"853 1121 CURVE SMOOTH",
"933 997 OFFCURVE",
"967 828 OFFCURVE",
"967 653 CURVE SMOOTH",
"967 478 OFFCURVE",
"933 311 OFFCURVE",
"854 185 CURVE SMOOTH",
"775 59 OFFCURVE",
"650 -23 OFFCURVE",
"467 -23 CURVE SMOOTH",
"284 -23 OFFCURVE",
"159 59 OFFCURVE",
"80 185 CURVE SMOOTH",
"0 311 OFFCURVE",
"-33 478 OFFCURVE",
"-33 653 CURVE SMOOTH"
);
},
{
closed = 1;
nodes = (
"174 536 OFFCURVE",
"190 412 OFFCURVE",
"234 320 CURVE SMOOTH",
"277 227 OFFCURVE",
"350 164 OFFCURVE",
"467 164 CURVE SMOOTH",
"584 164 OFFCURVE",
"657 227 OFFCURVE",
"701 320 CURVE SMOOTH",
"744 412 OFFCURVE",
"760 536 OFFCURVE",
"760 653 CURVE SMOOTH",
"760 770 OFFCURVE",
"744 892 OFFCURVE",
"701 985 CURVE SMOOTH",
"657 1078 OFFCURVE",
"582 1141 OFFCURVE",
"467 1141 CURVE SMOOTH",
"276 1141 OFFCURVE",
"174 960 OFFCURVE",
"174 653 CURVE SMOOTH"
);
},
{
closed = 1;
nodes = (
"344 1776 LINE",
"748 1489 LINE",
"659 1352 LINE",
"227 1596 LINE"
);
}
);
width = 1118;
}
);
unicode = 00D2;
},
{
glyphname = Oacute;
lastChange = "2013-08-07 13:45:35 +0000";
layers = (
{
layerId = "7B42E6E7-B323-448C-AC07-14628C7F1CBB";
name = Bold;
paths = (
{
closed = 1;
nodes = (
"-33 828 OFFCURVE",
"3 997 OFFCURVE",
"82 1121 CURVE SMOOTH",
"161 1245 OFFCURVE",
"287 1327 OFFCURVE",
"467 1327 CURVE SMOOTH",
"647 1327 OFFCURVE",
"773 1245 OFFCURVE",
"853 1121 CURVE SMOOTH",
"933 997 OFFCURVE",
"967 828 OFFCURVE",
"967 653 CURVE SMOOTH",
"967 478 OFFCURVE",
"933 311 OFFCURVE",
"854 185 CURVE SMOOTH",
"775 59 OFFCURVE",
"650 -23 OFFCURVE",
"467 -23 CURVE SMOOTH",
"284 -23 OFFCURVE",
"159 59 OFFCURVE",
"80 185 CURVE SMOOTH",
"0 311 OFFCURVE",
"-33 478 OFFCURVE",
"-33 653 CURVE SMOOTH"
);
},
{
closed = 1;
nodes = (
"174 536 OFFCURVE",
"190 412 OFFCURVE",
"234 320 CURVE SMOOTH",
"277 227 OFFCURVE",
"350 164 OFFCURVE",
"467 164 CURVE SMOOTH",
"584 164 OFFCURVE",
"657 227 OFFCURVE",
"701 320 CURVE SMOOTH",
"744 412 OFFCURVE",
"760 536 OFFCURVE",
"760 653 CURVE SMOOTH",
"760 770 OFFCURVE",
"744 892 OFFCURVE",
"701 985 CURVE SMOOTH",
"657 1078 OFFCURVE",
"582 1141 OFFCURVE",
"467 1141 CURVE SMOOTH",
"276 1141 OFFCURVE",
"174 960 OFFCURVE",
"174 653 CURVE SMOOTH"
);
},
{
closed = 1;
nodes = (
"711 1596 LINE",
"279 1352 LINE",
"190 1489 LINE",
"594 1776 LINE"
);
}
);
width = 1118;
}
);
unicode = 00D3;
},
{
glyphname = Ocircumflex;
lastChange = "2013-08-07 13:45:35 +0000";
layers = (
{
layerId = "7B42E6E7-B323-448C-AC07-14628C7F1CBB";
name = Bold;
paths = (
{
closed = 1;
nodes = (
"-33 828 OFFCURVE",
"3 997 OFFCURVE",
"82 1121 CURVE SMOOTH",
"161 1245 OFFCURVE",
"287 1327 OFFCURVE",
"467 1327 CURVE SMOOTH",
"647 1327 OFFCURVE",
"773 1245 OFFCURVE",
"853 1121 CURVE SMOOTH",
"933 997 OFFCURVE",
"967 828 OFFCURVE",
"967 653 CURVE SMOOTH",
"967 478 OFFCURVE",
"933 311 OFFCURVE",
"854 185 CURVE SMOOTH",
"775 59 OFFCURVE",
"650 -23 OFFCURVE",
"467 -23 CURVE SMOOTH",
"284 -23 OFFCURVE",
"159 59 OFFCURVE",
"80 185 CURVE SMOOTH",
"0 311 OFFCURVE",
"-33 478 OFFCURVE",
"-33 653 CURVE SMOOTH"
);
},
{
closed = 1;
nodes = (
"174 536 OFFCURVE",
"190 412 OFFCURVE",
"234 320 CURVE SMOOTH",
"277 227 OFFCURVE",
"350 164 OFFCURVE",
"467 164 CURVE SMOOTH",
"584 164 OFFCURVE",
"657 227 OFFCURVE",
"701 320 CURVE SMOOTH",
"744 412 OFFCURVE",
"760 536 OFFCURVE",
"760 653 CURVE SMOOTH",
"760 770 OFFCURVE",
"744 892 OFFCURVE",
"701 985 CURVE SMOOTH",
"657 1078 OFFCURVE",
"582 1141 OFFCURVE",
"467 1141 CURVE SMOOTH",
"276 1141 OFFCURVE",
"174 960 OFFCURVE",
"174 653 CURVE SMOOTH"
);
},
{
closed = 1;
nodes = (
"791 1456 LINE",
"711 1354 LINE",
"469 1559 LINE",
"223 1352 LINE",
"143 1452 LINE",
"467 1770 LINE"
);
}
);
width = 1118;
}
);
unicode = 00D4;
},
{
glyphname = Otilde;
lastChange = "2013-08-07 13:45:35 +0000";
layers = (
{
layerId = "7B42E6E7-B323-448C-AC07-14628C7F1CBB";
name = Bold;
paths = (
{
closed = 1;
nodes = (
"-33 828 OFFCURVE",
"3 997 OFFCURVE",
"82 1121 CURVE SMOOTH",
"161 1245 OFFCURVE",
"287 1327 OFFCURVE",
"467 1327 CURVE SMOOTH",
"647 1327 OFFCURVE",
"773 1245 OFFCURVE",
"853 1121 CURVE SMOOTH",
"933 997 OFFCURVE",
"967 828 OFFCURVE",
"967 653 CURVE SMOOTH",
"967 478 OFFCURVE",
"933 311 OFFCURVE",
"854 185 CURVE SMOOTH",
"775 59 OFFCURVE",
"650 -23 OFFCURVE",
"467 -23 CURVE SMOOTH",
"284 -23 OFFCURVE",
"159 59 OFFCURVE",
"80 185 CURVE SMOOTH",
"0 311 OFFCURVE",
"-33 478 OFFCURVE",
"-33 653 CURVE SMOOTH"
);
},
{
closed = 1;
nodes = (
"174 536 OFFCURVE",
"190 412 OFFCURVE",
"234 320 CURVE SMOOTH",
"277 227 OFFCURVE",
"350 164 OFFCURVE",
"467 164 CURVE SMOOTH",
"584 164 OFFCURVE",
"657 227 OFFCURVE",
"701 320 CURVE SMOOTH",
"744 412 OFFCURVE",
"760 536 OFFCURVE",
"760 653 CURVE SMOOTH",
"760 770 OFFCURVE",
"744 892 OFFCURVE",
"701 985 CURVE SMOOTH",
"657 1078 OFFCURVE",
"582 1141 OFFCURVE",
"467 1141 CURVE SMOOTH",
"276 1141 OFFCURVE",
"174 960 OFFCURVE",
"174 653 CURVE SMOOTH"
);
},
{
closed = 1;
nodes = (
"874 1616 LINE",
"811 1488 OFFCURVE",
"723 1411 OFFCURVE",
"600 1411 CURVE SMOOTH",
"535 1411 OFFCURVE",
"491 1441 OFFCURVE",
"451 1470 CURVE SMOOTH",
"410 1498 OFFCURVE",
"372 1528 OFFCURVE",
"324 1528 CURVE SMOOTH",
"255 1528 OFFCURVE",
"214 1484 OFFCURVE",
"170 1409 CURVE",
"49 1479 LINE",
"112 1604 OFFCURVE",
"200 1682 OFFCURVE",
"324 1682 CURVE SMOOTH",
"389 1682 OFFCURVE",
"432 1652 OFFCURVE",
"473 1624 CURVE SMOOTH",
"514 1595 OFFCURVE",
"551 1565 OFFCURVE",
"600 1565 CURVE SMOOTH",
"668 1565 OFFCURVE",
"710 1609 OFFCURVE",
"754 1686 CURVE"
);
}
);
width = 1118;
}
);
unicode = 00D5;
},
{
glyphname = Odieresis;
lastChange = "2013-08-07 13:45:35 +0000";
layers = (
{
layerId = "7B42E6E7-B323-448C-AC07-14628C7F1CBB";
name = Bold;
paths = (
{
closed = 1;
nodes = (
"-33 828 OFFCURVE",
"3 997 OFFCURVE",
"82 1121 CURVE SMOOTH",
"161 1245 OFFCURVE",
"287 1327 OFFCURVE",
"467 1327 CURVE SMOOTH",
"647 1327 OFFCURVE",
"773 1245 OFFCURVE",
"853 1121 CURVE SMOOTH",
"933 997 OFFCURVE",
"967 828 OFFCURVE",
"967 653 CURVE SMOOTH",
"967 478 OFFCURVE",
"933 311 OFFCURVE",
"854 185 CURVE SMOOTH",
"775 59 OFFCURVE",
"650 -23 OFFCURVE",
"467 -23 CURVE SMOOTH",
"284 -23 OFFCURVE",
"159 59 OFFCURVE",
"80 185 CURVE SMOOTH",
"0 311 OFFCURVE",
"-33 478 OFFCURVE",
"-33 653 CURVE SMOOTH"
);
},
{
closed = 1;
nodes = (
"174 536 OFFCURVE",
"190 412 OFFCURVE",
"234 320 CURVE SMOOTH",
"277 227 OFFCURVE",
"350 164 OFFCURVE",
"467 164 CURVE SMOOTH",
"584 164 OFFCURVE",
"657 227 OFFCURVE",
"701 320 CURVE SMOOTH",
"744 412 OFFCURVE",
"760 536 OFFCURVE",
"760 653 CURVE SMOOTH",
"760 770 OFFCURVE",
"744 892 OFFCURVE",
"701 985 CURVE SMOOTH",
"657 1078 OFFCURVE",
"582 1141 OFFCURVE",
"467 1141 CURVE SMOOTH",
"276 1141 OFFCURVE",
"174 960 OFFCURVE",
"174 653 CURVE SMOOTH"
);
},
{
closed = 1;
nodes = (
"778 1424 LINE",
"526 1424 LINE",
"526 1676 LINE",
"778 1676 LINE"
);
},
{
closed = 1;
nodes = (
"406 1424 LINE",
"154 1424 LINE",
"154 1676 LINE",
"406 1676 LINE"
);
}
);
width = 1118;
}
);
unicode = 00D6;
},
{
glyphname = multiply;
lastChange = "2013-08-07 13:45:35 +0000";
layers = (
{
layerId = "7B42E6E7-B323-448C-AC07-14628C7F1CBB";
name = Bold;
paths = (
{
closed = 1;
nodes = (
"856 748 LINE",
"586 478 LINE",
"856 207 LINE",
"735 88 LINE",
"467 359 LINE",
"197 88 LINE",
"78 207 LINE",
"346 478 LINE",
"78 748 LINE",
"197 867 LINE",
"467 596 LINE",
"735 867 LINE"
);
}
);
width = 1118;
}
);
unicode = 00D7;
},
{
glyphname = Oslash;
lastChange = "2013-08-07 13:45:35 +0000";
layers = (
{
anchors = (
{
name = top;
position = "{559, 1305}";
}
);
layerId = "7B42E6E7-B323-448C-AC07-14628C7F1CBB";
name = Bold;
paths = (
{
closed = 1;
nodes = (
"-33 828 OFFCURVE",
"3 997 OFFCURVE",
"82 1121 CURVE SMOOTH",
"161 1245 OFFCURVE",
"287 1327 OFFCURVE",
"467 1327 CURVE SMOOTH",
"644 1327 OFFCURVE",
"766 1253 OFFCURVE",
"846 1133 CURVE",
"979 1266 LINE",
"979 1044 LINE",
"918 983 LINE",
"951 882 OFFCURVE",
"967 772 OFFCURVE",
"967 653 CURVE SMOOTH",
"967 478 OFFCURVE",
"933 311 OFFCURVE",
"854 185 CURVE SMOOTH",
"775 59 OFFCURVE",
"650 -23 OFFCURVE",
"467 -23 CURVE SMOOTH",
"295 -23 OFFCURVE",
"176 46 OFFCURVE",
"96 158 CURVE",
"-41 20 LINE",
"-41 242 LINE",
"20 303 LINE",
"-17 407 OFFCURVE",
"-33 528 OFFCURVE",
"-33 653 CURVE SMOOTH"
);
},
{
closed = 1;
nodes = (
"174 590 OFFCURVE",
"175 531 OFFCURVE",
"186 471 CURVE",
"700 985 LINE",
"655 1078 OFFCURVE",
"582 1141 OFFCURVE",
"467 1141 CURVE SMOOTH",
"276 1141 OFFCURVE",
"174 960 OFFCURVE",
"174 653 CURVE SMOOTH"
);
},
{
closed = 1;
nodes = (
"584 164 OFFCURVE",
"657 227 OFFCURVE",
"701 320 CURVE SMOOTH",
"744 412 OFFCURVE",
"760 536 OFFCURVE",
"760 653 CURVE SMOOTH",
"760 708 OFFCURVE",
"755 758 OFFCURVE",
"750 813 CURVE",
"242 303 LINE",
"287 219 OFFCURVE",
"355 164 OFFCURVE",
"467 164 CURVE SMOOTH"
);
}
);
width = 1118;
}
);
unicode = 00D8;
},
{
glyphname = Ugrave;
lastChange = "2013-08-07 13:45:35 +0000";
layers = (
{
layerId = "7B42E6E7-B323-448C-AC07-14628C7F1CBB";
name = Bold;
paths = (
{
closed = 1;
nodes = (
"883 465 LINE SMOOTH",
"883 317 OFFCURVE",
"851 195 OFFCURVE",
"783 111 CURVE SMOOTH",
"714 26 OFFCURVE",
"609 -23 OFFCURVE",
"465 -23 CURVE SMOOTH",
"320 -23 OFFCURVE",
"218 26 OFFCURVE",
"150 111 CURVE SMOOTH",
"81 195 OFFCURVE",
"49 319 OFFCURVE",
"49 467 CURVE SMOOTH",
"49 1305 LINE",
"256 1305 LINE",
"256 465 LINE SMOOTH",
"256 400 OFFCURVE",
"263 326 OFFCURVE",
"292 266 CURVE SMOOTH",
"320 206 OFFCURVE",
"374 164 OFFCURVE",
"465 164 CURVE SMOOTH",
"554 164 OFFCURVE",
"608 206 OFFCURVE",
"639 265 CURVE SMOOTH",
"670 324 OFFCURVE",
"676 400 OFFCURVE",
"676 465 CURVE SMOOTH",
"676 1305 LINE",
"883 1305 LINE"
);
},
{
closed = 1;
nodes = (
"344 1776 LINE",
"748 1489 LINE",
"659 1352 LINE",
"227 1596 LINE"
);
}
);
width = 1118;
}
);
unicode = 00D9;
},
{
glyphname = Uacute;
lastChange = "2013-08-07 13:45:35 +0000";
layers = (
{
layerId = "7B42E6E7-B323-448C-AC07-14628C7F1CBB";
name = Bold;
paths = (
{
closed = 1;
nodes = (
"883 465 LINE SMOOTH",
"883 317 OFFCURVE",
"851 195 OFFCURVE",
"783 111 CURVE SMOOTH",
"714 26 OFFCURVE",
"609 -23 OFFCURVE",
"465 -23 CURVE SMOOTH",
"320 -23 OFFCURVE",
"218 26 OFFCURVE",
"150 111 CURVE SMOOTH",
"81 195 OFFCURVE",
"49 319 OFFCURVE",
"49 467 CURVE SMOOTH",
"49 1305 LINE",
"256 1305 LINE",
"256 465 LINE SMOOTH",
"256 400 OFFCURVE",
"263 326 OFFCURVE",
"292 266 CURVE SMOOTH",
"320 206 OFFCURVE",
"374 164 OFFCURVE",
"465 164 CURVE SMOOTH",
"554 164 OFFCURVE",
"608 206 OFFCURVE",
"639 265 CURVE SMOOTH",
"670 324 OFFCURVE",
"676 400 OFFCURVE",
"676 465 CURVE SMOOTH",
"676 1305 LINE",
"883 1305 LINE"
);
},
{
closed = 1;
nodes = (
"711 1596 LINE",
"279 1352 LINE",
"190 1489 LINE",
"594 1776 LINE"
);
}
);
width = 1118;
}
);
unicode = 00DA;
},
{
glyphname = Ucircumflex;
lastChange = "2013-08-07 13:45:35 +0000";
layers = (
{
layerId = "7B42E6E7-B323-448C-AC07-14628C7F1CBB";
name = Bold;
paths = (
{
closed = 1;
nodes = (
"883 465 LINE SMOOTH",
"883 317 OFFCURVE",
"851 195 OFFCURVE",
"783 111 CURVE SMOOTH",
"714 26 OFFCURVE",
"609 -23 OFFCURVE",
"465 -23 CURVE SMOOTH",
"320 -23 OFFCURVE",
"218 26 OFFCURVE",
"150 111 CURVE SMOOTH",
"81 195 OFFCURVE",
"49 319 OFFCURVE",
"49 467 CURVE SMOOTH",
"49 1305 LINE",
"256 1305 LINE",
"256 465 LINE SMOOTH",
"256 400 OFFCURVE",
"263 326 OFFCURVE",
"292 266 CURVE SMOOTH",
"320 206 OFFCURVE",
"374 164 OFFCURVE",
"465 164 CURVE SMOOTH",
"554 164 OFFCURVE",
"608 206 OFFCURVE",
"639 265 CURVE SMOOTH",
"670 324 OFFCURVE",
"676 400 OFFCURVE",
"676 465 CURVE SMOOTH",
"676 1305 LINE",
"883 1305 LINE"
);
},
{
closed = 1;
nodes = (
"791 1456 LINE",
"711 1354 LINE",
"469 1559 LINE",
"223 1352 LINE",
"143 1452 LINE",
"467 1770 LINE"
);
}
);
width = 1118;
}
);
unicode = 00DB;
},
{
glyphname = Udieresis;
lastChange = "2013-08-07 13:45:35 +0000";
layers = (
{
layerId = "7B42E6E7-B323-448C-AC07-14628C7F1CBB";
name = Bold;
paths = (
{
closed = 1;
nodes = (
"883 465 LINE SMOOTH",
"883 317 OFFCURVE",
"851 195 OFFCURVE",
"783 111 CURVE SMOOTH",
"714 26 OFFCURVE",
"609 -23 OFFCURVE",
"465 -23 CURVE SMOOTH",
"320 -23 OFFCURVE",
"218 26 OFFCURVE",
"150 111 CURVE SMOOTH",
"81 195 OFFCURVE",
"49 319 OFFCURVE",
"49 467 CURVE SMOOTH",
"49 1305 LINE",
"256 1305 LINE",
"256 465 LINE SMOOTH",
"256 400 OFFCURVE",
"263 326 OFFCURVE",
"292 266 CURVE SMOOTH",
"320 206 OFFCURVE",
"374 164 OFFCURVE",
"465 164 CURVE SMOOTH",
"554 164 OFFCURVE",
"608 206 OFFCURVE",
"639 265 CURVE SMOOTH",
"670 324 OFFCURVE",
"676 400 OFFCURVE",
"676 465 CURVE SMOOTH",
"676 1305 LINE",
"883 1305 LINE"
);
},
{
closed = 1;
nodes = (
"778 1424 LINE",
"526 1424 LINE",
"526 1676 LINE",
"778 1676 LINE"
);
},
{
closed = 1;
nodes = (
"406 1424 LINE",
"154 1424 LINE",
"154 1676 LINE",
"406 1676 LINE"
);
}
);
width = 1118;
}
);
unicode = 00DC;
},
{
glyphname = Yacute;
lastChange = "2013-08-07 13:45:35 +0000";
layers = (
{
layerId = "7B42E6E7-B323-448C-AC07-14628C7F1CBB";
name = Bold;
paths = (
{
closed = 1;
nodes = (
"952 1118 LINE",
"858 1118 LINE",
"569 532 LINE",
"569 186 LINE",
"778 186 LINE",
"778 0 LINE",
"154 0 LINE",
"154 186 LINE",
"362 186 LINE",
"362 532 LINE",
"74 1118 LINE",
"-20 1118 LINE",
"-20 1305 LINE",
"391 1305 LINE",
"391 1118 LINE",
"301 1118 LINE",
"467 735 LINE",
"631 1118 LINE",
"541 1118 LINE",
"541 1305 LINE",
"952 1305 LINE"
);
},
{
closed = 1;
nodes = (
"711 1596 LINE",
"279 1352 LINE",
"190 1489 LINE",
"594 1776 LINE"
);
}
);
width = 1118;
}
);
unicode = 00DD;
},
{
glyphname = Thorn;
lastChange = "2013-08-07 13:45:35 +0000";
layers = (
{
layerId = "7B42E6E7-B323-448C-AC07-14628C7F1CBB";
name = Bold;
paths = (
{
closed = 1;
nodes = (
"932 401 OFFCURVE",
"765 279 OFFCURVE",
"481 279 CURVE SMOOTH",
"256 279 LINE",
"256 0 LINE",
"49 0 LINE",
"49 1305 LINE",
"256 1305 LINE",
"256 1049 LINE",
"479 1049 LINE SMOOTH",
"766 1049 OFFCURVE",
"932 920 OFFCURVE",
"932 664 CURVE SMOOTH"
);
},
{
closed = 1;
nodes = (
"727 797 OFFCURVE",
"632 862 OFFCURVE",
"481 862 CURVE SMOOTH",
"256 862 LINE",
"256 465 LINE",
"481 465 LINE SMOOTH",
"632 465 OFFCURVE",
"727 527 OFFCURVE",
"727 664 CURVE SMOOTH"
);
}
);
width = 1118;
}
);
unicode = 00DE;
},
{
glyphname = germandbls;
lastChange = "2013-08-07 13:45:35 +0000";
layers = (
{
layerId = "7B42E6E7-B323-448C-AC07-14628C7F1CBB";
name = Bold;
paths = (
{
closed = 1;
nodes = (
"932 187 OFFCURVE",
"895 113 OFFCURVE",
"832 62 CURVE SMOOTH",
"768 10 OFFCURVE",
"680 -23 OFFCURVE",
"580 -23 CURVE SMOOTH",
"448 -23 OFFCURVE",
"360 15 OFFCURVE",
"272 86 CURVE",
"389 248 LINE",
"460 183 OFFCURVE",
"513 164 OFFCURVE",
"580 164 CURVE SMOOTH",
"680 164 OFFCURVE",
"725 213 OFFCURVE",
"725 270 CURVE SMOOTH",
"725 325 OFFCURVE",
"680 362 OFFCURVE",
"623 398 CURVE SMOOTH",
"594 415 OFFCURVE",
"563 433 OFFCURVE",
"528 451 CURVE SMOOTH",
"458 486 OFFCURVE",
"399 530 OFFCURVE",
"360 590 CURVE SMOOTH",
"340 620 OFFCURVE",
"330 656 OFFCURVE",
"330 698 CURVE SMOOTH",
"330 797 OFFCURVE",
"382 849 OFFCURVE",
"435 893 CURVE SMOOTH",
"488 937 OFFCURVE",
"541 975 OFFCURVE",
"541 1040 CURVE SMOOTH",
"541 1089 OFFCURVE",
"517 1141 OFFCURVE",
"426 1141 CURVE SMOOTH",
"293 1141 OFFCURVE",
"256 1037 OFFCURVE",
"256 846 CURVE SMOOTH",
"256 0 LINE",
"49 0 LINE",
"49 844 LINE SMOOTH",
"49 945 OFFCURVE",
"61 1066 OFFCURVE",
"114 1162 CURVE SMOOTH",
"167 1257 OFFCURVE",
"262 1327 OFFCURVE",
"426 1327 CURVE SMOOTH",
"527 1327 OFFCURVE",
"608 1295 OFFCURVE",
"662 1244 CURVE SMOOTH",
"716 1193 OFFCURVE",
"745 1123 OFFCURVE",
"745 1040 CURVE SMOOTH",
"745 931 OFFCURVE",
"693 871 OFFCURVE",
"640 828 CURVE SMOOTH",
"613 806 OFFCURVE",
"589 786 OFFCURVE",
"568 769 CURVE SMOOTH",
"546 752 OFFCURVE",
"535 732 OFFCURVE",
"535 709 CURVE SMOOTH",
"535 673 OFFCURVE",
"579 647 OFFCURVE",
"638 616 CURVE SMOOTH",
"697 584 OFFCURVE",
"769 548 OFFCURVE",
"828 495 CURVE SMOOTH",
"887 442 OFFCURVE",
"932 369 OFFCURVE",
"932 268 CURVE SMOOTH"
);
}
);
width = 1118;
}
);
unicode = 00DF;
},
{
glyphname = agrave;
lastChange = "2013-08-07 13:45:35 +0000";
layers = (
{
layerId = "7B42E6E7-B323-448C-AC07-14628C7F1CBB";
name = Bold;
paths = (
{
closed = 1;
nodes = (
"-4 377 OFFCURVE",
"60 459 OFFCURVE",
"156 514 CURVE SMOOTH",
"251 569 OFFCURVE",
"380 596 OFFCURVE",
"508 596 CURVE SMOOTH",
"579 596 OFFCURVE",
"624 593 OFFCURVE",
"676 588 CURVE",
"676 625 LINE SMOOTH",
"676 722 OFFCURVE",
"594 770 OFFCURVE",
"471 770 CURVE SMOOTH",
"359 770 OFFCURVE",
"239 738 OFFCURVE",
"135 678 CURVE",
"51 840 LINE",
"174 911 OFFCURVE",
"315 954 OFFCURVE",
"471 954 CURVE SMOOTH",
"572 954 OFFCURVE",
"675 933 OFFCURVE",
"753 881 CURVE SMOOTH",
"831 829 OFFCURVE",
"881 748 OFFCURVE",
"881 625 CURVE SMOOTH",
"881 0 LINE",
"676 0 LINE",
"676 137 LINE",
"611 36 OFFCURVE",
"473 -23 OFFCURVE",
"326 -23 CURVE SMOOTH",
"235 -23 OFFCURVE",
"152 2 OFFCURVE",
"93 51 CURVE SMOOTH",
"34 100 OFFCURVE",
"-4 173 OFFCURVE",
"-4 268 CURVE SMOOTH"
);
},
{
closed = 1;
nodes = (
"460 162 OFFCURVE",
"533 184 OFFCURVE",
"588 221 CURVE SMOOTH",
"643 257 OFFCURVE",
"676 310 OFFCURVE",
"676 373 CURVE SMOOTH",
"676 408 LINE",
"611 419 OFFCURVE",
"552 418 OFFCURVE",
"508 418 CURVE SMOOTH",
"407 418 OFFCURVE",
"330 405 OFFCURVE",
"279 378 CURVE SMOOTH",
"227 351 OFFCURVE",
"201 318 OFFCURVE",
"201 279 CURVE SMOOTH",
"201 201 OFFCURVE",
"260 162 OFFCURVE",
"379 162 CURVE SMOOTH"
);
},
{
closed = 1;
nodes = (
"344 1405 LINE",
"748 1118 LINE",
"659 981 LINE",
"227 1225 LINE"
);
}
);
width = 1118;
}
);
unicode = 00E0;
},
{
glyphname = aacute;
lastChange = "2013-08-07 13:45:35 +0000";
layers = (
{
layerId = "7B42E6E7-B323-448C-AC07-14628C7F1CBB";
name = Bold;
paths = (
{
closed = 1;
nodes = (
"-4 377 OFFCURVE",
"60 459 OFFCURVE",
"156 514 CURVE SMOOTH",
"251 569 OFFCURVE",
"380 596 OFFCURVE",
"508 596 CURVE SMOOTH",
"579 596 OFFCURVE",
"624 593 OFFCURVE",
"676 588 CURVE",
"676 625 LINE SMOOTH",
"676 722 OFFCURVE",
"594 770 OFFCURVE",
"471 770 CURVE SMOOTH",
"359 770 OFFCURVE",
"239 738 OFFCURVE",
"135 678 CURVE",
"51 840 LINE",
"174 911 OFFCURVE",
"315 954 OFFCURVE",
"471 954 CURVE SMOOTH",
"572 954 OFFCURVE",
"675 933 OFFCURVE",
"753 881 CURVE SMOOTH",
"831 829 OFFCURVE",
"881 748 OFFCURVE",
"881 625 CURVE SMOOTH",
"881 0 LINE",
"676 0 LINE",
"676 137 LINE",
"611 36 OFFCURVE",
"473 -23 OFFCURVE",
"326 -23 CURVE SMOOTH",
"235 -23 OFFCURVE",
"152 2 OFFCURVE",
"93 51 CURVE SMOOTH",
"34 100 OFFCURVE",
"-4 173 OFFCURVE",
"-4 268 CURVE SMOOTH"
);
},
{
closed = 1;
nodes = (
"460 162 OFFCURVE",
"533 184 OFFCURVE",
"588 221 CURVE SMOOTH",
"643 257 OFFCURVE",
"676 310 OFFCURVE",
"676 373 CURVE SMOOTH",
"676 408 LINE",
"611 419 OFFCURVE",
"552 418 OFFCURVE",
"508 418 CURVE SMOOTH",
"407 418 OFFCURVE",
"330 405 OFFCURVE",
"279 378 CURVE SMOOTH",
"227 351 OFFCURVE",
"201 318 OFFCURVE",
"201 279 CURVE SMOOTH",
"201 201 OFFCURVE",
"260 162 OFFCURVE",
"379 162 CURVE SMOOTH"
);
},
{
closed = 1;
nodes = (
"711 1225 LINE",
"279 981 LINE",
"190 1118 LINE",
"594 1405 LINE"
);
}
);
width = 1118;
}
);
unicode = 00E1;
},
{
glyphname = acircumflex;
lastChange = "2013-08-07 13:45:35 +0000";
layers = (
{
layerId = "7B42E6E7-B323-448C-AC07-14628C7F1CBB";
name = Bold;
paths = (
{
closed = 1;
nodes = (
"-4 377 OFFCURVE",
"60 459 OFFCURVE",
"156 514 CURVE SMOOTH",
"251 569 OFFCURVE",
"380 596 OFFCURVE",
"508 596 CURVE SMOOTH",
"579 596 OFFCURVE",
"624 593 OFFCURVE",
"676 588 CURVE",
"676 625 LINE SMOOTH",
"676 722 OFFCURVE",
"594 770 OFFCURVE",
"471 770 CURVE SMOOTH",
"359 770 OFFCURVE",
"239 738 OFFCURVE",
"135 678 CURVE",
"51 840 LINE",
"174 911 OFFCURVE",
"315 954 OFFCURVE",
"471 954 CURVE SMOOTH",
"572 954 OFFCURVE",
"675 933 OFFCURVE",
"753 881 CURVE SMOOTH",
"831 829 OFFCURVE",
"881 748 OFFCURVE",
"881 625 CURVE SMOOTH",
"881 0 LINE",
"676 0 LINE",
"676 137 LINE",
"611 36 OFFCURVE",
"473 -23 OFFCURVE",
"326 -23 CURVE SMOOTH",
"235 -23 OFFCURVE",
"152 2 OFFCURVE",
"93 51 CURVE SMOOTH",
"34 100 OFFCURVE",
"-4 173 OFFCURVE",
"-4 268 CURVE SMOOTH"
);
},
{
closed = 1;
nodes = (
"460 162 OFFCURVE",
"533 184 OFFCURVE",
"588 221 CURVE SMOOTH",
"643 257 OFFCURVE",
"676 310 OFFCURVE",
"676 373 CURVE SMOOTH",
"676 408 LINE",
"611 419 OFFCURVE",
"552 418 OFFCURVE",
"508 418 CURVE SMOOTH",
"407 418 OFFCURVE",
"330 405 OFFCURVE",
"279 378 CURVE SMOOTH",
"227 351 OFFCURVE",
"201 318 OFFCURVE",
"201 279 CURVE SMOOTH",
"201 201 OFFCURVE",
"260 162 OFFCURVE",
"379 162 CURVE SMOOTH"
);
},
{
closed = 1;
nodes = (
"791 1085 LINE",
"711 983 LINE",
"469 1188 LINE",
"223 981 LINE",
"143 1081 LINE",
"467 1399 LINE"
);
}
);
width = 1118;
}
);
unicode = 00E2;
},
{
glyphname = atilde;
lastChange = "2013-08-07 13:45:35 +0000";
layers = (
{
layerId = "7B42E6E7-B323-448C-AC07-14628C7F1CBB";
name = Bold;
paths = (
{
closed = 1;
nodes = (
"-4 377 OFFCURVE",
"60 459 OFFCURVE",
"156 514 CURVE SMOOTH",
"251 569 OFFCURVE",
"380 596 OFFCURVE",
"508 596 CURVE SMOOTH",
"579 596 OFFCURVE",
"624 593 OFFCURVE",
"676 588 CURVE",
"676 625 LINE SMOOTH",
"676 722 OFFCURVE",
"594 770 OFFCURVE",
"471 770 CURVE SMOOTH",
"359 770 OFFCURVE",
"239 738 OFFCURVE",
"135 678 CURVE",
"51 840 LINE",
"174 911 OFFCURVE",
"315 954 OFFCURVE",
"471 954 CURVE SMOOTH",
"572 954 OFFCURVE",
"675 933 OFFCURVE",
"753 881 CURVE SMOOTH",
"831 829 OFFCURVE",
"881 748 OFFCURVE",
"881 625 CURVE SMOOTH",
"881 0 LINE",
"676 0 LINE",
"676 137 LINE",
"611 36 OFFCURVE",
"473 -23 OFFCURVE",
"326 -23 CURVE SMOOTH",
"235 -23 OFFCURVE",
"152 2 OFFCURVE",
"93 51 CURVE SMOOTH",
"34 100 OFFCURVE",
"-4 173 OFFCURVE",
"-4 268 CURVE SMOOTH"
);
},
{
closed = 1;
nodes = (
"460 162 OFFCURVE",
"533 184 OFFCURVE",
"588 221 CURVE SMOOTH",
"643 257 OFFCURVE",
"676 310 OFFCURVE",
"676 373 CURVE SMOOTH",
"676 408 LINE",
"611 419 OFFCURVE",
"552 418 OFFCURVE",
"508 418 CURVE SMOOTH",
"407 418 OFFCURVE",
"330 405 OFFCURVE",
"279 378 CURVE SMOOTH",
"227 351 OFFCURVE",
"201 318 OFFCURVE",
"201 279 CURVE SMOOTH",
"201 201 OFFCURVE",
"260 162 OFFCURVE",
"379 162 CURVE SMOOTH"
);
},
{
closed = 1;
nodes = (
"874 1245 LINE",
"811 1117 OFFCURVE",
"723 1040 OFFCURVE",
"600 1040 CURVE SMOOTH",
"535 1040 OFFCURVE",
"491 1070 OFFCURVE",
"451 1099 CURVE SMOOTH",
"410 1127 OFFCURVE",
"372 1157 OFFCURVE",
"324 1157 CURVE SMOOTH",
"255 1157 OFFCURVE",
"214 1113 OFFCURVE",
"170 1038 CURVE",
"49 1108 LINE",
"112 1233 OFFCURVE",
"200 1311 OFFCURVE",
"324 1311 CURVE SMOOTH",
"389 1311 OFFCURVE",
"432 1281 OFFCURVE",
"473 1253 CURVE SMOOTH",
"514 1224 OFFCURVE",
"551 1194 OFFCURVE",
"600 1194 CURVE SMOOTH",
"668 1194 OFFCURVE",
"710 1238 OFFCURVE",
"754 1315 CURVE"
);
}
);
width = 1118;
}
);
unicode = 00E3;
},
{
glyphname = adieresis;
lastChange = "2013-08-07 13:45:35 +0000";
layers = (
{
layerId = "7B42E6E7-B323-448C-AC07-14628C7F1CBB";
name = Bold;
paths = (
{
closed = 1;
nodes = (
"-4 377 OFFCURVE",
"60 459 OFFCURVE",
"156 514 CURVE SMOOTH",
"251 569 OFFCURVE",
"380 596 OFFCURVE",
"508 596 CURVE SMOOTH",
"579 596 OFFCURVE",
"624 593 OFFCURVE",
"676 588 CURVE",
"676 625 LINE SMOOTH",
"676 722 OFFCURVE",
"594 770 OFFCURVE",
"471 770 CURVE SMOOTH",
"359 770 OFFCURVE",
"239 738 OFFCURVE",
"135 678 CURVE",
"51 840 LINE",
"174 911 OFFCURVE",
"315 954 OFFCURVE",
"471 954 CURVE SMOOTH",
"572 954 OFFCURVE",
"675 933 OFFCURVE",
"753 881 CURVE SMOOTH",
"831 829 OFFCURVE",
"881 748 OFFCURVE",
"881 625 CURVE SMOOTH",
"881 0 LINE",
"676 0 LINE",
"676 137 LINE",
"611 36 OFFCURVE",
"473 -23 OFFCURVE",
"326 -23 CURVE SMOOTH",
"235 -23 OFFCURVE",
"152 2 OFFCURVE",
"93 51 CURVE SMOOTH",
"34 100 OFFCURVE",
"-4 173 OFFCURVE",
"-4 268 CURVE SMOOTH"
);
},
{
closed = 1;
nodes = (
"460 162 OFFCURVE",
"533 184 OFFCURVE",
"588 221 CURVE SMOOTH",
"643 257 OFFCURVE",
"676 310 OFFCURVE",
"676 373 CURVE SMOOTH",
"676 408 LINE",
"611 419 OFFCURVE",
"552 418 OFFCURVE",
"508 418 CURVE SMOOTH",
"407 418 OFFCURVE",
"330 405 OFFCURVE",
"279 378 CURVE SMOOTH",
"227 351 OFFCURVE",
"201 318 OFFCURVE",
"201 279 CURVE SMOOTH",
"201 201 OFFCURVE",
"260 162 OFFCURVE",
"379 162 CURVE SMOOTH"
);
},
{
closed = 1;
nodes = (
"778 1053 LINE",
"526 1053 LINE",
"526 1305 LINE",
"778 1305 LINE"
);
},
{
closed = 1;
nodes = (
"406 1053 LINE",
"154 1053 LINE",
"154 1305 LINE",
"406 1305 LINE"
);
}
);
width = 1118;
}
);
unicode = 00E4;
},
{
glyphname = aring;
lastChange = "2013-08-07 13:45:35 +0000";
layers = (
{
layerId = "7B42E6E7-B323-448C-AC07-14628C7F1CBB";
name = Bold;
paths = (
{
closed = 1;
nodes = (
"-4 377 OFFCURVE",
"60 459 OFFCURVE",
"156 514 CURVE SMOOTH",
"251 569 OFFCURVE",
"380 596 OFFCURVE",
"508 596 CURVE SMOOTH",
"579 596 OFFCURVE",
"624 593 OFFCURVE",
"676 588 CURVE",
"676 625 LINE SMOOTH",
"676 722 OFFCURVE",
"594 770 OFFCURVE",
"471 770 CURVE SMOOTH",
"359 770 OFFCURVE",
"239 738 OFFCURVE",
"135 678 CURVE",
"51 840 LINE",
"174 911 OFFCURVE",
"315 954 OFFCURVE",
"471 954 CURVE SMOOTH",
"572 954 OFFCURVE",
"675 933 OFFCURVE",
"753 881 CURVE SMOOTH",
"831 829 OFFCURVE",
"881 748 OFFCURVE",
"881 625 CURVE SMOOTH",
"881 0 LINE",
"676 0 LINE",
"676 137 LINE",
"611 36 OFFCURVE",
"473 -23 OFFCURVE",
"326 -23 CURVE SMOOTH",
"235 -23 OFFCURVE",
"152 2 OFFCURVE",
"93 51 CURVE SMOOTH",
"34 100 OFFCURVE",
"-4 173 OFFCURVE",
"-4 268 CURVE SMOOTH"
);
},
{
closed = 1;
nodes = (
"460 162 OFFCURVE",
"533 184 OFFCURVE",
"588 221 CURVE SMOOTH",
"643 257 OFFCURVE",
"676 310 OFFCURVE",
"676 373 CURVE SMOOTH",
"676 408 LINE",
"611 419 OFFCURVE",
"552 418 OFFCURVE",
"508 418 CURVE SMOOTH",
"407 418 OFFCURVE",
"330 405 OFFCURVE",
"279 378 CURVE SMOOTH",
"227 351 OFFCURVE",
"201 318 OFFCURVE",
"201 279 CURVE SMOOTH",
"201 201 OFFCURVE",
"260 162 OFFCURVE",
"379 162 CURVE SMOOTH"
);
},
{
closed = 1;
nodes = (
"242 1321 OFFCURVE",
"266 1376 OFFCURVE",
"307 1417 CURVE SMOOTH",
"348 1458 OFFCURVE",
"404 1483 OFFCURVE",
"467 1483 CURVE SMOOTH",
"530 1483 OFFCURVE",
"586 1458 OFFCURVE",
"627 1417 CURVE SMOOTH",
"667 1376 OFFCURVE",
"692 1321 OFFCURVE",
"692 1257 CURVE SMOOTH",
"692 1194 OFFCURVE",
"667 1138 OFFCURVE",
"627 1098 CURVE SMOOTH",
"586 1057 OFFCURVE",
"530 1032 OFFCURVE",
"467 1032 CURVE SMOOTH",
"404 1032 OFFCURVE",
"348 1057 OFFCURVE",
"307 1098 CURVE SMOOTH",
"266 1138 OFFCURVE",
"242 1194 OFFCURVE",
"242 1257 CURVE SMOOTH"
);
},
{
closed = 1;
nodes = (
"375 1206 OFFCURVE",
"415 1165 OFFCURVE",
"467 1165 CURVE SMOOTH",
"519 1165 OFFCURVE",
"559 1206 OFFCURVE",
"559 1257 CURVE SMOOTH",
"559 1309 OFFCURVE",
"519 1350 OFFCURVE",
"467 1350 CURVE SMOOTH",
"415 1350 OFFCURVE",
"375 1309 OFFCURVE",
"375 1257 CURVE SMOOTH"
);
}
);
width = 1118;
}
);
unicode = 00E5;
},
{
glyphname = ae;
lastChange = "2013-08-07 13:45:35 +0000";
layers = (
{
anchors = (
{
name = top;
position = "{559, 932}";
}
);
layerId = "7B42E6E7-B323-448C-AC07-14628C7F1CBB";
name = Bold;
paths = (
{
closed = 1;
nodes = (
"399 44 OFFCURVE",
"336 -23 OFFCURVE",
"229 -23 CURVE SMOOTH",
"148 -23 OFFCURVE",
"87 11 OFFCURVE",
"44 61 CURVE SMOOTH",
"1 111 OFFCURVE",
"-20 181 OFFCURVE",
"-20 254 CURVE SMOOTH",
"-20 361 OFFCURVE",
"16 443 OFFCURVE",
"75 498 CURVE SMOOTH",
"134 553 OFFCURVE",
"212 580 OFFCURVE",
"297 580 CURVE SMOOTH",
"326 580 OFFCURVE",
"342 580 OFFCURVE",
"373 573 CURVE",
"373 633 LINE SMOOTH",
"373 732 OFFCURVE",
"332 770 OFFCURVE",
"272 770 CURVE SMOOTH",
"227 770 OFFCURVE",
"164 753 OFFCURVE",
"117 674 CURVE",
"-8 793 LINE",
"65 908 OFFCURVE",
"181 954 OFFCURVE",
"262 954 CURVE SMOOTH",
"358 954 OFFCURVE",
"438 921 OFFCURVE",
"471 825 CURVE",
"518 916 OFFCURVE",
"583 954 OFFCURVE",
"676 954 CURVE SMOOTH",
"801 954 OFFCURVE",
"868 881 OFFCURVE",
"905 774 CURVE SMOOTH",
"941 667 OFFCURVE",
"946 527 OFFCURVE",
"946 387 CURVE",
"559 387 LINE",
"559 304 OFFCURVE",
"571 246 OFFCURVE",
"594 215 CURVE SMOOTH",
"617 184 OFFCURVE",
"644 168 OFFCURVE",
"674 168 CURVE SMOOTH",
"718 168 OFFCURVE",
"749 191 OFFCURVE",
"762 248 CURVE",
"936 190 LINE",
"889 46 OFFCURVE",
"810 -23 OFFCURVE",
"674 -23 CURVE SMOOTH",
"635 -23 OFFCURVE",
"592 -14 OFFCURVE",
"552 10 CURVE SMOOTH",
"512 33 OFFCURVE",
"475 71 OFFCURVE",
"451 131 CURVE"
);
},
{
closed = 1;
nodes = (
"739 569 LINE",
"736 648 OFFCURVE",
"728 702 OFFCURVE",
"714 729 CURVE SMOOTH",
"699 756 OFFCURVE",
"679 770 OFFCURVE",
"653 770 CURVE SMOOTH",
"624 770 OFFCURVE",
"602 755 OFFCURVE",
"587 725 CURVE SMOOTH",
"571 695 OFFCURVE",
"562 643 OFFCURVE",
"559 569 CURVE"
);
},
{
closed = 1;
nodes = (
"373 391 LINE",
"356 394 OFFCURVE",
"340 395 OFFCURVE",
"309 395 CURVE SMOOTH",
"244 395 OFFCURVE",
"184 347 OFFCURVE",
"184 264 CURVE SMOOTH",
"184 196 OFFCURVE",
"214 166 OFFCURVE",
"258 166 CURVE SMOOTH",
"331 166 OFFCURVE",
"373 242 OFFCURVE",
"373 330 CURVE SMOOTH"
);
}
);
width = 1118;
}
);
unicode = 00E6;
},
{
glyphname = ccedilla;
lastChange = "2013-08-07 13:45:35 +0000";
layers = (
{
layerId = "7B42E6E7-B323-448C-AC07-14628C7F1CBB";
name = Bold;
paths = (
{
closed = 1;
nodes = (
"897 133 LINE",
"801 37 OFFCURVE",
"705 -3 OFFCURVE",
"590 -16 CURVE",
"590 -41 LINE SMOOTH",
"590 -134 OFFCURVE",
"558 -216 OFFCURVE",
"498 -275 CURVE SMOOTH",
"438 -334 OFFCURVE",
"351 -371 OFFCURVE",
"242 -371 CURVE",
"242 -193 LINE",
"359 -193 OFFCURVE",
"414 -137 OFFCURVE",
"414 -41 CURVE SMOOTH",
"414 -18 LINE",
"143 11 OFFCURVE",
"-20 192 OFFCURVE",
"-20 465 CURVE SMOOTH",
"-20 606 OFFCURVE",
"31 731 OFFCURVE",
"112 817 CURVE SMOOTH",
"192 903 OFFCURVE",
"305 954 OFFCURVE",
"428 954 CURVE SMOOTH",
"556 954 OFFCURVE",
"655 900 OFFCURVE",
"698 797 CURVE",
"698 932 LINE",
"883 932 LINE",
"883 498 LINE",
"698 498 LINE",
"698 662 OFFCURVE",
"599 768 OFFCURVE",
"455 768 CURVE SMOOTH",
"398 768 OFFCURVE",
"330 745 OFFCURVE",
"278 696 CURVE SMOOTH",
"225 647 OFFCURVE",
"186 572 OFFCURVE",
"186 465 CURVE SMOOTH",
"186 361 OFFCURVE",
"223 286 OFFCURVE",
"277 238 CURVE SMOOTH",
"331 189 OFFCURVE",
"408 164 OFFCURVE",
"487 164 CURVE SMOOTH",
"622 164 OFFCURVE",
"719 210 OFFCURVE",
"791 279 CURVE"
);
}
);
width = 1118;
}
);
unicode = 00E7;
},
{
glyphname = egrave;
lastChange = "2013-08-07 13:45:35 +0000";
layers = (
{
layerId = "7B42E6E7-B323-448C-AC07-14628C7F1CBB";
name = Bold;
paths = (
{
closed = 1;
nodes = (
"190 387 LINE",
"210 259 OFFCURVE",
"315 164 OFFCURVE",
"487 164 CURVE SMOOTH",
"622 164 OFFCURVE",
"719 210 OFFCURVE",
"791 279 CURVE",
"897 133 LINE",
"777 13 OFFCURVE",
"646 -23 OFFCURVE",
"487 -23 CURVE SMOOTH",
"343 -23 OFFCURVE",
"216 28 OFFCURVE",
"125 114 CURVE SMOOTH",
"34 200 OFFCURVE",
"-20 320 OFFCURVE",
"-20 465 CURVE SMOOTH",
"-20 606 OFFCURVE",
"30 728 OFFCURVE",
"116 816 CURVE SMOOTH",
"202 903 OFFCURVE",
"324 954 OFFCURVE",
"469 954 CURVE SMOOTH",
"620 954 OFFCURVE",
"744 901 OFFCURVE",
"832 804 CURVE SMOOTH",
"919 707 OFFCURVE",
"971 564 OFFCURVE",
"971 387 CURVE"
);
},
{
closed = 1;
nodes = (
"737 569 LINE",
"716 689 OFFCURVE",
"600 768 OFFCURVE",
"469 768 CURVE SMOOTH",
"338 768 OFFCURVE",
"220 689 OFFCURVE",
"199 569 CURVE"
);
},
{
closed = 1;
nodes = (
"344 1405 LINE",
"748 1118 LINE",
"659 981 LINE",
"227 1225 LINE"
);
}
);
width = 1118;
}
);
unicode = 00E8;
},
{
glyphname = eacute;
lastChange = "2013-08-07 13:45:35 +0000";
layers = (
{
layerId = "7B42E6E7-B323-448C-AC07-14628C7F1CBB";
name = Bold;
paths = (
{
closed = 1;
nodes = (
"190 387 LINE",
"210 259 OFFCURVE",
"315 164 OFFCURVE",
"487 164 CURVE SMOOTH",
"622 164 OFFCURVE",
"719 210 OFFCURVE",
"791 279 CURVE",
"897 133 LINE",
"777 13 OFFCURVE",
"646 -23 OFFCURVE",
"487 -23 CURVE SMOOTH",
"343 -23 OFFCURVE",
"216 28 OFFCURVE",
"125 114 CURVE SMOOTH",
"34 200 OFFCURVE",
"-20 320 OFFCURVE",
"-20 465 CURVE SMOOTH",
"-20 606 OFFCURVE",
"30 728 OFFCURVE",
"116 816 CURVE SMOOTH",
"202 903 OFFCURVE",
"324 954 OFFCURVE",
"469 954 CURVE SMOOTH",
"620 954 OFFCURVE",
"744 901 OFFCURVE",
"832 804 CURVE SMOOTH",
"919 707 OFFCURVE",
"971 564 OFFCURVE",
"971 387 CURVE"
);
},
{
closed = 1;
nodes = (
"737 569 LINE",
"716 689 OFFCURVE",
"600 768 OFFCURVE",
"469 768 CURVE SMOOTH",
"338 768 OFFCURVE",
"220 689 OFFCURVE",
"199 569 CURVE"
);
},
{
closed = 1;
nodes = (
"711 1225 LINE",
"279 981 LINE",
"190 1118 LINE",
"594 1405 LINE"
);
}
);
width = 1118;
}
);
unicode = 00E9;
},
{
glyphname = ecircumflex;
lastChange = "2013-08-07 13:45:35 +0000";
layers = (
{
layerId = "7B42E6E7-B323-448C-AC07-14628C7F1CBB";
name = Bold;
paths = (
{
closed = 1;
nodes = (
"190 387 LINE",
"210 259 OFFCURVE",
"315 164 OFFCURVE",
"487 164 CURVE SMOOTH",
"622 164 OFFCURVE",
"719 210 OFFCURVE",
"791 279 CURVE",
"897 133 LINE",
"777 13 OFFCURVE",
"646 -23 OFFCURVE",
"487 -23 CURVE SMOOTH",
"343 -23 OFFCURVE",
"216 28 OFFCURVE",
"125 114 CURVE SMOOTH",
"34 200 OFFCURVE",
"-20 320 OFFCURVE",
"-20 465 CURVE SMOOTH",
"-20 606 OFFCURVE",
"30 728 OFFCURVE",
"116 816 CURVE SMOOTH",
"202 903 OFFCURVE",
"324 954 OFFCURVE",
"469 954 CURVE SMOOTH",
"620 954 OFFCURVE",
"744 901 OFFCURVE",
"832 804 CURVE SMOOTH",
"919 707 OFFCURVE",
"971 564 OFFCURVE",
"971 387 CURVE"
);
},
{
closed = 1;
nodes = (
"737 569 LINE",
"716 689 OFFCURVE",
"600 768 OFFCURVE",
"469 768 CURVE SMOOTH",
"338 768 OFFCURVE",
"220 689 OFFCURVE",
"199 569 CURVE"
);
},
{
closed = 1;
nodes = (
"791 1085 LINE",
"711 983 LINE",
"469 1188 LINE",
"223 981 LINE",
"143 1081 LINE",
"467 1399 LINE"
);
}
);
width = 1118;
}
);
unicode = 00EA;
},
{
glyphname = edieresis;
lastChange = "2013-08-07 13:45:35 +0000";
layers = (
{
layerId = "7B42E6E7-B323-448C-AC07-14628C7F1CBB";
name = Bold;
paths = (
{
closed = 1;
nodes = (
"190 387 LINE",
"210 259 OFFCURVE",
"315 164 OFFCURVE",
"487 164 CURVE SMOOTH",
"622 164 OFFCURVE",
"719 210 OFFCURVE",
"791 279 CURVE",
"897 133 LINE",
"777 13 OFFCURVE",
"646 -23 OFFCURVE",
"487 -23 CURVE SMOOTH",
"343 -23 OFFCURVE",
"216 28 OFFCURVE",
"125 114 CURVE SMOOTH",
"34 200 OFFCURVE",
"-20 320 OFFCURVE",
"-20 465 CURVE SMOOTH",
"-20 606 OFFCURVE",
"30 728 OFFCURVE",
"116 816 CURVE SMOOTH",
"202 903 OFFCURVE",
"324 954 OFFCURVE",
"469 954 CURVE SMOOTH",
"620 954 OFFCURVE",
"744 901 OFFCURVE",
"832 804 CURVE SMOOTH",
"919 707 OFFCURVE",
"971 564 OFFCURVE",
"971 387 CURVE"
);
},
{
closed = 1;
nodes = (
"737 569 LINE",
"716 689 OFFCURVE",
"600 768 OFFCURVE",
"469 768 CURVE SMOOTH",
"338 768 OFFCURVE",
"220 689 OFFCURVE",
"199 569 CURVE"
);
},
{
closed = 1;
nodes = (
"778 1053 LINE",
"526 1053 LINE",
"526 1305 LINE",
"778 1305 LINE"
);
},
{
closed = 1;
nodes = (
"406 1053 LINE",
"154 1053 LINE",
"154 1305 LINE",
"406 1305 LINE"
);
}
);
width = 1118;
}
);
unicode = 00EB;
},
{
glyphname = igrave;
lastChange = "2013-08-07 13:45:35 +0000";
layers = (
{
layerId = "7B42E6E7-B323-448C-AC07-14628C7F1CBB";
name = Bold;
paths = (
{
closed = 1;
nodes = (
"782 0 LINE",
"156 0 LINE",
"156 186 LINE",
"362 186 LINE",
"362 745 LINE",
"156 745 LINE",
"156 932 LINE",
"569 932 LINE",
"569 186 LINE",
"782 186 LINE"
);
},
{
closed = 1;
nodes = (
"344 1405 LINE",
"748 1118 LINE",
"659 981 LINE",
"227 1225 LINE"
);
}
);
width = 1118;
}
);
unicode = 00EC;
},
{
glyphname = iacute;
lastChange = "2013-08-07 13:45:35 +0000";
layers = (
{
layerId = "7B42E6E7-B323-448C-AC07-14628C7F1CBB";
name = Bold;
paths = (
{
closed = 1;
nodes = (
"782 0 LINE",
"156 0 LINE",
"156 186 LINE",
"362 186 LINE",
"362 745 LINE",
"156 745 LINE",
"156 932 LINE",
"569 932 LINE",
"569 186 LINE",
"782 186 LINE"
);
},
{
closed = 1;
nodes = (
"711 1225 LINE",
"279 981 LINE",
"190 1118 LINE",
"594 1405 LINE"
);
}
);
width = 1118;
}
);
unicode = 00ED;
},
{
glyphname = icircumflex;
lastChange = "2013-08-07 13:45:35 +0000";
layers = (
{
layerId = "7B42E6E7-B323-448C-AC07-14628C7F1CBB";
name = Bold;
paths = (
{
closed = 1;
nodes = (
"782 0 LINE",
"156 0 LINE",
"156 186 LINE",
"362 186 LINE",
"362 745 LINE",
"156 745 LINE",
"156 932 LINE",
"569 932 LINE",
"569 186 LINE",
"782 186 LINE"
);
},
{
closed = 1;
nodes = (
"791 1085 LINE",
"711 983 LINE",
"469 1188 LINE",
"223 981 LINE",
"143 1081 LINE",
"467 1399 LINE"
);
}
);
width = 1118;
}
);
unicode = 00EE;
},
{
glyphname = idieresis;
lastChange = "2013-08-07 13:45:35 +0000";
layers = (
{
layerId = "7B42E6E7-B323-448C-AC07-14628C7F1CBB";
name = Bold;
paths = (
{
closed = 1;
nodes = (
"782 0 LINE",
"156 0 LINE",
"156 186 LINE",
"362 186 LINE",
"362 745 LINE",
"156 745 LINE",
"156 932 LINE",
"569 932 LINE",
"569 186 LINE",
"782 186 LINE"
);
},
{
closed = 1;
nodes = (
"778 1053 LINE",
"526 1053 LINE",
"526 1305 LINE",
"778 1305 LINE"
);
},
{
closed = 1;
nodes = (
"406 1053 LINE",
"154 1053 LINE",
"154 1305 LINE",
"406 1305 LINE"
);
}
);
width = 1118;
}
);
unicode = 00EF;
},
{
glyphname = eth;
lastChange = "2013-08-07 13:45:35 +0000";
layers = (
{
layerId = "7B42E6E7-B323-448C-AC07-14628C7F1CBB";
name = Bold;
paths = (
{
closed = 1;
nodes = (
"233 977 LINE",
"344 1087 LINE",
"297 1110 OFFCURVE",
"253 1128 OFFCURVE",
"201 1147 CURVE",
"264 1327 LINE",
"341 1298 OFFCURVE",
"412 1264 OFFCURVE",
"483 1227 CURVE",
"629 1372 LINE",
"748 1251 LINE",
"633 1137 LINE",
"725 1068 OFFCURVE",
"805 988 OFFCURVE",
"861 889 CURVE SMOOTH",
"917 790 OFFCURVE",
"950 676 OFFCURVE",
"950 537 CURVE SMOOTH",
"950 365 OFFCURVE",
"902 225 OFFCURVE",
"811 128 CURVE SMOOTH",
"720 31 OFFCURVE",
"591 -23 OFFCURVE",
"430 -23 CURVE SMOOTH",
"157 -23 OFFCURVE",
"-20 109 OFFCURVE",
"-20 354 CURVE SMOOTH",
"-20 491 OFFCURVE",
"46 598 OFFCURVE",
"165 680 CURVE SMOOTH",
"284 762 OFFCURVE",
"453 817 OFFCURVE",
"657 850 CURVE",
"616 909 OFFCURVE",
"564 960 OFFCURVE",
"500 1004 CURVE",
"352 856 LINE"
);
},
{
closed = 1;
nodes = (
"743 584 OFFCURVE",
"739 629 OFFCURVE",
"731 670 CURVE",
"390 639 OFFCURVE",
"186 526 OFFCURVE",
"186 354 CURVE SMOOTH",
"186 231 OFFCURVE",
"277 164 OFFCURVE",
"430 164 CURVE SMOOTH",
"615 164 OFFCURVE",
"743 296 OFFCURVE",
"743 537 CURVE SMOOTH"
);
}
);
width = 1118;
}
);
unicode = 00F0;
},
{
glyphname = ntilde;
lastChange = "2013-08-07 13:45:35 +0000";
layers = (
{
layerId = "7B42E6E7-B323-448C-AC07-14628C7F1CBB";
name = Bold;
paths = (
{
closed = 1;
nodes = (
"883 0 LINE",
"676 0 LINE",
"676 575 LINE SMOOTH",
"676 720 OFFCURVE",
"620 768 OFFCURVE",
"516 768 CURVE SMOOTH",
"363 768 OFFCURVE",
"256 637 OFFCURVE",
"256 418 CURVE SMOOTH",
"256 0 LINE",
"49 0 LINE",
"49 932 LINE",
"256 932 LINE",
"256 698 LINE",
"297 859 OFFCURVE",
"414 954 OFFCURVE",
"578 954 CURVE SMOOTH",
"769 954 OFFCURVE",
"883 832 OFFCURVE",
"883 575 CURVE SMOOTH"
);
},
{
closed = 1;
nodes = (
"874 1245 LINE",
"811 1117 OFFCURVE",
"723 1040 OFFCURVE",
"600 1040 CURVE SMOOTH",
"535 1040 OFFCURVE",
"491 1070 OFFCURVE",
"451 1099 CURVE SMOOTH",
"410 1127 OFFCURVE",
"372 1157 OFFCURVE",
"324 1157 CURVE SMOOTH",
"255 1157 OFFCURVE",
"214 1113 OFFCURVE",
"170 1038 CURVE",
"49 1108 LINE",
"112 1233 OFFCURVE",
"200 1311 OFFCURVE",
"324 1311 CURVE SMOOTH",
"389 1311 OFFCURVE",
"432 1281 OFFCURVE",
"473 1253 CURVE SMOOTH",
"514 1224 OFFCURVE",
"551 1194 OFFCURVE",
"600 1194 CURVE SMOOTH",
"668 1194 OFFCURVE",
"710 1238 OFFCURVE",
"754 1315 CURVE"
);
}
);
width = 1118;
}
);
unicode = 00F1;
},
{
glyphname = ograve;
lastChange = "2013-08-07 13:45:35 +0000";
layers = (
{
layerId = "7B42E6E7-B323-448C-AC07-14628C7F1CBB";
name = Bold;
paths = (
{
closed = 1;
nodes = (
"956 320 OFFCURVE",
"909 200 OFFCURVE",
"823 114 CURVE SMOOTH",
"737 28 OFFCURVE",
"615 -23 OFFCURVE",
"467 -23 CURVE SMOOTH",
"322 -23 OFFCURVE",
"200 28 OFFCURVE",
"114 114 CURVE SMOOTH",
"28 200 OFFCURVE",
"-20 320 OFFCURVE",
"-20 465 CURVE SMOOTH",
"-20 606 OFFCURVE",
"28 730 OFFCURVE",
"114 818 CURVE SMOOTH",
"200 905 OFFCURVE",
"322 954 OFFCURVE",
"467 954 CURVE SMOOTH",
"615 954 OFFCURVE",
"737 905 OFFCURVE",
"823 818 CURVE SMOOTH",
"909 730 OFFCURVE",
"956 606 OFFCURVE",
"956 465 CURVE SMOOTH"
);
},
{
closed = 1;
nodes = (
"750 549 OFFCURVE",
"723 628 OFFCURVE",
"674 681 CURVE SMOOTH",
"625 734 OFFCURVE",
"554 768 OFFCURVE",
"467 768 CURVE SMOOTH",
"379 768 OFFCURVE",
"309 734 OFFCURVE",
"261 681 CURVE SMOOTH",
"213 628 OFFCURVE",
"186 549 OFFCURVE",
"186 465 CURVE SMOOTH",
"186 377 OFFCURVE",
"213 305 OFFCURVE",
"261 250 CURVE SMOOTH",
"309 195 OFFCURVE",
"379 164 OFFCURVE",
"467 164 CURVE SMOOTH",
"554 164 OFFCURVE",
"625 195 OFFCURVE",
"674 250 CURVE SMOOTH",
"723 305 OFFCURVE",
"750 377 OFFCURVE",
"750 465 CURVE SMOOTH"
);
},
{
closed = 1;
nodes = (
"344 1405 LINE",
"748 1118 LINE",
"659 981 LINE",
"227 1225 LINE"
);
}
);
width = 1118;
}
);
unicode = 00F2;
},
{
glyphname = oacute;
lastChange = "2013-08-07 13:45:35 +0000";
layers = (
{
layerId = "7B42E6E7-B323-448C-AC07-14628C7F1CBB";
name = Bold;
paths = (
{
closed = 1;
nodes = (
"956 320 OFFCURVE",
"909 200 OFFCURVE",
"823 114 CURVE SMOOTH",
"737 28 OFFCURVE",
"615 -23 OFFCURVE",
"467 -23 CURVE SMOOTH",
"322 -23 OFFCURVE",
"200 28 OFFCURVE",
"114 114 CURVE SMOOTH",
"28 200 OFFCURVE",
"-20 320 OFFCURVE",
"-20 465 CURVE SMOOTH",
"-20 606 OFFCURVE",
"28 730 OFFCURVE",
"114 818 CURVE SMOOTH",
"200 905 OFFCURVE",
"322 954 OFFCURVE",
"467 954 CURVE SMOOTH",
"615 954 OFFCURVE",
"737 905 OFFCURVE",
"823 818 CURVE SMOOTH",
"909 730 OFFCURVE",
"956 606 OFFCURVE",
"956 465 CURVE SMOOTH"
);
},
{
closed = 1;
nodes = (
"750 549 OFFCURVE",
"723 628 OFFCURVE",
"674 681 CURVE SMOOTH",
"625 734 OFFCURVE",
"554 768 OFFCURVE",
"467 768 CURVE SMOOTH",
"379 768 OFFCURVE",
"309 734 OFFCURVE",
"261 681 CURVE SMOOTH",
"213 628 OFFCURVE",
"186 549 OFFCURVE",
"186 465 CURVE SMOOTH",
"186 377 OFFCURVE",
"213 305 OFFCURVE",
"261 250 CURVE SMOOTH",
"309 195 OFFCURVE",
"379 164 OFFCURVE",
"467 164 CURVE SMOOTH",
"554 164 OFFCURVE",
"625 195 OFFCURVE",
"674 250 CURVE SMOOTH",
"723 305 OFFCURVE",
"750 377 OFFCURVE",
"750 465 CURVE SMOOTH"
);
},
{
closed = 1;
nodes = (
"711 1225 LINE",
"279 981 LINE",
"190 1118 LINE",
"594 1405 LINE"
);
}
);
width = 1118;
}
);
unicode = 00F3;
},
{
glyphname = ocircumflex;
lastChange = "2013-08-07 13:45:35 +0000";
layers = (
{
layerId = "7B42E6E7-B323-448C-AC07-14628C7F1CBB";
name = Bold;
paths = (
{
closed = 1;
nodes = (
"956 320 OFFCURVE",
"909 200 OFFCURVE",
"823 114 CURVE SMOOTH",
"737 28 OFFCURVE",
"615 -23 OFFCURVE",
"467 -23 CURVE SMOOTH",
"322 -23 OFFCURVE",
"200 28 OFFCURVE",
"114 114 CURVE SMOOTH",
"28 200 OFFCURVE",
"-20 320 OFFCURVE",
"-20 465 CURVE SMOOTH",
"-20 606 OFFCURVE",
"28 730 OFFCURVE",
"114 818 CURVE SMOOTH",
"200 905 OFFCURVE",
"322 954 OFFCURVE",
"467 954 CURVE SMOOTH",
"615 954 OFFCURVE",
"737 905 OFFCURVE",
"823 818 CURVE SMOOTH",
"909 730 OFFCURVE",
"956 606 OFFCURVE",
"956 465 CURVE SMOOTH"
);
},
{
closed = 1;
nodes = (
"750 549 OFFCURVE",
"723 628 OFFCURVE",
"674 681 CURVE SMOOTH",
"625 734 OFFCURVE",
"554 768 OFFCURVE",
"467 768 CURVE SMOOTH",
"379 768 OFFCURVE",
"309 734 OFFCURVE",
"261 681 CURVE SMOOTH",
"213 628 OFFCURVE",
"186 549 OFFCURVE",
"186 465 CURVE SMOOTH",
"186 377 OFFCURVE",
"213 305 OFFCURVE",
"261 250 CURVE SMOOTH",
"309 195 OFFCURVE",
"379 164 OFFCURVE",
"467 164 CURVE SMOOTH",
"554 164 OFFCURVE",
"625 195 OFFCURVE",
"674 250 CURVE SMOOTH",
"723 305 OFFCURVE",
"750 377 OFFCURVE",
"750 465 CURVE SMOOTH"
);
},
{
closed = 1;
nodes = (
"791 1085 LINE",
"711 983 LINE",
"469 1188 LINE",
"223 981 LINE",
"143 1081 LINE",
"467 1399 LINE"
);
}
);
width = 1118;
}
);
unicode = 00F4;
},
{
glyphname = otilde;
lastChange = "2013-08-07 13:45:35 +0000";
layers = (
{
layerId = "7B42E6E7-B323-448C-AC07-14628C7F1CBB";
name = Bold;
paths = (
{
closed = 1;
nodes = (
"956 320 OFFCURVE",
"909 200 OFFCURVE",
"823 114 CURVE SMOOTH",
"737 28 OFFCURVE",
"615 -23 OFFCURVE",
"467 -23 CURVE SMOOTH",
"322 -23 OFFCURVE",
"200 28 OFFCURVE",
"114 114 CURVE SMOOTH",
"28 200 OFFCURVE",
"-20 320 OFFCURVE",
"-20 465 CURVE SMOOTH",
"-20 606 OFFCURVE",
"28 730 OFFCURVE",
"114 818 CURVE SMOOTH",
"200 905 OFFCURVE",
"322 954 OFFCURVE",
"467 954 CURVE SMOOTH",
"615 954 OFFCURVE",
"737 905 OFFCURVE",
"823 818 CURVE SMOOTH",
"909 730 OFFCURVE",
"956 606 OFFCURVE",
"956 465 CURVE SMOOTH"
);
},
{
closed = 1;
nodes = (
"750 549 OFFCURVE",
"723 628 OFFCURVE",
"674 681 CURVE SMOOTH",
"625 734 OFFCURVE",
"554 768 OFFCURVE",
"467 768 CURVE SMOOTH",
"379 768 OFFCURVE",
"309 734 OFFCURVE",
"261 681 CURVE SMOOTH",
"213 628 OFFCURVE",
"186 549 OFFCURVE",
"186 465 CURVE SMOOTH",
"186 377 OFFCURVE",
"213 305 OFFCURVE",
"261 250 CURVE SMOOTH",
"309 195 OFFCURVE",
"379 164 OFFCURVE",
"467 164 CURVE SMOOTH",
"554 164 OFFCURVE",
"625 195 OFFCURVE",
"674 250 CURVE SMOOTH",
"723 305 OFFCURVE",
"750 377 OFFCURVE",
"750 465 CURVE SMOOTH"
);
},
{
closed = 1;
nodes = (
"874 1245 LINE",
"811 1117 OFFCURVE",
"723 1040 OFFCURVE",
"600 1040 CURVE SMOOTH",
"535 1040 OFFCURVE",
"491 1070 OFFCURVE",
"451 1099 CURVE SMOOTH",
"410 1127 OFFCURVE",
"372 1157 OFFCURVE",
"324 1157 CURVE SMOOTH",
"255 1157 OFFCURVE",
"214 1113 OFFCURVE",
"170 1038 CURVE",
"49 1108 LINE",
"112 1233 OFFCURVE",
"200 1311 OFFCURVE",
"324 1311 CURVE SMOOTH",
"389 1311 OFFCURVE",
"432 1281 OFFCURVE",
"473 1253 CURVE SMOOTH",
"514 1224 OFFCURVE",
"551 1194 OFFCURVE",
"600 1194 CURVE SMOOTH",
"668 1194 OFFCURVE",
"710 1238 OFFCURVE",
"754 1315 CURVE"
);
}
);
width = 1118;
}
);
unicode = 00F5;
},
{
glyphname = odieresis;
lastChange = "2013-08-07 13:45:35 +0000";
layers = (
{
layerId = "7B42E6E7-B323-448C-AC07-14628C7F1CBB";
name = Bold;
paths = (
{
closed = 1;
nodes = (
"956 320 OFFCURVE",
"909 200 OFFCURVE",
"823 114 CURVE SMOOTH",
"737 28 OFFCURVE",
"615 -23 OFFCURVE",
"467 -23 CURVE SMOOTH",
"322 -23 OFFCURVE",
"200 28 OFFCURVE",
"114 114 CURVE SMOOTH",
"28 200 OFFCURVE",
"-20 320 OFFCURVE",
"-20 465 CURVE SMOOTH",
"-20 606 OFFCURVE",
"28 730 OFFCURVE",
"114 818 CURVE SMOOTH",
"200 905 OFFCURVE",
"322 954 OFFCURVE",
"467 954 CURVE SMOOTH",
"615 954 OFFCURVE",
"737 905 OFFCURVE",
"823 818 CURVE SMOOTH",
"909 730 OFFCURVE",
"956 606 OFFCURVE",
"956 465 CURVE SMOOTH"
);
},
{
closed = 1;
nodes = (
"750 549 OFFCURVE",
"723 628 OFFCURVE",
"674 681 CURVE SMOOTH",
"625 734 OFFCURVE",
"554 768 OFFCURVE",
"467 768 CURVE SMOOTH",
"379 768 OFFCURVE",
"309 734 OFFCURVE",
"261 681 CURVE SMOOTH",
"213 628 OFFCURVE",
"186 549 OFFCURVE",
"186 465 CURVE SMOOTH",
"186 377 OFFCURVE",
"213 305 OFFCURVE",
"261 250 CURVE SMOOTH",
"309 195 OFFCURVE",
"379 164 OFFCURVE",
"467 164 CURVE SMOOTH",
"554 164 OFFCURVE",
"625 195 OFFCURVE",
"674 250 CURVE SMOOTH",
"723 305 OFFCURVE",
"750 377 OFFCURVE",
"750 465 CURVE SMOOTH"
);
},
{
closed = 1;
nodes = (
"778 1053 LINE",
"526 1053 LINE",
"526 1305 LINE",
"778 1305 LINE"
);
},
{
closed = 1;
nodes = (
"406 1053 LINE",
"154 1053 LINE",
"154 1305 LINE",
"406 1305 LINE"
);
}
);
width = 1118;
}
);
unicode = 00F6;
},
{
glyphname = divide;
lastChange = "2013-08-07 13:45:35 +0000";
layers = (
{
layerId = "7B42E6E7-B323-448C-AC07-14628C7F1CBB";
name = Bold;
paths = (
{
closed = 1;
nodes = (
"592 725 LINE",
"340 725 LINE",
"340 977 LINE",
"592 977 LINE"
);
},
{
closed = 1;
nodes = (
"592 -20 LINE",
"340 -20 LINE",
"340 232 LINE",
"592 232 LINE"
);
},
{
closed = 1;
nodes = (
"932 385 LINE",
"0 385 LINE",
"0 572 LINE",
"932 572 LINE"
);
}
);
width = 1118;
}
);
unicode = 00F7;
},
{
glyphname = oslash;
lastChange = "2013-08-07 13:45:35 +0000";
layers = (
{
anchors = (
{
name = top;
position = "{559, 932}";
}
);
layerId = "7B42E6E7-B323-448C-AC07-14628C7F1CBB";
name = Bold;
paths = (
{
closed = 1;
nodes = (
"0 180 LINE",
"39 213 LINE",
"0 284 OFFCURVE",
"-23 369 OFFCURVE",
"-23 465 CURVE SMOOTH",
"-23 606 OFFCURVE",
"28 730 OFFCURVE",
"114 818 CURVE SMOOTH",
"200 905 OFFCURVE",
"322 954 OFFCURVE",
"467 954 CURVE SMOOTH",
"598 954 OFFCURVE",
"710 911 OFFCURVE",
"795 840 CURVE",
"932 954 LINE",
"932 752 LINE",
"893 719 LINE",
"932 646 OFFCURVE",
"954 561 OFFCURVE",
"954 465 CURVE SMOOTH",
"954 320 OFFCURVE",
"907 200 OFFCURVE",
"821 114 CURVE SMOOTH",
"735 28 OFFCURVE",
"615 -23 OFFCURVE",
"467 -23 CURVE SMOOTH",
"334 -23 OFFCURVE",
"222 19 OFFCURVE",
"137 90 CURVE",
"0 -23 LINE"
);
},
{
closed = 1;
nodes = (
"748 507 OFFCURVE",
"742 547 OFFCURVE",
"729 584 CURVE",
"291 219 LINE",
"338 184 OFFCURVE",
"396 164 OFFCURVE",
"467 164 CURVE SMOOTH",
"554 164 OFFCURVE",
"625 195 OFFCURVE",
"673 250 CURVE SMOOTH",
"721 305 OFFCURVE",
"748 377 OFFCURVE",
"748 465 CURVE SMOOTH"
);
},
{
closed = 1;
nodes = (
"184 421 OFFCURVE",
"190 382 OFFCURVE",
"203 348 CURVE",
"639 711 LINE",
"592 749 OFFCURVE",
"535 768 OFFCURVE",
"467 768 CURVE SMOOTH",
"379 768 OFFCURVE",
"309 734 OFFCURVE",
"260 681 CURVE SMOOTH",
"211 628 OFFCURVE",
"184 549 OFFCURVE",
"184 465 CURVE SMOOTH"
);
}
);
width = 1118;
}
);
unicode = 00F8;
},
{
glyphname = ugrave;
lastChange = "2013-08-07 13:45:35 +0000";
layers = (
{
layerId = "7B42E6E7-B323-448C-AC07-14628C7F1CBB";
name = Bold;
paths = (
{
closed = 1;
nodes = (
"49 932 LINE",
"256 932 LINE",
"256 356 LINE SMOOTH",
"256 212 OFFCURVE",
"312 164 OFFCURVE",
"416 164 CURVE SMOOTH",
"568 164 OFFCURVE",
"676 295 OFFCURVE",
"676 514 CURVE SMOOTH",
"676 932 LINE",
"883 932 LINE",
"883 0 LINE",
"676 0 LINE",
"676 233 LINE",
"635 73 OFFCURVE",
"518 -23 OFFCURVE",
"354 -23 CURVE SMOOTH",
"163 -23 OFFCURVE",
"49 100 OFFCURVE",
"49 356 CURVE SMOOTH"
);
},
{
closed = 1;
nodes = (
"344 1405 LINE",
"748 1118 LINE",
"659 981 LINE",
"227 1225 LINE"
);
}
);
width = 1118;
}
);
unicode = 00F9;
},
{
glyphname = uacute;
lastChange = "2013-08-07 13:45:35 +0000";
layers = (
{
layerId = "7B42E6E7-B323-448C-AC07-14628C7F1CBB";
name = Bold;
paths = (
{
closed = 1;
nodes = (
"49 932 LINE",
"256 932 LINE",
"256 356 LINE SMOOTH",
"256 212 OFFCURVE",
"312 164 OFFCURVE",
"416 164 CURVE SMOOTH",
"568 164 OFFCURVE",
"676 295 OFFCURVE",
"676 514 CURVE SMOOTH",
"676 932 LINE",
"883 932 LINE",
"883 0 LINE",
"676 0 LINE",
"676 233 LINE",
"635 73 OFFCURVE",
"518 -23 OFFCURVE",
"354 -23 CURVE SMOOTH",
"163 -23 OFFCURVE",
"49 100 OFFCURVE",
"49 356 CURVE SMOOTH"
);
},
{
closed = 1;
nodes = (
"711 1225 LINE",
"279 981 LINE",
"190 1118 LINE",
"594 1405 LINE"
);
}
);
width = 1118;
}
);
unicode = 00FA;
},
{
glyphname = ucircumflex;
lastChange = "2013-08-07 13:45:35 +0000";
layers = (
{
layerId = "7B42E6E7-B323-448C-AC07-14628C7F1CBB";
name = Bold;
paths = (
{
closed = 1;
nodes = (
"49 932 LINE",
"256 932 LINE",
"256 356 LINE SMOOTH",
"256 212 OFFCURVE",
"312 164 OFFCURVE",
"416 164 CURVE SMOOTH",
"568 164 OFFCURVE",
"676 295 OFFCURVE",
"676 514 CURVE SMOOTH",
"676 932 LINE",
"883 932 LINE",
"883 0 LINE",
"676 0 LINE",
"676 233 LINE",
"635 73 OFFCURVE",
"518 -23 OFFCURVE",
"354 -23 CURVE SMOOTH",
"163 -23 OFFCURVE",
"49 100 OFFCURVE",
"49 356 CURVE SMOOTH"
);
},
{
closed = 1;
nodes = (
"791 1085 LINE",
"711 983 LINE",
"469 1188 LINE",
"223 981 LINE",
"143 1081 LINE",
"467 1399 LINE"
);
}
);
width = 1118;
}
);
unicode = 00FB;
},
{
glyphname = udieresis;
lastChange = "2013-08-07 13:45:35 +0000";
layers = (
{
layerId = "7B42E6E7-B323-448C-AC07-14628C7F1CBB";
name = Bold;
paths = (
{
closed = 1;
nodes = (
"49 932 LINE",
"256 932 LINE",
"256 356 LINE SMOOTH",
"256 212 OFFCURVE",
"312 164 OFFCURVE",
"416 164 CURVE SMOOTH",
"568 164 OFFCURVE",
"676 295 OFFCURVE",
"676 514 CURVE SMOOTH",
"676 932 LINE",
"883 932 LINE",
"883 0 LINE",
"676 0 LINE",
"676 233 LINE",
"635 73 OFFCURVE",
"518 -23 OFFCURVE",
"354 -23 CURVE SMOOTH",
"163 -23 OFFCURVE",
"49 100 OFFCURVE",
"49 356 CURVE SMOOTH"
);
},
{
closed = 1;
nodes = (
"778 1053 LINE",
"526 1053 LINE",
"526 1305 LINE",
"778 1305 LINE"
);
},
{
closed = 1;
nodes = (
"406 1053 LINE",
"154 1053 LINE",
"154 1305 LINE",
"406 1305 LINE"
);
}
);
width = 1118;
}
);
unicode = 00FC;
},
{
glyphname = yacute;
lastChange = "2013-08-07 13:45:35 +0000";
layers = (
{
layerId = "7B42E6E7-B323-448C-AC07-14628C7F1CBB";
name = Bold;
paths = (
{
closed = 1;
nodes = (
"924 932 LINE",
"522 -182 LINE SMOOTH",
"462 -343 OFFCURVE",
"345 -393 OFFCURVE",
"186 -393 CURVE SMOOTH",
"131 -393 OFFCURVE",
"68 -383 OFFCURVE",
"0 -358 CURVE",
"43 -168 LINE",
"100 -189 OFFCURVE",
"149 -197 OFFCURVE",
"186 -197 CURVE SMOOTH",
"248 -197 OFFCURVE",
"290 -170 OFFCURVE",
"313 -115 CURVE SMOOTH",
"350 -25 LINE",
"-6 932 LINE",
"209 932 LINE",
"465 227 LINE",
"702 932 LINE"
);
},
{
closed = 1;
nodes = (
"711 1225 LINE",
"279 981 LINE",
"190 1118 LINE",
"594 1405 LINE"
);
}
);
width = 1118;
}
);
unicode = 00FD;
},
{
glyphname = thorn;
lastChange = "2013-08-07 13:45:35 +0000";
layers = (
{
layerId = "7B42E6E7-B323-448C-AC07-14628C7F1CBB";
name = Bold;
paths = (
{
closed = 1;
nodes = (
"49 1305 LINE",
"256 1305 LINE",
"256 848 LINE",
"335 919 OFFCURVE",
"410 954 OFFCURVE",
"514 954 CURVE SMOOTH",
"634 954 OFFCURVE",
"740 903 OFFCURVE",
"813 817 CURVE SMOOTH",
"886 731 OFFCURVE",
"932 606 OFFCURVE",
"932 465 CURVE SMOOTH",
"932 322 OFFCURVE",
"886 200 OFFCURVE",
"813 114 CURVE SMOOTH",
"740 28 OFFCURVE",
"634 -23 OFFCURVE",
"514 -23 CURVE SMOOTH",
"410 -23 OFFCURVE",
"335 15 OFFCURVE",
"256 86 CURVE",
"256 -373 LINE",
"49 -373 LINE"
);
},
{
closed = 1;
nodes = (
"256 248 LINE",
"305 193 OFFCURVE",
"390 164 OFFCURVE",
"461 164 CURVE SMOOTH",
"617 164 OFFCURVE",
"725 285 OFFCURVE",
"725 465 CURVE SMOOTH",
"725 645 OFFCURVE",
"617 768 OFFCURVE",
"461 768 CURVE SMOOTH",
"390 768 OFFCURVE",
"305 739 OFFCURVE",
"256 684 CURVE"
);
}
);
width = 1118;
}
);
unicode = 00FE;
},
{
glyphname = ydieresis;
lastChange = "2013-08-07 13:45:35 +0000";
layers = (
{
layerId = "7B42E6E7-B323-448C-AC07-14628C7F1CBB";
name = Bold;
paths = (
{
closed = 1;
nodes = (
"924 932 LINE",
"522 -182 LINE SMOOTH",
"462 -343 OFFCURVE",
"345 -393 OFFCURVE",
"186 -393 CURVE SMOOTH",
"131 -393 OFFCURVE",
"68 -383 OFFCURVE",
"0 -358 CURVE",
"43 -168 LINE",
"100 -189 OFFCURVE",
"149 -197 OFFCURVE",
"186 -197 CURVE SMOOTH",
"248 -197 OFFCURVE",
"290 -170 OFFCURVE",
"313 -115 CURVE SMOOTH",
"350 -25 LINE",
"-6 932 LINE",
"209 932 LINE",
"465 227 LINE",
"702 932 LINE"
);
},
{
closed = 1;
nodes = (
"778 1053 LINE",
"526 1053 LINE",
"526 1305 LINE",
"778 1305 LINE"
);
},
{
closed = 1;
nodes = (
"406 1053 LINE",
"154 1053 LINE",
"154 1305 LINE",
"406 1305 LINE"
);
}
);
width = 1118;
}
);
unicode = 00FF;
},
{
glyphname = Amacron;
lastChange = "2013-08-07 13:45:35 +0000";
layers = (
{
layerId = "7B42E6E7-B323-448C-AC07-14628C7F1CBB";
name = Bold;
paths = (
{
closed = 1;
nodes = (
"776 0 LINE",
"682 311 LINE",
"250 311 LINE",
"158 0 LINE",
"-59 0 LINE",
"348 1305 LINE",
"586 1305 LINE",
"993 0 LINE"
);
},
{
closed = 1;
nodes = (
"305 494 LINE",
"627 494 LINE",
"467 1032 LINE"
);
},
{
closed = 1;
nodes = (
"745 1415 LINE",
"186 1415 LINE",
"186 1590 LINE",
"745 1590 LINE"
);
}
);
width = 1118;
}
);
unicode = 0100;
},
{
glyphname = amacron;
lastChange = "2013-08-07 13:45:35 +0000";
layers = (
{
layerId = "7B42E6E7-B323-448C-AC07-14628C7F1CBB";
name = Bold;
paths = (
{
closed = 1;
nodes = (
"-4 377 OFFCURVE",
"60 459 OFFCURVE",
"156 514 CURVE SMOOTH",
"251 569 OFFCURVE",
"380 596 OFFCURVE",
"508 596 CURVE SMOOTH",
"579 596 OFFCURVE",
"624 593 OFFCURVE",
"676 588 CURVE",
"676 625 LINE SMOOTH",
"676 722 OFFCURVE",
"594 770 OFFCURVE",
"471 770 CURVE SMOOTH",
"359 770 OFFCURVE",
"239 738 OFFCURVE",
"135 678 CURVE",
"51 840 LINE",
"174 911 OFFCURVE",
"315 954 OFFCURVE",
"471 954 CURVE SMOOTH",
"572 954 OFFCURVE",
"675 933 OFFCURVE",
"753 881 CURVE SMOOTH",
"831 829 OFFCURVE",
"881 748 OFFCURVE",
"881 625 CURVE SMOOTH",
"881 0 LINE",
"676 0 LINE",
"676 137 LINE",
"611 36 OFFCURVE",
"473 -23 OFFCURVE",
"326 -23 CURVE SMOOTH",
"235 -23 OFFCURVE",
"152 2 OFFCURVE",
"93 51 CURVE SMOOTH",
"34 100 OFFCURVE",
"-4 173 OFFCURVE",
"-4 268 CURVE SMOOTH"
);
},
{
closed = 1;
nodes = (
"460 162 OFFCURVE",
"533 184 OFFCURVE",
"588 221 CURVE SMOOTH",
"643 257 OFFCURVE",
"676 310 OFFCURVE",
"676 373 CURVE SMOOTH",
"676 408 LINE",
"611 419 OFFCURVE",
"552 418 OFFCURVE",
"508 418 CURVE SMOOTH",
"407 418 OFFCURVE",
"330 405 OFFCURVE",
"279 378 CURVE SMOOTH",
"227 351 OFFCURVE",
"201 318 OFFCURVE",
"201 279 CURVE SMOOTH",
"201 201 OFFCURVE",
"260 162 OFFCURVE",
"379 162 CURVE SMOOTH"
);
},
{
closed = 1;
nodes = (
"745 1044 LINE",
"186 1044 LINE",
"186 1219 LINE",
"745 1219 LINE"
);
}
);
width = 1118;
}
);
unicode = 0101;
},
{
glyphname = Abreve;
lastChange = "2013-08-07 13:45:35 +0000";
layers = (
{
layerId = "7B42E6E7-B323-448C-AC07-14628C7F1CBB";
name = Bold;
paths = (
{
closed = 1;
nodes = (
"776 0 LINE",
"682 311 LINE",
"250 311 LINE",
"158 0 LINE",
"-59 0 LINE",
"348 1305 LINE",
"586 1305 LINE",
"993 0 LINE"
);
},
{
closed = 1;
nodes = (
"305 494 LINE",
"627 494 LINE",
"467 1032 LINE"
);
},
{
closed = 1;
nodes = (
"795 1538 LINE",
"704 1448 OFFCURVE",
"595 1403 OFFCURVE",
"467 1403 CURVE SMOOTH",
"338 1403 OFFCURVE",
"229 1448 OFFCURVE",
"139 1538 CURVE",
"260 1657 LINE",
"323 1594 OFFCURVE",
"392 1563 OFFCURVE",
"467 1563 CURVE SMOOTH",
"542 1563 OFFCURVE",
"611 1594 OFFCURVE",
"674 1657 CURVE"
);
}
);
width = 1118;
}
);
unicode = 0102;
},
{
glyphname = abreve;
lastChange = "2013-08-07 13:45:35 +0000";
layers = (
{
layerId = "7B42E6E7-B323-448C-AC07-14628C7F1CBB";
name = Bold;
paths = (
{
closed = 1;
nodes = (
"-4 377 OFFCURVE",
"60 459 OFFCURVE",
"156 514 CURVE SMOOTH",
"251 569 OFFCURVE",
"380 596 OFFCURVE",
"508 596 CURVE SMOOTH",
"579 596 OFFCURVE",
"624 593 OFFCURVE",
"676 588 CURVE",
"676 625 LINE SMOOTH",
"676 722 OFFCURVE",
"594 770 OFFCURVE",
"471 770 CURVE SMOOTH",
"359 770 OFFCURVE",
"239 738 OFFCURVE",
"135 678 CURVE",
"51 840 LINE",
"174 911 OFFCURVE",
"315 954 OFFCURVE",
"471 954 CURVE SMOOTH",
"572 954 OFFCURVE",
"675 933 OFFCURVE",
"753 881 CURVE SMOOTH",
"831 829 OFFCURVE",
"881 748 OFFCURVE",
"881 625 CURVE SMOOTH",
"881 0 LINE",
"676 0 LINE",
"676 137 LINE",
"611 36 OFFCURVE",
"473 -23 OFFCURVE",
"326 -23 CURVE SMOOTH",
"235 -23 OFFCURVE",
"152 2 OFFCURVE",
"93 51 CURVE SMOOTH",
"34 100 OFFCURVE",
"-4 173 OFFCURVE",
"-4 268 CURVE SMOOTH"
);
},
{
closed = 1;
nodes = (
"460 162 OFFCURVE",
"533 184 OFFCURVE",
"588 221 CURVE SMOOTH",
"643 257 OFFCURVE",
"676 310 OFFCURVE",
"676 373 CURVE SMOOTH",
"676 408 LINE",
"611 419 OFFCURVE",
"552 418 OFFCURVE",
"508 418 CURVE SMOOTH",
"407 418 OFFCURVE",
"330 405 OFFCURVE",
"279 378 CURVE SMOOTH",
"227 351 OFFCURVE",
"201 318 OFFCURVE",
"201 279 CURVE SMOOTH",
"201 201 OFFCURVE",
"260 162 OFFCURVE",
"379 162 CURVE SMOOTH"
);
},
{
closed = 1;
nodes = (
"795 1167 LINE",
"704 1077 OFFCURVE",
"595 1032 OFFCURVE",
"467 1032 CURVE SMOOTH",
"338 1032 OFFCURVE",
"229 1077 OFFCURVE",
"139 1167 CURVE",
"260 1286 LINE",
"323 1223 OFFCURVE",
"392 1192 OFFCURVE",
"467 1192 CURVE SMOOTH",
"542 1192 OFFCURVE",
"611 1223 OFFCURVE",
"674 1286 CURVE"
);
}
);
width = 1118;
}
);
unicode = 0103;
},
{
glyphname = Aogonek;
lastChange = "2013-08-07 13:45:35 +0000";
layers = (
{
layerId = "7B42E6E7-B323-448C-AC07-14628C7F1CBB";
name = Bold;
paths = (
{
closed = 1;
nodes = (
"1106 -379 LINE",
"926 -379 OFFCURVE",
"813 -300 OFFCURVE",
"813 -141 CURVE SMOOTH",
"813 -86 OFFCURVE",
"834 -39 OFFCURVE",
"866 0 CURVE",
"776 0 LINE",
"682 311 LINE",
"250 311 LINE",
"158 0 LINE",
"-59 0 LINE",
"348 1305 LINE",
"586 1305 LINE",
"993 0 LINE",
"967 -29 OFFCURVE",
"954 -63 OFFCURVE",
"954 -104 CURVE SMOOTH",
"954 -189 OFFCURVE",
"1021 -231 OFFCURVE",
"1106 -231 CURVE"
);
},
{
closed = 1;
nodes = (
"305 494 LINE",
"627 494 LINE",
"467 1032 LINE"
);
}
);
width = 1118;
}
);
unicode = 0104;
},
{
glyphname = aogonek;
lastChange = "2013-08-07 13:45:35 +0000";
layers = (
{
layerId = "7B42E6E7-B323-448C-AC07-14628C7F1CBB";
name = Bold;
paths = (
{
closed = 1;
nodes = (
"676 137 LINE",
"611 36 OFFCURVE",
"473 -23 OFFCURVE",
"326 -23 CURVE SMOOTH",
"235 -23 OFFCURVE",
"152 2 OFFCURVE",
"93 51 CURVE SMOOTH",
"34 100 OFFCURVE",
"-4 173 OFFCURVE",
"-4 268 CURVE SMOOTH",
"-4 377 OFFCURVE",
"60 459 OFFCURVE",
"156 514 CURVE SMOOTH",
"251 569 OFFCURVE",
"380 596 OFFCURVE",
"508 596 CURVE SMOOTH",
"579 596 OFFCURVE",
"624 593 OFFCURVE",
"676 588 CURVE",
"676 625 LINE SMOOTH",
"676 722 OFFCURVE",
"594 770 OFFCURVE",
"471 770 CURVE SMOOTH",
"359 770 OFFCURVE",
"239 738 OFFCURVE",
"135 678 CURVE",
"51 840 LINE",
"174 911 OFFCURVE",
"315 954 OFFCURVE",
"471 954 CURVE SMOOTH",
"572 954 OFFCURVE",
"675 933 OFFCURVE",
"753 881 CURVE SMOOTH",
"831 829 OFFCURVE",
"881 748 OFFCURVE",
"881 625 CURVE SMOOTH",
"881 0 LINE",
"855 -29 OFFCURVE",
"842 -63 OFFCURVE",
"842 -104 CURVE SMOOTH",
"842 -189 OFFCURVE",
"909 -231 OFFCURVE",
"993 -231 CURVE",
"993 -379 LINE",
"813 -379 OFFCURVE",
"700 -300 OFFCURVE",
"700 -141 CURVE SMOOTH",
"700 -86 OFFCURVE",
"721 -39 OFFCURVE",
"754 0 CURVE",
"676 0 LINE"
);
},
{
closed = 1;
nodes = (
"460 162 OFFCURVE",
"533 184 OFFCURVE",
"588 221 CURVE SMOOTH",
"643 257 OFFCURVE",
"676 310 OFFCURVE",
"676 373 CURVE SMOOTH",
"676 408 LINE",
"611 419 OFFCURVE",
"552 418 OFFCURVE",
"508 418 CURVE SMOOTH",
"407 418 OFFCURVE",
"330 405 OFFCURVE",
"279 378 CURVE SMOOTH",
"227 351 OFFCURVE",
"201 318 OFFCURVE",
"201 279 CURVE SMOOTH",
"201 201 OFFCURVE",
"260 162 OFFCURVE",
"379 162 CURVE SMOOTH"
);
}
);
width = 1118;
}
);
unicode = 0105;
},
{
glyphname = Cacute;
lastChange = "2013-08-07 13:45:35 +0000";
layers = (
{
layerId = "7B42E6E7-B323-448C-AC07-14628C7F1CBB";
name = Bold;
paths = (
{
closed = 1;
nodes = (
"952 399 LINE",
"920 271 OFFCURVE",
"867 165 OFFCURVE",
"791 92 CURVE SMOOTH",
"714 19 OFFCURVE",
"613 -23 OFFCURVE",
"481 -23 CURVE SMOOTH",
"298 -23 OFFCURVE",
"174 59 OFFCURVE",
"94 185 CURVE SMOOTH",
"13 311 OFFCURVE",
"-20 478 OFFCURVE",
"-20 653 CURVE SMOOTH",
"-20 828 OFFCURVE",
"13 997 OFFCURVE",
"93 1121 CURVE SMOOTH",
"172 1245 OFFCURVE",
"292 1327 OFFCURVE",
"469 1327 CURVE SMOOTH",
"526 1327 OFFCURVE",
"587 1313 OFFCURVE",
"638 1283 CURVE SMOOTH",
"689 1253 OFFCURVE",
"729 1208 OFFCURVE",
"745 1151 CURVE",
"745 1305 LINE",
"932 1305 LINE",
"932 811 LINE",
"745 811 LINE",
"745 892 OFFCURVE",
"726 976 OFFCURVE",
"682 1037 CURVE SMOOTH",
"638 1098 OFFCURVE",
"572 1141 OFFCURVE",
"481 1141 CURVE SMOOTH",
"364 1141 OFFCURVE",
"292 1078 OFFCURVE",
"247 985 CURVE SMOOTH",
"202 892 OFFCURVE",
"186 770 OFFCURVE",
"186 653 CURVE SMOOTH",
"186 536 OFFCURVE",
"202 412 OFFCURVE",
"246 320 CURVE SMOOTH",
"290 227 OFFCURVE",
"364 164 OFFCURVE",
"481 164 CURVE SMOOTH",
"650 164 OFFCURVE",
"731 280 OFFCURVE",
"786 463 CURVE"
);
},
{
closed = 1;
nodes = (
"711 1600 LINE",
"279 1356 LINE",
"190 1493 LINE",
"594 1780 LINE"
);
}
);
width = 1118;
}
);
unicode = 0106;
},
{
glyphname = cacute;
lastChange = "2013-08-07 13:45:35 +0000";
layers = (
{
layerId = "7B42E6E7-B323-448C-AC07-14628C7F1CBB";
name = Bold;
paths = (
{
closed = 1;
nodes = (
"897 133 LINE",
"777 13 OFFCURVE",
"647 -23 OFFCURVE",
"492 -23 CURVE SMOOTH",
"336 -23 OFFCURVE",
"206 26 OFFCURVE",
"118 111 CURVE SMOOTH",
"29 195 OFFCURVE",
"-20 317 OFFCURVE",
"-20 465 CURVE SMOOTH",
"-20 606 OFFCURVE",
"31 731 OFFCURVE",
"112 817 CURVE SMOOTH",
"192 903 OFFCURVE",
"305 954 OFFCURVE",
"428 954 CURVE SMOOTH",
"556 954 OFFCURVE",
"655 900 OFFCURVE",
"698 797 CURVE",
"698 932 LINE",
"883 932 LINE",
"883 498 LINE",
"698 498 LINE",
"698 662 OFFCURVE",
"599 768 OFFCURVE",
"455 768 CURVE SMOOTH",
"398 768 OFFCURVE",
"330 745 OFFCURVE",
"278 696 CURVE SMOOTH",
"225 647 OFFCURVE",
"186 572 OFFCURVE",
"186 465 CURVE SMOOTH",
"186 361 OFFCURVE",
"223 286 OFFCURVE",
"277 238 CURVE SMOOTH",
"331 189 OFFCURVE",
"408 164 OFFCURVE",
"487 164 CURVE SMOOTH",
"622 164 OFFCURVE",
"719 210 OFFCURVE",
"791 279 CURVE"
);
},
{
closed = 1;
nodes = (
"711 1227 LINE",
"279 983 LINE",
"190 1120 LINE",
"594 1407 LINE"
);
}
);
width = 1118;
}
);
unicode = 0107;
},
{
glyphname = Ccircumflex;
lastChange = "2013-08-07 13:45:35 +0000";
layers = (
{
layerId = "7B42E6E7-B323-448C-AC07-14628C7F1CBB";
name = Bold;
paths = (
{
closed = 1;
nodes = (
"952 399 LINE",
"920 271 OFFCURVE",
"867 165 OFFCURVE",
"791 92 CURVE SMOOTH",
"714 19 OFFCURVE",
"613 -23 OFFCURVE",
"481 -23 CURVE SMOOTH",
"298 -23 OFFCURVE",
"174 59 OFFCURVE",
"94 185 CURVE SMOOTH",
"13 311 OFFCURVE",
"-20 478 OFFCURVE",
"-20 653 CURVE SMOOTH",
"-20 828 OFFCURVE",
"13 997 OFFCURVE",
"93 1121 CURVE SMOOTH",
"172 1245 OFFCURVE",
"292 1327 OFFCURVE",
"469 1327 CURVE SMOOTH",
"526 1327 OFFCURVE",
"587 1313 OFFCURVE",
"638 1283 CURVE SMOOTH",
"689 1253 OFFCURVE",
"729 1208 OFFCURVE",
"745 1151 CURVE",
"745 1305 LINE",
"932 1305 LINE",
"932 811 LINE",
"745 811 LINE",
"745 892 OFFCURVE",
"726 976 OFFCURVE",
"682 1037 CURVE SMOOTH",
"638 1098 OFFCURVE",
"572 1141 OFFCURVE",
"481 1141 CURVE SMOOTH",
"364 1141 OFFCURVE",
"292 1078 OFFCURVE",
"247 985 CURVE SMOOTH",
"202 892 OFFCURVE",
"186 770 OFFCURVE",
"186 653 CURVE SMOOTH",
"186 536 OFFCURVE",
"202 412 OFFCURVE",
"246 320 CURVE SMOOTH",
"290 227 OFFCURVE",
"364 164 OFFCURVE",
"481 164 CURVE SMOOTH",
"650 164 OFFCURVE",
"731 280 OFFCURVE",
"786 463 CURVE"
);
},
{
closed = 1;
nodes = (
"791 1460 LINE",
"711 1358 LINE",
"469 1563 LINE",
"223 1356 LINE",
"143 1456 LINE",
"467 1774 LINE"
);
}
);
width = 1118;
}
);
unicode = 0108;
},
{
glyphname = ccircumflex;
lastChange = "2013-08-07 13:45:35 +0000";
layers = (
{
layerId = "7B42E6E7-B323-448C-AC07-14628C7F1CBB";
name = Bold;
paths = (
{
closed = 1;
nodes = (
"897 133 LINE",
"777 13 OFFCURVE",
"647 -23 OFFCURVE",
"492 -23 CURVE SMOOTH",
"336 -23 OFFCURVE",
"206 26 OFFCURVE",
"118 111 CURVE SMOOTH",
"29 195 OFFCURVE",
"-20 317 OFFCURVE",
"-20 465 CURVE SMOOTH",
"-20 606 OFFCURVE",
"31 731 OFFCURVE",
"112 817 CURVE SMOOTH",
"192 903 OFFCURVE",
"305 954 OFFCURVE",
"428 954 CURVE SMOOTH",
"556 954 OFFCURVE",
"655 900 OFFCURVE",
"698 797 CURVE",
"698 932 LINE",
"883 932 LINE",
"883 498 LINE",
"698 498 LINE",
"698 662 OFFCURVE",
"599 768 OFFCURVE",
"455 768 CURVE SMOOTH",
"398 768 OFFCURVE",
"330 745 OFFCURVE",
"278 696 CURVE SMOOTH",
"225 647 OFFCURVE",
"186 572 OFFCURVE",
"186 465 CURVE SMOOTH",
"186 361 OFFCURVE",
"223 286 OFFCURVE",
"277 238 CURVE SMOOTH",
"331 189 OFFCURVE",
"408 164 OFFCURVE",
"487 164 CURVE SMOOTH",
"622 164 OFFCURVE",
"719 210 OFFCURVE",
"791 279 CURVE"
);
},
{
closed = 1;
nodes = (
"791 1087 LINE",
"711 985 LINE",
"469 1190 LINE",
"223 983 LINE",
"143 1083 LINE",
"467 1401 LINE"
);
}
);
width = 1118;
}
);
unicode = 0109;
},
{
glyphname = Cdotaccent;
lastChange = "2013-08-07 13:45:35 +0000";
layers = (
{
layerId = "7B42E6E7-B323-448C-AC07-14628C7F1CBB";
name = Bold;
paths = (
{
closed = 1;
nodes = (
"952 399 LINE",
"920 271 OFFCURVE",
"867 165 OFFCURVE",
"791 92 CURVE SMOOTH",
"714 19 OFFCURVE",
"613 -23 OFFCURVE",
"481 -23 CURVE SMOOTH",
"298 -23 OFFCURVE",
"174 59 OFFCURVE",
"94 185 CURVE SMOOTH",
"13 311 OFFCURVE",
"-20 478 OFFCURVE",
"-20 653 CURVE SMOOTH",
"-20 828 OFFCURVE",
"13 997 OFFCURVE",
"93 1121 CURVE SMOOTH",
"172 1245 OFFCURVE",
"292 1327 OFFCURVE",
"469 1327 CURVE SMOOTH",
"526 1327 OFFCURVE",
"587 1313 OFFCURVE",
"638 1283 CURVE SMOOTH",
"689 1253 OFFCURVE",
"729 1208 OFFCURVE",
"745 1151 CURVE",
"745 1305 LINE",
"932 1305 LINE",
"932 811 LINE",
"745 811 LINE",
"745 892 OFFCURVE",
"726 976 OFFCURVE",
"682 1037 CURVE SMOOTH",
"638 1098 OFFCURVE",
"572 1141 OFFCURVE",
"481 1141 CURVE SMOOTH",
"364 1141 OFFCURVE",
"292 1078 OFFCURVE",
"247 985 CURVE SMOOTH",
"202 892 OFFCURVE",
"186 770 OFFCURVE",
"186 653 CURVE SMOOTH",
"186 536 OFFCURVE",
"202 412 OFFCURVE",
"246 320 CURVE SMOOTH",
"290 227 OFFCURVE",
"364 164 OFFCURVE",
"481 164 CURVE SMOOTH",
"650 164 OFFCURVE",
"731 280 OFFCURVE",
"786 463 CURVE"
);
},
{
closed = 1;
nodes = (
"592 1424 LINE",
"340 1424 LINE",
"340 1676 LINE",
"592 1676 LINE"
);
}
);
width = 1118;
}
);
unicode = 010A;
},
{
glyphname = cdotaccent;
lastChange = "2013-08-07 13:45:35 +0000";
layers = (
{
layerId = "7B42E6E7-B323-448C-AC07-14628C7F1CBB";
name = Bold;
paths = (
{
closed = 1;
nodes = (
"897 133 LINE",
"777 13 OFFCURVE",
"647 -23 OFFCURVE",
"492 -23 CURVE SMOOTH",
"336 -23 OFFCURVE",
"206 26 OFFCURVE",
"118 111 CURVE SMOOTH",
"29 195 OFFCURVE",
"-20 317 OFFCURVE",
"-20 465 CURVE SMOOTH",
"-20 606 OFFCURVE",
"31 731 OFFCURVE",
"112 817 CURVE SMOOTH",
"192 903 OFFCURVE",
"305 954 OFFCURVE",
"428 954 CURVE SMOOTH",
"556 954 OFFCURVE",
"655 900 OFFCURVE",
"698 797 CURVE",
"698 932 LINE",
"883 932 LINE",
"883 498 LINE",
"698 498 LINE",
"698 662 OFFCURVE",
"599 768 OFFCURVE",
"455 768 CURVE SMOOTH",
"398 768 OFFCURVE",
"330 745 OFFCURVE",
"278 696 CURVE SMOOTH",
"225 647 OFFCURVE",
"186 572 OFFCURVE",
"186 465 CURVE SMOOTH",
"186 361 OFFCURVE",
"223 286 OFFCURVE",
"277 238 CURVE SMOOTH",
"331 189 OFFCURVE",
"408 164 OFFCURVE",
"487 164 CURVE SMOOTH",
"622 164 OFFCURVE",
"719 210 OFFCURVE",
"791 279 CURVE"
);
},
{
closed = 1;
nodes = (
"592 1053 LINE",
"340 1053 LINE",
"340 1305 LINE",
"592 1305 LINE"
);
}
);
width = 1118;
}
);
unicode = 010B;
},
{
glyphname = Ccaron;
lastChange = "2013-08-07 13:45:35 +0000";
layers = (
{
layerId = "7B42E6E7-B323-448C-AC07-14628C7F1CBB";
name = Bold;
paths = (
{
closed = 1;
nodes = (
"952 399 LINE",
"920 271 OFFCURVE",
"867 165 OFFCURVE",
"791 92 CURVE SMOOTH",
"714 19 OFFCURVE",
"613 -23 OFFCURVE",
"481 -23 CURVE SMOOTH",
"298 -23 OFFCURVE",
"174 59 OFFCURVE",
"94 185 CURVE SMOOTH",
"13 311 OFFCURVE",
"-20 478 OFFCURVE",
"-20 653 CURVE SMOOTH",
"-20 828 OFFCURVE",
"13 997 OFFCURVE",
"93 1121 CURVE SMOOTH",
"172 1245 OFFCURVE",
"292 1327 OFFCURVE",
"469 1327 CURVE SMOOTH",
"526 1327 OFFCURVE",
"587 1313 OFFCURVE",
"638 1283 CURVE SMOOTH",
"689 1253 OFFCURVE",
"729 1208 OFFCURVE",
"745 1151 CURVE",
"745 1305 LINE",
"932 1305 LINE",
"932 811 LINE",
"745 811 LINE",
"745 892 OFFCURVE",
"726 976 OFFCURVE",
"682 1037 CURVE SMOOTH",
"638 1098 OFFCURVE",
"572 1141 OFFCURVE",
"481 1141 CURVE SMOOTH",
"364 1141 OFFCURVE",
"292 1078 OFFCURVE",
"247 985 CURVE SMOOTH",
"202 892 OFFCURVE",
"186 770 OFFCURVE",
"186 653 CURVE SMOOTH",
"186 536 OFFCURVE",
"202 412 OFFCURVE",
"246 320 CURVE SMOOTH",
"290 227 OFFCURVE",
"364 164 OFFCURVE",
"481 164 CURVE SMOOTH",
"650 164 OFFCURVE",
"731 280 OFFCURVE",
"786 463 CURVE"
);
},
{
closed = 1;
nodes = (
"467 1356 LINE",
"143 1673 LINE",
"223 1774 LINE",
"469 1567 LINE",
"711 1772 LINE",
"791 1669 LINE"
);
}
);
width = 1118;
}
);
unicode = 010C;
},
{
glyphname = ccaron;
lastChange = "2013-08-07 13:45:35 +0000";
layers = (
{
layerId = "7B42E6E7-B323-448C-AC07-14628C7F1CBB";
name = Bold;
paths = (
{
closed = 1;
nodes = (
"897 133 LINE",
"777 13 OFFCURVE",
"647 -23 OFFCURVE",
"492 -23 CURVE SMOOTH",
"336 -23 OFFCURVE",
"206 26 OFFCURVE",
"118 111 CURVE SMOOTH",
"29 195 OFFCURVE",
"-20 317 OFFCURVE",
"-20 465 CURVE SMOOTH",
"-20 606 OFFCURVE",
"31 731 OFFCURVE",
"112 817 CURVE SMOOTH",
"192 903 OFFCURVE",
"305 954 OFFCURVE",
"428 954 CURVE SMOOTH",
"556 954 OFFCURVE",
"655 900 OFFCURVE",
"698 797 CURVE",
"698 932 LINE",
"883 932 LINE",
"883 498 LINE",
"698 498 LINE",
"698 662 OFFCURVE",
"599 768 OFFCURVE",
"455 768 CURVE SMOOTH",
"398 768 OFFCURVE",
"330 745 OFFCURVE",
"278 696 CURVE SMOOTH",
"225 647 OFFCURVE",
"186 572 OFFCURVE",
"186 465 CURVE SMOOTH",
"186 361 OFFCURVE",
"223 286 OFFCURVE",
"277 238 CURVE SMOOTH",
"331 189 OFFCURVE",
"408 164 OFFCURVE",
"487 164 CURVE SMOOTH",
"622 164 OFFCURVE",
"719 210 OFFCURVE",
"791 279 CURVE"
);
},
{
closed = 1;
nodes = (
"467 983 LINE",
"143 1300 LINE",
"223 1401 LINE",
"469 1194 LINE",
"711 1399 LINE",
"791 1296 LINE"
);
}
);
width = 1118;
}
);
unicode = 010D;
},
{
glyphname = Dcaron;
lastChange = "2013-08-07 13:45:35 +0000";
layers = (
{
layerId = "7B42E6E7-B323-448C-AC07-14628C7F1CBB";
name = Bold;
paths = (
{
closed = 1;
nodes = (
"975 478 OFFCURVE",
"940 315 OFFCURVE",
"860 196 CURVE SMOOTH",
"779 76 OFFCURVE",
"653 0 OFFCURVE",
"473 0 CURVE SMOOTH",
"49 0 LINE",
"49 1305 LINE",
"473 1305 LINE SMOOTH",
"650 1305 OFFCURVE",
"777 1228 OFFCURVE",
"858 1109 CURVE SMOOTH",
"938 990 OFFCURVE",
"975 828 OFFCURVE",
"975 653 CURVE SMOOTH"
);
},
{
closed = 1;
nodes = (
"768 954 OFFCURVE",
"661 1118 OFFCURVE",
"473 1118 CURVE SMOOTH",
"256 1118 LINE",
"256 186 LINE",
"473 186 LINE SMOOTH",
"661 186 OFFCURVE",
"768 356 OFFCURVE",
"768 653 CURVE SMOOTH"
);
},
{
closed = 1;
nodes = (
"467 1356 LINE",
"143 1673 LINE",
"223 1774 LINE",
"469 1567 LINE",
"711 1772 LINE",
"791 1669 LINE"
);
}
);
width = 1118;
}
);
unicode = 010E;
},
{
glyphname = dcaron;
lastChange = "2013-08-07 13:45:35 +0000";
layers = (
{
layerId = "7B42E6E7-B323-448C-AC07-14628C7F1CBB";
name = Bold;
paths = (
{
closed = 1;
nodes = (
"766 0 LINE",
"559 0 LINE",
"559 86 LINE",
"491 15 OFFCURVE",
"423 -23 OFFCURVE",
"336 -23 CURVE SMOOTH",
"232 -23 OFFCURVE",
"145 28 OFFCURVE",
"81 114 CURVE SMOOTH",
"17 200 OFFCURVE",
"-20 322 OFFCURVE",
"-20 465 CURVE SMOOTH",
"-20 606 OFFCURVE",
"17 731 OFFCURVE",
"81 817 CURVE SMOOTH",
"145 903 OFFCURVE",
"232 954 OFFCURVE",
"336 954 CURVE SMOOTH",
"423 954 OFFCURVE",
"491 919 OFFCURVE",
"559 848 CURVE",
"559 1118 LINE",
"373 1118 LINE",
"373 1305 LINE",
"766 1305 LINE"
);
},
{
closed = 1;
nodes = (
"559 684 LINE",
"520 739 OFFCURVE",
"452 768 OFFCURVE",
"395 768 CURVE SMOOTH",
"272 768 OFFCURVE",
"186 645 OFFCURVE",
"186 465 CURVE SMOOTH",
"186 285 OFFCURVE",
"272 164 OFFCURVE",
"395 164 CURVE SMOOTH",
"452 164 OFFCURVE",
"520 193 OFFCURVE",
"559 248 CURVE"
);
},
{
closed = 1;
nodes = (
"1118 1304 LINE",
"1035 747 LINE",
"873 747 LINE",
"873 1304 LINE"
);
}
);
width = 1118;
}
);
unicode = 010F;
},
{
glyphname = Dcroat;
lastChange = "2013-08-07 13:45:35 +0000";
layers = (
{
layerId = "7B42E6E7-B323-448C-AC07-14628C7F1CBB";
name = Bold;
paths = (
{
closed = 1;
nodes = (
"-117 758 LINE",
"49 758 LINE",
"49 1305 LINE",
"473 1305 LINE SMOOTH",
"650 1305 OFFCURVE",
"777 1228 OFFCURVE",
"858 1109 CURVE SMOOTH",
"938 990 OFFCURVE",
"975 828 OFFCURVE",
"975 653 CURVE SMOOTH",
"975 478 OFFCURVE",
"940 315 OFFCURVE",
"860 196 CURVE SMOOTH",
"779 76 OFFCURVE",
"653 0 OFFCURVE",
"473 0 CURVE SMOOTH",
"49 0 LINE",
"49 571 LINE",
"-117 571 LINE"
);
},
{
closed = 1;
nodes = (
"768 954 OFFCURVE",
"661 1118 OFFCURVE",
"473 1118 CURVE SMOOTH",
"256 1118 LINE",
"256 758 LINE",
"440 758 LINE",
"440 571 LINE",
"256 571 LINE",
"256 186 LINE",
"473 186 LINE SMOOTH",
"661 186 OFFCURVE",
"768 356 OFFCURVE",
"768 653 CURVE SMOOTH"
);
}
);
width = 1118;
}
);
unicode = 0110;
},
{
glyphname = dcroat;
lastChange = "2013-08-07 13:45:35 +0000";
layers = (
{
layerId = "7B42E6E7-B323-448C-AC07-14628C7F1CBB";
name = Bold;
paths = (
{
closed = 1;
nodes = (
"1055 989 LINE",
"883 989 LINE",
"883 0 LINE",
"676 0 LINE",
"676 86 LINE",
"596 15 OFFCURVE",
"520 -23 OFFCURVE",
"416 -23 CURVE SMOOTH",
"296 -23 OFFCURVE",
"191 28 OFFCURVE",
"117 114 CURVE SMOOTH",
"43 200 OFFCURVE",
"-2 322 OFFCURVE",
"-2 465 CURVE SMOOTH",
"-2 606 OFFCURVE",
"43 731 OFFCURVE",
"117 817 CURVE SMOOTH",
"191 903 OFFCURVE",
"296 954 OFFCURVE",
"416 954 CURVE SMOOTH",
"520 954 OFFCURVE",
"596 919 OFFCURVE",
"676 848 CURVE",
"676 989 LINE",
"496 989 LINE",
"496 1163 LINE",
"676 1163 LINE",
"676 1305 LINE",
"883 1305 LINE",
"883 1163 LINE",
"1055 1163 LINE"
);
},
{
closed = 1;
nodes = (
"676 684 LINE",
"627 739 OFFCURVE",
"540 768 OFFCURVE",
"469 768 CURVE SMOOTH",
"313 768 OFFCURVE",
"205 645 OFFCURVE",
"205 465 CURVE SMOOTH",
"205 285 OFFCURVE",
"313 164 OFFCURVE",
"469 164 CURVE SMOOTH",
"540 164 OFFCURVE",
"627 193 OFFCURVE",
"676 248 CURVE"
);
}
);
width = 1118;
}
);
unicode = 0111;
},
{
glyphname = Emacron;
lastChange = "2013-08-07 13:45:35 +0000";
layers = (
{
layerId = "7B42E6E7-B323-448C-AC07-14628C7F1CBB";
name = Bold;
paths = (
{
closed = 1;
nodes = (
"883 0 LINE",
"49 0 LINE",
"49 1305 LINE",
"883 1305 LINE",
"883 1118 LINE",
"256 1118 LINE",
"256 758 LINE",
"745 758 LINE",
"745 571 LINE",
"256 571 LINE",
"256 186 LINE",
"883 186 LINE"
);
},
{
closed = 1;
nodes = (
"745 1415 LINE",
"186 1415 LINE",
"186 1590 LINE",
"745 1590 LINE"
);
}
);
width = 1118;
}
);
unicode = 0112;
},
{
glyphname = emacron;
lastChange = "2013-08-07 13:45:35 +0000";
layers = (
{
layerId = "7B42E6E7-B323-448C-AC07-14628C7F1CBB";
name = Bold;
paths = (
{
closed = 1;
nodes = (
"190 387 LINE",
"210 259 OFFCURVE",
"315 164 OFFCURVE",
"487 164 CURVE SMOOTH",
"622 164 OFFCURVE",
"719 210 OFFCURVE",
"791 279 CURVE",
"897 133 LINE",
"777 13 OFFCURVE",
"646 -23 OFFCURVE",
"487 -23 CURVE SMOOTH",
"343 -23 OFFCURVE",
"216 28 OFFCURVE",
"125 114 CURVE SMOOTH",
"34 200 OFFCURVE",
"-20 320 OFFCURVE",
"-20 465 CURVE SMOOTH",
"-20 606 OFFCURVE",
"30 728 OFFCURVE",
"116 816 CURVE SMOOTH",
"202 903 OFFCURVE",
"324 954 OFFCURVE",
"469 954 CURVE SMOOTH",
"620 954 OFFCURVE",
"744 901 OFFCURVE",
"832 804 CURVE SMOOTH",
"919 707 OFFCURVE",
"971 564 OFFCURVE",
"971 387 CURVE"
);
},
{
closed = 1;
nodes = (
"737 569 LINE",
"716 689 OFFCURVE",
"600 768 OFFCURVE",
"469 768 CURVE SMOOTH",
"338 768 OFFCURVE",
"220 689 OFFCURVE",
"199 569 CURVE"
);
},
{
closed = 1;
nodes = (
"745 1044 LINE",
"186 1044 LINE",
"186 1219 LINE",
"745 1219 LINE"
);
}
);
width = 1118;
}
);
unicode = 0113;
},
{
glyphname = Ebreve;
lastChange = "2013-08-07 13:45:35 +0000";
layers = (
{
layerId = "7B42E6E7-B323-448C-AC07-14628C7F1CBB";
name = Bold;
paths = (
{
closed = 1;
nodes = (
"883 0 LINE",
"49 0 LINE",
"49 1305 LINE",
"883 1305 LINE",
"883 1118 LINE",
"256 1118 LINE",
"256 758 LINE",
"745 758 LINE",
"745 571 LINE",
"256 571 LINE",
"256 186 LINE",
"883 186 LINE"
);
},
{
closed = 1;
nodes = (
"795 1538 LINE",
"704 1448 OFFCURVE",
"595 1403 OFFCURVE",
"467 1403 CURVE SMOOTH",
"338 1403 OFFCURVE",
"229 1448 OFFCURVE",
"139 1538 CURVE",
"260 1657 LINE",
"323 1594 OFFCURVE",
"392 1563 OFFCURVE",
"467 1563 CURVE SMOOTH",
"542 1563 OFFCURVE",
"611 1594 OFFCURVE",
"674 1657 CURVE"
);
}
);
width = 1118;
}
);
unicode = 0114;
},
{
glyphname = ebreve;
lastChange = "2013-08-07 13:45:35 +0000";
layers = (
{
layerId = "7B42E6E7-B323-448C-AC07-14628C7F1CBB";
name = Bold;
paths = (
{
closed = 1;
nodes = (
"190 387 LINE",
"210 259 OFFCURVE",
"315 164 OFFCURVE",
"487 164 CURVE SMOOTH",
"622 164 OFFCURVE",
"719 210 OFFCURVE",
"791 279 CURVE",
"897 133 LINE",
"777 13 OFFCURVE",
"646 -23 OFFCURVE",
"487 -23 CURVE SMOOTH",
"343 -23 OFFCURVE",
"216 28 OFFCURVE",
"125 114 CURVE SMOOTH",
"34 200 OFFCURVE",
"-20 320 OFFCURVE",
"-20 465 CURVE SMOOTH",
"-20 606 OFFCURVE",
"30 728 OFFCURVE",
"116 816 CURVE SMOOTH",
"202 903 OFFCURVE",
"324 954 OFFCURVE",
"469 954 CURVE SMOOTH",
"620 954 OFFCURVE",
"744 901 OFFCURVE",
"832 804 CURVE SMOOTH",
"919 707 OFFCURVE",
"971 564 OFFCURVE",
"971 387 CURVE"
);
},
{
closed = 1;
nodes = (
"737 569 LINE",
"716 689 OFFCURVE",
"600 768 OFFCURVE",
"469 768 CURVE SMOOTH",
"338 768 OFFCURVE",
"220 689 OFFCURVE",
"199 569 CURVE"
);
},
{
closed = 1;
nodes = (
"795 1167 LINE",
"704 1077 OFFCURVE",
"595 1032 OFFCURVE",
"467 1032 CURVE SMOOTH",
"338 1032 OFFCURVE",
"229 1077 OFFCURVE",
"139 1167 CURVE",
"260 1286 LINE",
"323 1223 OFFCURVE",
"392 1192 OFFCURVE",
"467 1192 CURVE SMOOTH",
"542 1192 OFFCURVE",
"611 1223 OFFCURVE",
"674 1286 CURVE"
);
}
);
width = 1118;
}
);
unicode = 0115;
},
{
glyphname = Edotaccent;
lastChange = "2013-08-07 13:45:35 +0000";
layers = (
{
layerId = "7B42E6E7-B323-448C-AC07-14628C7F1CBB";
name = Bold;
paths = (
{
closed = 1;
nodes = (
"883 0 LINE",
"49 0 LINE",
"49 1305 LINE",
"883 1305 LINE",
"883 1118 LINE",
"256 1118 LINE",
"256 758 LINE",
"745 758 LINE",
"745 571 LINE",
"256 571 LINE",
"256 186 LINE",
"883 186 LINE"
);
},
{
closed = 1;
nodes = (
"592 1424 LINE",
"340 1424 LINE",
"340 1676 LINE",
"592 1676 LINE"
);
}
);
width = 1118;
}
);
unicode = 0116;
},
{
glyphname = edotaccent;
lastChange = "2013-08-07 13:45:35 +0000";
layers = (
{
layerId = "7B42E6E7-B323-448C-AC07-14628C7F1CBB";
name = Bold;
paths = (
{
closed = 1;
nodes = (
"190 387 LINE",
"210 259 OFFCURVE",
"315 164 OFFCURVE",
"487 164 CURVE SMOOTH",
"622 164 OFFCURVE",
"719 210 OFFCURVE",
"791 279 CURVE",
"897 133 LINE",
"777 13 OFFCURVE",
"646 -23 OFFCURVE",
"487 -23 CURVE SMOOTH",
"343 -23 OFFCURVE",
"216 28 OFFCURVE",
"125 114 CURVE SMOOTH",
"34 200 OFFCURVE",
"-20 320 OFFCURVE",
"-20 465 CURVE SMOOTH",
"-20 606 OFFCURVE",
"30 728 OFFCURVE",
"116 816 CURVE SMOOTH",
"202 903 OFFCURVE",
"324 954 OFFCURVE",
"469 954 CURVE SMOOTH",
"620 954 OFFCURVE",
"744 901 OFFCURVE",
"832 804 CURVE SMOOTH",
"919 707 OFFCURVE",
"971 564 OFFCURVE",
"971 387 CURVE"
);
},
{
closed = 1;
nodes = (
"737 569 LINE",
"716 689 OFFCURVE",
"600 768 OFFCURVE",
"469 768 CURVE SMOOTH",
"338 768 OFFCURVE",
"220 689 OFFCURVE",
"199 569 CURVE"
);
},
{
closed = 1;
nodes = (
"592 1053 LINE",
"340 1053 LINE",
"340 1305 LINE",
"592 1305 LINE"
);
}
);
width = 1118;
}
);
unicode = 0117;
},
{
glyphname = Eogonek;
lastChange = "2013-08-07 13:45:35 +0000";
layers = (
{
layerId = "7B42E6E7-B323-448C-AC07-14628C7F1CBB";
name = Bold;
paths = (
{
closed = 1;
nodes = (
"995 -379 LINE",
"815 -379 OFFCURVE",
"702 -300 OFFCURVE",
"702 -141 CURVE SMOOTH",
"702 -86 OFFCURVE",
"723 -39 OFFCURVE",
"756 0 CURVE",
"49 0 LINE",
"49 1305 LINE",
"883 1305 LINE",
"883 1118 LINE",
"256 1118 LINE",
"256 758 LINE",
"745 758 LINE",
"745 571 LINE",
"256 571 LINE",
"256 186 LINE",
"883 186 LINE",
"883 0 LINE",
"857 -29 OFFCURVE",
"844 -63 OFFCURVE",
"844 -104 CURVE SMOOTH",
"844 -189 OFFCURVE",
"911 -231 OFFCURVE",
"995 -231 CURVE"
);
}
);
width = 1118;
}
);
unicode = 0118;
},
{
glyphname = eogonek;
lastChange = "2013-08-07 13:45:35 +0000";
layers = (
{
layerId = "7B42E6E7-B323-448C-AC07-14628C7F1CBB";
name = Bold;
paths = (
{
closed = 1;
nodes = (
"784 -379 LINE",
"604 -379 OFFCURVE",
"492 -300 OFFCURVE",
"492 -141 CURVE SMOOTH",
"492 -94 OFFCURVE",
"507 -56 OFFCURVE",
"528 -20 CURVE",
"521 -22 OFFCURVE",
"515 -23 OFFCURVE",
"508 -23 CURVE SMOOTH",
"501 -23 OFFCURVE",
"494 -23 OFFCURVE",
"487 -23 CURVE SMOOTH",
"343 -23 OFFCURVE",
"216 28 OFFCURVE",
"125 114 CURVE SMOOTH",
"34 200 OFFCURVE",
"-20 320 OFFCURVE",
"-20 465 CURVE SMOOTH",
"-20 606 OFFCURVE",
"30 728 OFFCURVE",
"116 816 CURVE SMOOTH",
"202 903 OFFCURVE",
"324 954 OFFCURVE",
"469 954 CURVE SMOOTH",
"620 954 OFFCURVE",
"744 901 OFFCURVE",
"832 804 CURVE SMOOTH",
"919 707 OFFCURVE",
"971 564 OFFCURVE",
"971 387 CURVE",
"190 387 LINE",
"210 259 OFFCURVE",
"315 164 OFFCURVE",
"487 164 CURVE SMOOTH",
"622 164 OFFCURVE",
"719 210 OFFCURVE",
"791 279 CURVE",
"897 133 LINE",
"826 62 OFFCURVE",
"751 21 OFFCURVE",
"672 0 CURVE",
"646 -29 OFFCURVE",
"633 -63 OFFCURVE",
"633 -104 CURVE SMOOTH",
"633 -189 OFFCURVE",
"700 -231 OFFCURVE",
"784 -231 CURVE"
);
},
{
closed = 1;
nodes = (
"737 569 LINE",
"716 689 OFFCURVE",
"600 768 OFFCURVE",
"469 768 CURVE SMOOTH",
"338 768 OFFCURVE",
"220 689 OFFCURVE",
"199 569 CURVE"
);
}
);
width = 1118;
}
);
unicode = 0119;
},
{
glyphname = Ecaron;
lastChange = "2013-08-07 13:45:35 +0000";
layers = (
{
layerId = "7B42E6E7-B323-448C-AC07-14628C7F1CBB";
name = Bold;
paths = (
{
closed = 1;
nodes = (
"883 0 LINE",
"49 0 LINE",
"49 1305 LINE",
"883 1305 LINE",
"883 1118 LINE",
"256 1118 LINE",
"256 758 LINE",
"745 758 LINE",
"745 571 LINE",
"256 571 LINE",
"256 186 LINE",
"883 186 LINE"
);
},
{
closed = 1;
nodes = (
"467 1352 LINE",
"143 1669 LINE",
"223 1770 LINE",
"469 1563 LINE",
"711 1768 LINE",
"791 1665 LINE"
);
}
);
width = 1118;
}
);
unicode = 011A;
},
{
glyphname = ecaron;
lastChange = "2013-08-07 13:45:35 +0000";
layers = (
{
layerId = "7B42E6E7-B323-448C-AC07-14628C7F1CBB";
name = Bold;
paths = (
{
closed = 1;
nodes = (
"190 387 LINE",
"210 259 OFFCURVE",
"315 164 OFFCURVE",
"487 164 CURVE SMOOTH",
"622 164 OFFCURVE",
"719 210 OFFCURVE",
"791 279 CURVE",
"897 133 LINE",
"777 13 OFFCURVE",
"646 -23 OFFCURVE",
"487 -23 CURVE SMOOTH",
"343 -23 OFFCURVE",
"216 28 OFFCURVE",
"125 114 CURVE SMOOTH",
"34 200 OFFCURVE",
"-20 320 OFFCURVE",
"-20 465 CURVE SMOOTH",
"-20 606 OFFCURVE",
"30 728 OFFCURVE",
"116 816 CURVE SMOOTH",
"202 903 OFFCURVE",
"324 954 OFFCURVE",
"469 954 CURVE SMOOTH",
"620 954 OFFCURVE",
"744 901 OFFCURVE",
"832 804 CURVE SMOOTH",
"919 707 OFFCURVE",
"971 564 OFFCURVE",
"971 387 CURVE"
);
},
{
closed = 1;
nodes = (
"737 569 LINE",
"716 689 OFFCURVE",
"600 768 OFFCURVE",
"469 768 CURVE SMOOTH",
"338 768 OFFCURVE",
"220 689 OFFCURVE",
"199 569 CURVE"
);
},
{
closed = 1;
nodes = (
"467 981 LINE",
"143 1298 LINE",
"223 1399 LINE",
"469 1192 LINE",
"711 1397 LINE",
"791 1294 LINE"
);
}
);
width = 1118;
}
);
unicode = 011B;
},
